<svg id="Layer_1" data-name="Layer 1" xmlns="http://www.w3.org/2000/svg" viewBox="0 0 250 250"><defs><style>.cls-1{fill:#3567b1;}</style></defs><title>youtube</title><path class="cls-1" d="M125.3,246.55a122,122,0,1,1,122-122A122.13,122.13,0,0,1,125.3,246.55Zm0-240a118,118,0,1,0,118,118A118.13,118.13,0,0,0,125.3,6.55Z"/><path class="cls-1" d="M189.05,92.31a16.73,16.73,0,0,0-11.76-11.84c-10.38-2.8-52-2.8-52-2.8s-41.61,0-52,2.8A16.73,16.73,0,0,0,61.54,92.31c-2.78,10.45-2.78,32.24-2.78,32.24s0,21.79,2.78,32.24A16.73,16.73,0,0,0,73.3,168.63c10.38,2.8,52,2.8,52,2.8s41.62,0,52-2.8a16.73,16.73,0,0,0,11.76-11.84c2.79-10.45,2.79-32.24,2.79-32.24S191.84,102.76,189.05,92.31Zm-77.37,52V104.76l34.79,19.79Z"/></svg>