<svg xmlns="http://www.w3.org/2000/svg" viewBox="0 0 250 250"><defs><style>.cls-1,.cls-2{fill:#f4e5da;}.cls-1{stroke:#f4e5da;stroke-miterlimit:10;}</style></defs><title>linkedin</title><g id="Layer_3" data-name="Layer 3"><path class="cls-1" d="M125,230.53A100.5,100.5,0,1,1,225.5,130,100.61,100.61,0,0,1,125,230.53Zm0-200A99.5,99.5,0,1,0,224.5,130,99.62,99.62,0,0,0,125,30.53Z"/><rect class="cls-2" x="67.38" y="110.02" width="24.77" height="80.04"/><path class="cls-2" d="M79.65,99.54A14.77,14.77,0,1,0,65,84.77,14.71,14.71,0,0,0,79.65,99.54Z"/><path class="cls-2" d="M131.76,148.05c0-11.25,5.18-18,15.09-18,9.11,0,13.49,6.44,13.49,18v42H185V139.38c0-21.43-12.15-31.8-29.12-31.8a27.9,27.9,0,0,0-24.12,13.22V110H108v80h23.77Z"/><circle class="cls-2" cx="125" cy="30.03" r="10.06"/></g></svg>