<svg id="Layer_1" data-name="Layer 1" xmlns="http://www.w3.org/2000/svg" viewBox="0 0 250 250"><defs><style>.cls-1{fill:#3567b1;}</style></defs><title>linkedin</title><path class="cls-1" d="M125.3,246.55a122,122,0,1,1,122-122A122.13,122.13,0,0,1,125.3,246.55Zm0-240a118,118,0,1,0,118,118A118.13,118.13,0,0,0,125.3,6.55Z"/><rect class="cls-1" x="74.08" y="100.76" width="22.02" height="71.14"/><path class="cls-1" d="M85,91.45A13.13,13.13,0,1,0,72,78.32,13.08,13.08,0,0,0,85,91.45Z"/><path class="cls-1" d="M131.3,134.56c0-10,4.61-16,13.42-16,8.1,0,12,5.72,12,16V171.9h21.92v-45c0-19-10.8-28.27-25.89-28.27a24.81,24.81,0,0,0-21.44,11.76v-9.59H110.18V171.9H131.3Z"/></svg>