<svg id="Layer_1" data-name="Layer 1" xmlns="http://www.w3.org/2000/svg" viewBox="0 0 500 500"><defs><style>.cls-1{fill:#f0e4d6;}.cls-2{fill:#333;}.cls-3{fill:#f15d3c;}.cls-4{fill:#3567b1;}</style></defs><title>originLM</title><rect class="cls-1" x="-0.01" y="0.46" width="500" height="500"/><path class="cls-2" d="M282.8,471.54c2.21-19.46,2.78-49.41,2-68.8-37.44-20.24-205,2.75-226,33.73-.41,12.28-.38,24.06.13,35.07Z"/><path class="cls-3" d="M144.4,168.47c31.76-1.46,102.78,3.22,134.36,15.29-2.84,24.79-19.55,76.47-45,93.56S144.4,168.47,144.4,168.47Z"/><path class="cls-2" d="M228.46,279.93a13.37,13.37,0,0,1-3.46-.47c-29-7.56-79.37-106.32-81.51-110.52a1.06,1.06,0,0,1,0-1,1,1,0,0,1,.84-.5c29.46-1.36,101.7,2.71,134.76,15.34a1,1,0,0,1,.65,1.07c-2.67,23.34-19.24,76.71-45.45,94.3A10.35,10.35,0,0,1,228.46,279.93ZM146,169.43c6.39,12.34,53.2,101.2,79.48,108.06a9,9,0,0,0,7.66-1c25.38-17,41.57-68.63,44.47-92C245.11,172.34,176.05,168.3,146,169.43Z"/><path class="cls-1" d="M398.46,167.43c-9.89,25.58-51.93,71.28-79.11,85.66s-29.67-30.86-29.67-30.86l31.54-32.08,47.61-19.7Z"/><path class="cls-2" d="M309.49,256.93a13.81,13.81,0,0,1-6.91-1.8c-12.36-7-13.86-31.79-13.92-32.84a1,1,0,0,1,.29-.77l31.54-32.08a.89.89,0,0,1,.34-.23l47.62-19.7a.89.89,0,0,1,.28-.07l29.62-3a1,1,0,0,1,.92.4,1,1,0,0,1,.14,1c-10,25.9-52.4,71.81-79.59,86.2A22.31,22.31,0,0,1,309.49,256.93Zm-18.76-34.31C291,226,293,247.4,303.58,253.35c4.2,2.37,9.34,2,15.29-1.17,26.33-13.93,67.09-57.76,78-83.57l-27.79,2.84L321.8,191Z"/><path class="cls-3" d="M284.79,402.74c-5.11-124.88-67.37-240-123-237.45-58,2.67-99.19,158.5-102.95,271.18C179,430.92,196.76,406.8,284.79,402.74Z"/><path class="cls-2" d="M58.81,437.49a1,1,0,0,1-.71-.3,1.07,1.07,0,0,1-.31-.76c2-58.87,13.63-125.09,31.2-177.13,9.55-28.29,20.29-50.82,31.92-67,13-18,26.7-27.43,40.8-28.08s28.7,5.87,43.43,19.37c20.5,18.79,39.8,50.29,54.36,88.71a421.21,421.21,0,0,1,26.31,130.34,1,1,0,0,1-1,1.06c-40.49,1.87-66.32,8.06-93.68,14.6-31.59,7.57-67.41,16.14-132.29,19.14ZM163.63,166.26c-.61,0-1.22,0-1.82.05-25.73,1.18-50.91,34.44-70.89,93.64-17.4,51.54-29,117-31.05,175.45,64-3,99.48-11.53,130.81-19,27.22-6.52,52.94-12.67,93.05-14.61a419.07,419.07,0,0,0-26.14-128.68C243.15,235,224,203.72,203.76,185.14,190.09,172.61,176.6,166.26,163.63,166.26Z"/><path class="cls-2" d="M159.79,295.05C157.26,343.69,114.61,402.14,84,411.51,65.59,374.18,73.83,346,73.83,346l65-56.3Z"/><path class="cls-2" d="M84,412.53a1,1,0,0,1-.91-.57c-18.39-37.26-10.33-66-10.25-66.29a1.14,1.14,0,0,1,.31-.49l65-56.3a1,1,0,0,1,.92-.22l20.93,5.4a1,1,0,0,1,.77,1c-2.56,49.18-45.26,107.82-76.5,117.39A1,1,0,0,1,84,412.53Zm-9.27-66c-.77,3-6.77,29.58,9.8,63.75,14.41-4.81,32.34-21.12,47-42.83,15.92-23.52,25.79-49.56,27.14-71.61l-19.6-5.06Z"/><path class="cls-4" d="M470.42,375.86a42.67,42.67,0,0,0-37.34-20.27,12.38,12.38,0,0,1-10.17-4.72l-.23-.31a12.88,12.88,0,0,1,2.38-18.07l59.9-46a3.88,3.88,0,0,0,.71-5.43l-47.3-61.65a12,12,0,0,0-16.86-2.22,12.2,12.2,0,0,0-4.7,9.93A39.85,39.85,0,1,1,388,189.57a12.2,12.2,0,0,0,10.82-2A12,12,0,0,0,401,170.74L353.7,109.1a3.86,3.86,0,0,0-5.42-.72l-172,132a3.87,3.87,0,0,0-.72,5.43l132,172a3.88,3.88,0,0,0,5.43.71l59.9-46a12.9,12.9,0,0,1,18.07,2.38,12.7,12.7,0,0,1,2.18,11.31,42.71,42.71,0,1,0,77.31-10.36Z"/><path class="cls-2" d="M434.19,442c-1.12,0-2.26,0-3.4-.13a43.71,43.71,0,0,1-38.65-55.94,11.73,11.73,0,0,0-2-10.4,11.88,11.88,0,0,0-16.64-2.2l-59.9,46a4.9,4.9,0,0,1-6.86-.9l-132-172a4.9,4.9,0,0,1,.91-6.86l172-132a4.89,4.89,0,0,1,6.85.91l47.3,61.64a13.07,13.07,0,0,1-2.41,18.3,13.29,13.29,0,0,1-11.72,2.13,39,39,0,0,0-34.34,6.51,38.84,38.84,0,0,0-5.6,56.37,38.82,38.82,0,0,0,68.05-26.25,13.32,13.32,0,0,1,5.1-10.76,13.05,13.05,0,0,1,18.29,2.41l47.3,61.65a4.83,4.83,0,0,1,1,3.61,4.9,4.9,0,0,1-1.87,3.25l-59.9,46a11.89,11.89,0,0,0-2.2,16.65l.24.31a11.29,11.29,0,0,0,9.34,4.32A43.73,43.73,0,1,1,434.19,442Zm-53.5-73.15a13.88,13.88,0,0,1,13.4,17.65,41.68,41.68,0,0,0,36.85,53.34,41.69,41.69,0,1,0,2.17-83.24,13.44,13.44,0,0,1-11-5.12l-.23-.31a13.92,13.92,0,0,1,2.57-19.5l59.9-46a2.88,2.88,0,0,0,1.09-1.89,2.8,2.8,0,0,0-.57-2.11l-47.29-61.65a11,11,0,0,0-15.44-2,11.24,11.24,0,0,0-4.3,9.1,40.87,40.87,0,1,1-29.58-38.55,11.24,11.24,0,0,0,9.91-1.79,11,11,0,0,0,2-15.44L352.9,109.72a2.85,2.85,0,0,0-4-.53l-172,132a2.85,2.85,0,0,0-.53,4l132,172a2.85,2.85,0,0,0,4,.52l59.9-46A13.84,13.84,0,0,1,380.69,368.86Z"/><path class="cls-1" d="M150.19,293.9c15.85,16,64.63,25.66,99.85.17,1.18-13.18,11.84-19.56,15.44-27.36,5.24-11.38,18.64-1.26,12.56,13.54,11.23-2.31,17.95-5.76,25.19-10.11s17.55,9.73,1.61,22c3.18,17.15,2.73,33.29-17.56,46.15C275.66,371.05,178.47,437,79.05,381.51a575.72,575.72,0,0,1,13-59.87Z"/><path class="cls-2" d="M159.43,403.87c-24.06,0-51.9-5.3-80.88-21.47a1,1,0,0,1-.51-1,582.31,582.31,0,0,1,13-60,1.06,1.06,0,0,1,.54-.65L149.75,293a1,1,0,0,1,1.16.2c8.1,8.16,24.59,14.18,42,15.34,20.75,1.38,40.67-3.95,56.15-15,.92-8.59,5.69-14.31,9.91-19.37a38.45,38.45,0,0,0,5.57-7.86c2.6-5.64,6.92-6.16,9.82-4.9,4.77,2.08,7.89,9.19,5.26,17.48a71.48,71.48,0,0,0,23.07-9.6c3.21-1.93,7.28-.77,9.69,2.75,3.41,5,2.7,13.25-6.44,20.55,2.95,16.36,2.66,33.25-17.83,46.41-5.86,15.83-31.82,40-68.83,53.93A171.35,171.35,0,0,1,159.43,403.87ZM80.17,381c58.18,32.17,111.65,20.12,138.4,10,36.69-13.83,62.29-37.65,67.75-53a1,1,0,0,1,.41-.52c18.91-12,20.51-26.7,17.11-45.11a1,1,0,0,1,.38-1c8.55-6.58,9.42-13.87,6.48-18.18-1.8-2.63-4.66-3.52-6.95-2.14-8,4.8-14.71,8-25.51,10.24a1,1,0,0,1-1.15-1.39c3.59-8.72,0-15.07-3.53-16.61-2.8-1.22-5.47.23-7.15,3.88a39.77,39.77,0,0,1-5.87,8.32c-4.1,4.92-8.75,10.5-9.49,18.71a1.06,1.06,0,0,1-.42.74c-15.91,11.51-36.45,17.07-57.85,15.65-17.8-1.18-34.1-7.07-42.8-15.42L92.86,322.37A579.94,579.94,0,0,0,80.17,381Z"/><path class="cls-3" d="M161.76,165.29c-77,3.55-144.45,59.16-148.08,135.7C10,379.58,67.2,409.1,84,411.51c-4.72-50.7,47.49-108.79,75.78-116.46C109.41,237.71,161.76,165.29,161.76,165.29Z"/><path class="cls-1" d="M122,156.78c.79,17.27,14.59,44.67,53.05,50.65,7.44-6.9,4.76-29.45,4.11-43.34C178.63,152.78,122,156.78,122,156.78Z"/><path class="cls-2" d="M175,208.45h-.16c-41-6.38-53.22-36.55-53.91-51.61a1,1,0,0,1,.94-1.07c1.93-.13,47.38-3.25,56.48,4.85a4.86,4.86,0,0,1,1.78,3.43c.09,2,.22,4.09.36,6.33.87,14.06,1.94,31.55-4.8,37.81A1,1,0,0,1,175,208.45Zm-52-50.72c1.14,14.72,13.16,42.41,51.62,48.62,5.65-5.95,4.59-23.2,3.81-35.86-.14-2.24-.27-4.39-.36-6.36a2.87,2.87,0,0,0-1.11-2C169.27,155.23,129.9,157.31,123.07,157.73Z"/><path class="cls-2" d="M84,412.53h-.14c-8.72-1.25-27.5-9.47-43.48-27-13.76-15.11-29.74-42-27.72-84.56C14.4,264.37,31,230.3,59.53,205c27.6-24.51,63.89-39,102.18-40.74a1,1,0,1,1,.1,2C81.41,170,18.17,227.94,14.7,301c-2,41.82,13.7,68.27,27.2,83.09,14.87,16.33,32.1,24.38,41,26.15-2.26-30.4,15.13-59.17,25.81-73.74,15.17-20.68,34.73-37.31,49.28-42a86.6,86.6,0,0,1-19.23-38.62,1,1,0,0,1,2-.42,84.77,84.77,0,0,0,19.8,38.9,1,1,0,0,1,.21,1,1,1,0,0,1-.71.69c-14.27,3.88-34.25,20.64-49.71,41.72C99.68,352.29,82.21,381.2,85,411.42a1,1,0,0,1-1,1.11Z"/><path class="cls-1" d="M360.56,118c-10.91,7-16.48,30.15-9.89,38.15,8.85,10.73,32.4,8.38,41.6,3.18l6.19,8.07s9.13-17.51,1.08-29.82C389.7,122.56,370.72,111.51,360.56,118Z"/><path class="cls-2" d="M398.46,168.44a1,1,0,0,1-.81-.39L392,160.67c-10.07,5.11-33.2,7-42.1-3.84-2.78-3.37-3.73-9.38-2.61-16.49,1.3-8.3,5.74-18.68,12.73-23.17,11-7.08,30.43,4.66,40.38,19.89,8.28,12.66-.65,30.1-1,30.84a1,1,0,0,1-.81.54Zm-6.19-10.1a1,1,0,0,1,.81.4l5.16,6.73c1.91-4.4,6.75-17.66.45-27.3C389.45,124,371,112.53,361.11,118.89c-6.46,4.14-10.59,13.92-11.82,21.77-1,6.53-.23,12,2.17,14.87,8.36,10.13,31.46,7.94,40.31,2.95A1,1,0,0,1,392.27,158.34Z"/><path class="cls-2" d="M162.5,29.49a75.16,75.16,0,0,0,6.92,150.16c41.47-1.91,18.22-46.38,46.19-77.05C248.87,66.12,213.39,27.15,162.5,29.49Z"/><circle class="cls-1" cx="166.54" cy="123.4" r="61.69" transform="translate(-40.67 128.57) rotate(-37.97)"/><path class="cls-2" d="M166.47,186.11a62.71,62.71,0,0,1-2.82-125.35l0,1,0-1A62.71,62.71,0,1,1,169.43,186C168.44,186.09,167.45,186.11,166.47,186.11Zm.14-123.38c-1,0-1.91,0-2.87.07a60.37,60.37,0,1,0,2.87-.07Z"/><path class="cls-2" d="M168.86,57.36c-2.36,26.37-22.41,57.42-43.54,58.4.65,14.29-4.16,36.38-10.41,41.39-12.24-15-18.9-49.29-11.52-63.95s26.85-32.26,26.85-32.26L158,53.09Z"/><path class="cls-1" d="M122.47,101.87c-7.17.33-12.62,8.46-12.17,18.16s6.62,17.29,13.79,17,12.63-8.46,12.18-18.16S129.65,101.53,122.47,101.87Z"/><path class="cls-2" d="M163.89,103.66a1,1,0,0,1-.78-1.67c3.39-4.06,11.62-5.74,16.32-3.34a1,1,0,0,1,.44,1.37,1,1,0,0,1-1.37.45c-3.91-2-11-.55-13.83,2.82A1,1,0,0,1,163.89,103.66Z"/><path class="cls-2" d="M211.34,99.66a1,1,0,0,1-.76-.34,1,1,0,0,1,.08-1.44c2.27-2,7.78-5,12.38-1.43a1,1,0,0,1-1.24,1.62c-4.4-3.38-9.56,1.13-9.78,1.33A1.05,1.05,0,0,1,211.34,99.66Z"/><path class="cls-2" d="M179.8,123a3.8,3.8,0,1,1-4-3.62A3.8,3.8,0,0,1,179.8,123Z"/><path class="cls-2" d="M219.32,117.83c-1.3.06-2.29,1.61-2.2,3.46s1.21,3.3,2.51,3.24,2.28-1.61,2.2-3.46S220.62,117.77,219.32,117.83Z"/><path class="cls-2" d="M176.09,165.18c-12.69,0-23.35-3.72-31.72-11.09a1,1,0,0,1,1.35-1.53c8.63,7.6,19.86,11.13,33.39,10.51a1,1,0,0,1,.09,2C178.15,165.15,177.11,165.18,176.09,165.18Z"/><path class="cls-2" d="M126.24,289.5a1,1,0,0,1-.88-.51,1,1,0,0,1,.36-1.39l1.21-.7a1,1,0,0,1,1,1.78l-1.19.68A1.06,1.06,0,0,1,126.24,289.5Z"/><path class="cls-2" d="M64.36,383a1,1,0,0,1-1-1.05c.76-30.17,20.24-63.89,49.62-85.91a1,1,0,0,1,1.43.21,1,1,0,0,1-.2,1.42C85.28,319.34,66.12,352.45,65.38,382A1,1,0,0,1,64.36,383Z"/></svg>