<svg id="Layer_1" data-name="Layer 1" xmlns="http://www.w3.org/2000/svg" viewBox="0 0 500 500"><defs><style>.cls-1{fill:#f0e4d6;}.cls-2{fill:#333;}.cls-3{fill:#3567b1;}.cls-4{fill:#f15d3c;}</style></defs><title>whatLM</title><rect class="cls-1" x="-0.08" y="0.39" width="500" height="500"/><path class="cls-2" d="M155.34,148.88c12.16-12.15,5.71-40.21-24-40.21-27.31,0-42.23,25-43.52,36-16.8,4.2-20.49,12.47-21.76,18.61-1.87,9.08,4.36,23.41,1.65,33.62s-13.25,17.71-15.38,31.21c-2,12.83,9.52,13.09,6.52,23.29S35.63,284.16,35.63,309c0,32.11,20.73,51.81,52.64,51.81,56.37,0,66.73-77.51,66.73-77.51L127.13,184.9Z"/><path class="cls-3" d="M108.12,433.42c0-30.61,22.06-69.1,22.06-69.1l110.3-21.61,18.91,8.1c5.85,28.81,4.5,65.5-1.8,82.61Z"/><path class="cls-2" d="M257.59,434.67H108.12a1.25,1.25,0,0,1-1.24-1.25c0-30.59,22-69.33,22.22-69.72a1.26,1.26,0,0,1,.84-.6l110.3-21.61a1.3,1.3,0,0,1,.73.07l18.91,8.11a1.22,1.22,0,0,1,.73.89c5.65,27.82,4.82,65.18-1.85,83.29A1.25,1.25,0,0,1,257.59,434.67Zm-148.21-2.49H256.71c6.22-17.89,6.94-53.53,1.59-80.48l-18-7.7L131,365.43C128.49,369.93,109.92,404.31,109.38,432.18Z"/><path class="cls-4" d="M125.83,209.6c65.81-5.33,93.34-39.55,114.65-66.56,21.16,7.21,28.37,14,33.77,26.11C254,215.07,195,281.93,140.09,298.14,130.18,271.12,125.83,209.6,125.83,209.6Z"/><path class="cls-1" d="M152.08,200.54c3.61,7.93,8.65,21.26,11.54,27.75s-27.39,10.45-32.8,1.44-16.94-36-16.94-36Z"/><path class="cls-2" d="M146.31,236.25c-7,0-14-1.64-16.55-5.88-5.39-9-16.55-35.09-17-36.19a1.24,1.24,0,0,1,1.36-1.71l38.2,6.84a1.27,1.27,0,0,1,.92.71c2,4.41,4.39,10.34,6.7,16.07,1.83,4.53,3.55,8.81,4.83,11.69.43,1,1,3.42-3.07,5.53C158.29,235.07,152.28,236.25,146.31,236.25Zm-30.37-40.93c2.83,6.54,11.53,26.4,15.95,33.77,3.55,5.93,21.55,5.7,28.64,2,.9-.47,2.36-1.39,1.95-2.31-1.3-2.92-3-7.22-4.87-11.77-2.2-5.45-4.47-11.09-6.39-15.37Z"/><circle class="cls-1" cx="132.28" cy="176.73" r="40.97" transform="translate(-67.7 270.21) rotate(-78.24)"/><path class="cls-2" d="M132.28,218.94a42.21,42.21,0,1,1,42.22-42.21A42.26,42.26,0,0,1,132.28,218.94Zm0-81.93A39.73,39.73,0,1,0,172,176.73,39.77,39.77,0,0,0,132.28,137Z"/><path class="cls-2" d="M140.39,434.67a1.25,1.25,0,0,1-1.25-1.25c0-.4,0-9.93,2-17.2a1.24,1.24,0,0,1,1.2-.92c33.07,0,47.38-34.66,47.38-52.33a1.24,1.24,0,1,1,2.48,0c0,18.34-14.78,54.14-48.89,54.8a79.51,79.51,0,0,0-1.68,15.65A1.25,1.25,0,0,1,140.39,434.67Z"/><path class="cls-2" d="M148.72,388a1.15,1.15,0,0,1-.31,0,1.24,1.24,0,0,1-.9-1.51c2.86-11.35,6.38-23.1,7.17-25.23a1.24,1.24,0,1,1,2.33.86c-.75,2-4.3,13.89-7.09,25A1.25,1.25,0,0,1,148.72,388Z"/><path class="cls-2" d="M145.49,402.63l-.21,0a1.25,1.25,0,0,1-1-1.44c.15-.82.31-1.69.48-2.6a1.24,1.24,0,1,1,2.44.48c-.17.88-.33,1.73-.46,2.54A1.25,1.25,0,0,1,145.49,402.63Z"/><path class="cls-4" d="M148,219.5c-41.94,8-45.1,56.71-37.22,86.29,5.41,20.26,19.36,45.47,19.36,58.53,24.31-2.48,51.55,10.8,84.42,10.8,18.8,0,36.71-5.92,44.79-24.31C259.39,321.55,207.56,208.22,148,219.5Z"/><path class="cls-2" d="M214.6,376.36c-16.22,0-30.74-3.13-44.79-6.16s-27.28-5.89-39.5-4.65a1.24,1.24,0,0,1-1.37-1.23c0-7.34-4.67-18.92-9.61-31.19-3.64-9.07-7.42-18.44-9.71-27-4.86-18.25-6.09-46.66,6.49-66.65,7.18-11.43,17.85-18.55,31.7-21.18,15.94-3,32.4,2.38,48.92,16.07,36.92,30.58,63.9,94.71,63.9,116.46a1.24,1.24,0,0,1-.1.5C253.33,367.7,237.45,376.36,214.6,376.36Zm-78.16-13.59c10.73,0,22,2.44,33.9,5,13.91,3,28.31,6.11,44.26,6.11,15.13,0,34.93-4.06,43.55-23.33-.22-21.6-26.75-84.26-63-114.28-15.92-13.2-31.7-18.42-46.87-15.55L148,219.5l.23,1.22c-13.14,2.5-23.25,9.24-30.06,20.06-12.14,19.32-10.92,46.92-6.18,64.69,2.24,8.43,6,17.73,9.61,26.73,4.75,11.79,9.25,23,9.74,30.76C133.05,362.83,134.74,362.77,136.44,362.77Z"/><path class="cls-3" d="M369.9,226.4a24.81,24.81,0,0,0-21.14-12.77,7.2,7.2,0,0,1-5.79-3l-.13-.18A7.51,7.51,0,0,1,344.71,200l36-25.09a2.25,2.25,0,0,0,.56-3.13L355.48,134.7a7,7,0,0,0-12.73,3.9A23.17,23.17,0,1,1,327,116a7.08,7.08,0,0,0,6.33-.85,7,7,0,0,0,1.74-9.74L309.25,68.33a2.25,2.25,0,0,0-3.13-.56l-103.44,72a2.26,2.26,0,0,0-.56,3.14l72,103.44a2.25,2.25,0,0,0,3.13.56l36-25.09a7.49,7.49,0,0,1,10.43,1.86,7.4,7.4,0,0,1,1,6.63,24.83,24.83,0,1,0,45.18-3.95Z"/><path class="cls-2" d="M348.28,264.53a27.37,27.37,0,0,1-3.25-.19A26.07,26.07,0,0,1,323.54,230a6.16,6.16,0,0,0-.81-5.52,6.26,6.26,0,0,0-8.7-1.55L278,248a3.53,3.53,0,0,1-2.62.57,3.46,3.46,0,0,1-2.25-1.44l-72-103.44a3.48,3.48,0,0,1,.87-4.87l103.44-72a3.49,3.49,0,0,1,4.86.87l25.82,37.07a8.24,8.24,0,0,1-2,11.47,8.4,8.4,0,0,1-7.44,1A22,22,0,0,0,307.05,120a21.93,21.93,0,0,0-4.62,31.65,21.93,21.93,0,0,0,39.07-13,8.4,8.4,0,0,1,3.53-6.63A8.23,8.23,0,0,1,356.5,134l25.82,37.07a3.49,3.49,0,0,1-.87,4.86l-36,25.09a6.27,6.27,0,0,0-1.56,8.71l.13.18a5.92,5.92,0,0,0,4.79,2.49,26.07,26.07,0,0,1-.5,52.14Zm-30.69-45.26a8.73,8.73,0,0,1,8.3,11.49,23.59,23.59,0,0,0,19.44,31.11,23.59,23.59,0,1,0,3.4-47,8.49,8.49,0,0,1-6.78-3.55l-.13-.18A8.76,8.76,0,0,1,344,199l36-25.09a1,1,0,0,0,.26-1.4l-25.83-37.07A5.75,5.75,0,0,0,344,138.63a24.41,24.41,0,1,1-16.6-23.82,5.75,5.75,0,0,0,6.66-8.7L308.23,69a1,1,0,0,0-.65-.42,1.05,1.05,0,0,0-.75.17l-103.44,72a1,1,0,0,0-.42.65,1,1,0,0,0,.17.76l72,103.44a1,1,0,0,0,.65.41,1,1,0,0,0,.75-.16l36-25.09A8.68,8.68,0,0,1,317.59,219.27Z"/><path class="cls-1" d="M248.74,171.81c.58-7.24,6.37-14.76,6.51-24.32.08-5.5,10.13-5.21,12,4,4.92-6.08,15.62-10.59,21-6.95,8.11,5.51,1.45,31.28-11.87,44.45C260.75,189.91,248.74,171.81,248.74,171.81Z"/><path class="cls-2" d="M275.28,190.31c-15.57,0-27.09-17.07-27.58-17.81a1.22,1.22,0,0,1-.2-.79c.27-3.38,1.58-6.72,3-10.27,1.71-4.35,3.47-8.86,3.55-14a4.88,4.88,0,0,1,4.72-4.83c3.4-.31,7.32,1.81,9.11,6.43,5.75-5.66,15.63-9.23,21.12-5.5,2.24,1.52,3.61,4.39,4,8.29.92,9.95-4.81,27.32-15.67,38.06a1.21,1.21,0,0,1-.8.36ZM250,171.48c1.74,2.44,12.54,16.76,25.83,16.34,9.81-9.95,15.46-26.42,14.61-35.73-.21-2.19-.87-5.09-2.9-6.47-4.75-3.22-14.76,1.07-19.33,6.71a1.24,1.24,0,0,1-2.18-.54c-1.07-5.28-4.85-6.87-7.09-6.67a2.44,2.44,0,0,0-2.47,2.39c-.08,5.56-2,10.49-3.71,14.84A37.51,37.51,0,0,0,250,171.48Z"/><path class="cls-4" d="M148,219.5c43-7.55,68.53-18.75,95.14-49.62a7.73,7.73,0,0,1,7.53-2.57c13.22,3,27.32,15.95,33.28,24.82a7.85,7.85,0,0,1,1,6.77c-9.7,30.63-49.68,86.46-114.72,105.54C136.64,270.82,148,219.5,148,219.5Z"/><path class="cls-4" d="M458,343.44a24.78,24.78,0,0,0-22.56,10.05,7.21,7.21,0,0,1-5.78,3h-.23a7.49,7.49,0,0,1-7.5-7.49V305.11a2.25,2.25,0,0,0-2.25-2.25H374.37a6.88,6.88,0,0,0-6.88,6.88,7.06,7.06,0,0,0,2.82,5.72,23.18,23.18,0,1,1-27.33,0,6.91,6.91,0,0,0,2.8-5.59,7,7,0,0,0-7-7H293.61a2.25,2.25,0,0,0-2.25,2.25V431.17a2.25,2.25,0,0,0,2.25,2.25H419.66a2.25,2.25,0,0,0,2.25-2.25v-43.9a7.49,7.49,0,0,1,7.5-7.49,7.4,7.4,0,0,1,6,3A24.83,24.83,0,1,0,458,343.44Z"/><path class="cls-2" d="M419.66,434.67h-126a3.5,3.5,0,0,1-3.5-3.5v-126a3.5,3.5,0,0,1,3.5-3.5h45.18a8.25,8.25,0,0,1,8.23,8.24,8.15,8.15,0,0,1-3.3,6.59,22,22,0,0,0-9,17.72A21.92,21.92,0,0,0,358,356.05a21.92,21.92,0,0,0,11.53-39.58,8.34,8.34,0,0,1-3.32-6.73,8.13,8.13,0,0,1,8.12-8.12h45.29a3.5,3.5,0,0,1,3.5,3.5V349a6.26,6.26,0,0,0,6.25,6.25h.23a5.91,5.91,0,0,0,4.77-2.51,26.07,26.07,0,1,1,21,41.46,26.19,26.19,0,0,1-21.07-10.72,6.17,6.17,0,0,0-5-2.48,6.25,6.25,0,0,0-6.25,6.25v43.9A3.5,3.5,0,0,1,419.66,434.67Zm-126-130.56a1,1,0,0,0-1,1V431.17a1,1,0,0,0,1,1H419.66a1,1,0,0,0,1-1v-43.9a8.75,8.75,0,0,1,8.74-8.74,8.65,8.65,0,0,1,7,3.51A23.59,23.59,0,0,0,473,383.87a23.59,23.59,0,1,0-36.62-29.64,8.47,8.47,0,0,1-6.78,3.52h-.23a8.75,8.75,0,0,1-8.74-8.73v-43.9a1,1,0,0,0-1-1H374.37a5.64,5.64,0,0,0-5.64,5.63,5.85,5.85,0,0,0,2.31,4.72,24.41,24.41,0,1,1-28.79,0,5.67,5.67,0,0,0,2.29-4.58,5.76,5.76,0,0,0-5.75-5.75Z"/><path class="cls-2" d="M104.52,187.09c20.94-14.78,16.43-43.82,7.66-52.6-24.62,18-32.27,63.7-30.47,79.91s3.9,73.53,7.8,84.94c9.31-26.71,45.69-28.63,48.33-59.43C140.54,208.4,112,203.29,104.52,187.09Z"/><path class="cls-2" d="M245.2,349.44a1.22,1.22,0,0,1-1-.48,1.24,1.24,0,0,1,.22-1.74c6.32-4.88,9.78-10.44,10.82-13.72a1.24,1.24,0,1,1,2.37.76c-1.2,3.79-4.9,9.7-11.67,14.92A1.19,1.19,0,0,1,245.2,349.44Z"/><path class="cls-2" d="M211.15,359.89c-11.88,0-23.22-2.63-34.23-5.18-6.61-1.52-12.85-3-19.13-3.86a1.24,1.24,0,1,1,.35-2.46c6.39.9,12.68,2.36,19.34,3.9,12.47,2.89,25.36,5.87,38.83,4.93A55.47,55.47,0,0,0,236,352.35,1.24,1.24,0,0,1,237,354.6a57.69,57.69,0,0,1-20.55,5.1C214.69,359.83,212.92,359.89,211.15,359.89Z"/><path class="cls-2" d="M144.81,350a1.25,1.25,0,0,1,0-2.49c.64,0,1.29,0,1.93,0a1.25,1.25,0,1,1,0,2.49l-1.86,0Z"/><path class="cls-2" d="M207.23,282.78a33.9,33.9,0,0,0,.45,5.46A189.1,189.1,0,0,0,253,251a33.93,33.93,0,0,0-45.76,31.79Z"/><path class="cls-1" d="M108.14,173.87a12.77,12.77,0,1,0,12.77,12.77A12.77,12.77,0,0,0,108.14,173.87Z"/><path class="cls-2" d="M215.5,225.32a1.24,1.24,0,0,1-.84-.32l-12.15-11a1.24,1.24,0,1,1,1.67-1.84l9.84,8.93-1.11-14.67a1.25,1.25,0,0,1,.68-1.21,1.27,1.27,0,0,1,1.38.18l11.25,9.91a1.24,1.24,0,0,1-1.64,1.86l-9-7.88L216.74,224a1.24,1.24,0,0,1-1.24,1.34Z"/><path class="cls-2" d="M275.9,220.44a1.38,1.38,0,0,1-.56-.12,1.26,1.26,0,0,1-.56-1.67c.94-1.89.9-4.2-.11-6.87-4.24-11.09-22.85-23.83-25.87-25a1.24,1.24,0,0,1,.92-2.31c4.2,1.68,22.89,15,27.27,26.47,1.27,3.34,1.28,6.32,0,8.85A1.24,1.24,0,0,1,275.9,220.44Z"/><path class="cls-2" d="M140.31,170l-.17,0a1.24,1.24,0,0,1-1.06-1.4,7.87,7.87,0,0,1,5-6.48,4.66,4.66,0,0,1,5,1,1.24,1.24,0,0,1,0,1.76,1.26,1.26,0,0,1-1.76,0,2.29,2.29,0,0,0-2.42-.46,5.47,5.47,0,0,0-3.35,4.48A1.24,1.24,0,0,1,140.31,170Z"/><path class="cls-2" d="M130.41,160.72h-.18a1.24,1.24,0,0,1-1-1.41,10.18,10.18,0,0,1,5.33-7.27,6.24,6.24,0,0,1,5.68-.42,1.24,1.24,0,1,1-1.11,2.22,3.87,3.87,0,0,0-3.42.4,7.64,7.64,0,0,0-4,5.42A1.25,1.25,0,0,1,130.41,160.72Z"/><path class="cls-2" d="M163.81,158.92a1.24,1.24,0,0,1-1.24-1.22,4.05,4.05,0,0,1,2.46-4,3.1,3.1,0,0,1,3.55,1.51,1.24,1.24,0,1,1-2.05,1.4c-.07-.1-.45-.63-.73-.54a1.68,1.68,0,0,0-.75,1.6,1.24,1.24,0,0,1-1.21,1.28Z"/><path class="cls-2" d="M147.63,197.35c-4.51,0-8.9-.95-11.67-2.59a1.24,1.24,0,0,1,1.27-2.14c5.53,3.28,19.21,3.34,23.47-2.37a1.24,1.24,0,1,1,2,1.48C159.74,195.69,153.58,197.35,147.63,197.35Z"/><path class="cls-2" d="M170.25,305.68a1.24,1.24,0,0,1-.35-2.43l1.21-.36a1.24,1.24,0,0,1,.72,2.38l-1.23.36A1.06,1.06,0,0,1,170.25,305.68Z"/><path class="cls-2" d="M180.51,302.3a1.24,1.24,0,0,1-.42-2.41c59-21.63,94.92-73.66,103.7-101.37a6.59,6.59,0,0,0-.83-5.7c-5.56-8.28-19.33-21.29-32.53-24.29a6.43,6.43,0,0,0-6.31,2.16c-28.36,32.9-55.57,43-95.86,50a1.25,1.25,0,0,1-1.44-1,1.23,1.23,0,0,1,1-1.44c45.8-8,69.62-20.45,94.41-49.21a8.93,8.93,0,0,1,8.75-3c13.86,3.16,28.25,16.71,34,25.34a9.06,9.06,0,0,1,1.13,7.83c-8.92,28.16-45.36,81-105.22,103A1.06,1.06,0,0,1,180.51,302.3Z"/><path class="cls-2" d="M486.18,434.67H13.66a1.25,1.25,0,0,1,0-2.49H486.18a1.25,1.25,0,0,1,0,2.49Z"/><path class="cls-1" d="M54.25,290.06a1.21,1.21,0,0,1-.61-.16,1.24,1.24,0,0,1-.46-1.7c.31-.54.62-1,.92-1.45a1.24,1.24,0,1,1,2,1.45c-.25.35-.51.77-.79,1.24A1.23,1.23,0,0,1,54.25,290.06Z"/><path class="cls-1" d="M86.84,348.27c-12.74,0-25.51-4.15-32.35-14.52-9-13.57-7.06-28.16-5.14-35.65a1.24,1.24,0,0,1,1.51-.89,1.25,1.25,0,0,1,.9,1.51c-1.82,7.09-3.61,20.89,4.8,33.66,8.78,13.31,28.36,15.51,43.88,11.79a1.24,1.24,0,1,1,.58,2.42A61.36,61.36,0,0,1,86.84,348.27Z"/><path class="cls-1" d="M110.41,343.26a1.25,1.25,0,0,1-.54-2.37c.49-.23,1-.48,1.43-.73a1.25,1.25,0,1,1,1.19,2.19c-.49.27-1,.53-1.54.78A1.16,1.16,0,0,1,110.41,343.26Z"/><path class="cls-1" d="M101.64,135.46a1.3,1.3,0,0,1-.77-.26,1.25,1.25,0,0,1-.21-1.75c.22-.29.45-.57.67-.85a1.24,1.24,0,0,1,1.94,1.56l-.65.82A1.23,1.23,0,0,1,101.64,135.46Z"/><path class="cls-1" d="M152.31,134.22l-.22,0a1.24,1.24,0,0,1-1-1.45c.61-3.37-2.8-8-8.11-10.94-3.91-2.19-17.89-8.22-33.64,5.91a1.25,1.25,0,0,1-1.67-1.86c17-15.23,32.25-8.62,36.53-6.22,6.3,3.52,10.14,9.1,9.33,13.56A1.24,1.24,0,0,1,152.31,134.22Z"/><path class="cls-1" d="M113.76,255.45a1.24,1.24,0,0,1-.7-2.26c.55-.38,1.07-.77,1.57-1.17a1.25,1.25,0,0,1,1.55,1.95c-.55.44-1.12.86-1.72,1.27A1.25,1.25,0,0,1,113.76,255.45Z"/><path class="cls-1" d="M122.22,245.85a1.2,1.2,0,0,1-.55-.13,1.25,1.25,0,0,1-.57-1.66c4.81-9.85,1.67-22.85-7.16-29.58a1.25,1.25,0,0,1,1.51-2c9.74,7.43,13.2,21.77,7.89,32.65A1.26,1.26,0,0,1,122.22,245.85Z"/><path class="cls-2" d="M88.24,374.51c-18.44,0-40.61-5.77-51.7-23.58a1.25,1.25,0,0,1,2.12-1.32c13.93,22.39,46.53,24.78,65.05,20.92a1.24,1.24,0,0,1,.51,2.43A79.23,79.23,0,0,1,88.24,374.51Z"/><path class="cls-2" d="M115.22,369.19a1.24,1.24,0,0,1-.59-2.34c.34-.18.67-.36,1-.55a1.24,1.24,0,0,1,1.28,2.13c-.34.21-.71.42-1.09.62A1.18,1.18,0,0,1,115.22,369.19Z"/><path class="cls-2" d="M172.4,133.72a1.25,1.25,0,0,1-1.24-1.18c-.56-10.08-6.4-22.46-21.08-27a1.24,1.24,0,0,1,.73-2.37c15.9,4.89,22.22,18.3,22.84,29.21a1.26,1.26,0,0,1-1.18,1.32Z"/><path class="cls-2" d="M171,144.48a1.31,1.31,0,0,1-.43-.08,1.26,1.26,0,0,1-.74-1.6c.19-.51.36-1,.51-1.58a1.25,1.25,0,1,1,2.4.67q-.25.92-.57,1.77A1.26,1.26,0,0,1,171,144.48Z"/><path class="cls-2" d="M289.4,186.75a1.23,1.23,0,0,1-.64-.17,1.25,1.25,0,0,1-.43-1.71c3.26-5.42,7.28-13.67,7.92-19.09a1.24,1.24,0,1,1,2.47.29c-.69,5.8-4.71,14.18-8.25,20.08A1.25,1.25,0,0,1,289.4,186.75Z"/><path class="cls-2" d="M218.29,116.51a1.24,1.24,0,0,1-.71-2.27l27.29-18.66a1.24,1.24,0,0,1,1.4,2L219,116.3A1.3,1.3,0,0,1,218.29,116.51Z"/><path class="cls-2" d="M210.13,122.09a1.24,1.24,0,0,1-.7-2.27l.75-.51a1.24,1.24,0,1,1,1.41,2l-.76.52A1.27,1.27,0,0,1,210.13,122.09Z"/><path class="cls-2" d="M357.76,276.41a1.24,1.24,0,0,1-.3-2.45l1.8-.48a1.25,1.25,0,1,1,.7,2.39l-1.89.51A1.63,1.63,0,0,1,357.76,276.41Z"/><path class="cls-2" d="M346.3,277.9A36,36,0,0,1,317.24,264c-6.47-8.28-9-19-6.49-27.39a1.24,1.24,0,0,1,2.38.72c-2.29,7.61.09,17.48,6.07,25.14,4,5.16,13.15,13.69,29.13,12.91a1.25,1.25,0,0,1,.12,2.49C347.72,277.88,347,277.9,346.3,277.9Z"/><path class="cls-2" d="M192.57,308.25a1.25,1.25,0,0,1-.5-2.39c29.26-12.9,55.27-31.06,69.59-48.56a1.24,1.24,0,1,1,1.92,1.58c-14.55,17.79-40.91,36.2-70.5,49.26A1.34,1.34,0,0,1,192.57,308.25Z"/><path class="cls-2" d="M164.77,286.15c-14,0-27.16-5.7-34.53-15.28a1.24,1.24,0,0,1,2-1.52c7.82,10.17,22.68,15.67,37.85,14a1.25,1.25,0,0,1,1.37,1.11,1.24,1.24,0,0,1-1.11,1.36A49.27,49.27,0,0,1,164.77,286.15Z"/></svg>