<svg id="Layer_1" data-name="Layer 1" xmlns="http://www.w3.org/2000/svg" viewBox="0 0 500 500"><defs><style>.cls-1{fill:#f0e4d6;}.cls-2{fill:#3567b1;}.cls-3{fill:#333;}.cls-4{fill:#f15d3c;}</style></defs><title>whereLM</title><rect class="cls-1" x="0.1" y="0.09" width="500" height="500"/><path class="cls-2" d="M231.48,198.59c-36.69,2.73-79.45,58.68-86.73,73.23s23.66,55.5,23.66,55.5Z"/><path class="cls-2" d="M144.05,341a2.88,2.88,0,0,1-.41,0c-14.09-.83-23.63-7.78-30-17.77-17-26.5-11.65-74.36-10.15-85.42a6.39,6.39,0,0,1,2.18-4c15.68-13.36,33.31-8.66,39.75-6.25a6.2,6.2,0,0,1,3.55,3.41C156,247.24,195.27,343.5,144.05,341Z"/><path class="cls-3" d="M146,342.15c-.78,0-1.58,0-2.4-.07-15.18-.9-26.56-8.81-33.85-23.53a1.12,1.12,0,0,1,2-1c6.91,13.95,17.66,21.45,32,22.29,9.16.54,15.89-2.15,20-8,16.19-23.08-10.3-87.74-15.78-100.47a5.12,5.12,0,0,0-2.92-2.8c-6.58-2.47-23.51-6.84-38.64,6a5.2,5.2,0,0,0-1.79,3.28c-.43,3.1-1.2,9.49-1.64,17.58a1.12,1.12,0,1,1-2.23-.12c.45-8.17,1.23-14.63,1.66-17.76a7.45,7.45,0,0,1,2.56-4.68c16-13.65,33.92-9.05,40.87-6.44a7.45,7.45,0,0,1,4.18,4c5.56,12.92,32.42,78.58,15.55,102.63C161.33,339.12,154.76,342.15,146,342.15Z"/><path class="cls-2" d="M239,198.59c28.11-1.82,85.88,29.57,92.25,78.24s-40.49,53.22-40.49,53.22Z"/><path class="cls-1" d="M140.07,229.69c-.56-4.68,4.28-11.46,1.87-18.35a31.64,31.64,0,0,1-1.76-12.11c0-2.75-4.54-3.8-6.51-.5-1.54,2.57-4.63,6.49-3.46,12.14-3.45,4.23,2.18,20.16,2.18,20.16Z"/><path class="cls-3" d="M132.39,232.14a1.12,1.12,0,0,1-1.06-.74c-.57-1.64-5.41-15.75-2.3-20.79-.89-5.19,1.51-9,3.11-11.53.2-.32.4-.63.57-.92a5.08,5.08,0,0,1,5.72-2.43,3.67,3.67,0,0,1,2.87,3.5A30.75,30.75,0,0,0,143,211c1.57,4.48.34,8.79-.75,12.58-.65,2.25-1.26,4.37-1.06,6a1.11,1.11,0,0,1-.92,1.23l-7.68,1.34Zm4.74-34.35a2.89,2.89,0,0,0-2.51,1.51c-.18.31-.38.63-.6,1-1.54,2.45-3.66,5.82-2.71,10.37a1.15,1.15,0,0,1-.23.93c-2.12,2.6,0,12.17,2,18.2l5.78-1a23.52,23.52,0,0,1,1.18-5.81c1-3.48,2.13-7.42.79-11.24a33,33,0,0,1-1.81-12.48c0-.94-.95-1.27-1.24-1.35A2.58,2.58,0,0,0,137.13,197.79Z"/><path class="cls-1" d="M136,230l-4-19.21c-4.56-7.24-9.35-12.36-15.59-18-3.07-2.8-8.69,1.17-5.85,6.51a24.69,24.69,0,0,0-8.52,19.38c0,10.19,8,10.36,12,18.38C117.16,243.07,136,230,136,230Z"/><path class="cls-3" d="M117.28,239.71a6.06,6.06,0,0,1-1.71-.22,3.92,3.92,0,0,1-2.45-2,21.09,21.09,0,0,0-5.7-6.66c-3.17-2.75-6.44-5.6-6.44-12.22A25.91,25.91,0,0,1,109.26,199a6,6,0,0,1,1.65-7.15,4.83,4.83,0,0,1,6.3.08,93.66,93.66,0,0,1,11.39,12,1.12,1.12,0,0,1-1.76,1.37,92.08,92.08,0,0,0-11.13-11.72,2.62,2.62,0,0,0-3.43,0c-1.17.91-2,2.73-.68,5.14a1.1,1.1,0,0,1-.25,1.35,23.51,23.51,0,0,0-8.14,18.55c0,5.6,2.5,7.78,5.67,10.53a23.43,23.43,0,0,1,6.24,7.35,1.64,1.64,0,0,0,1.08.86c2.37.7,7.68-1.26,14.56-5.36a1.12,1.12,0,0,1,1.15,1.92C125.43,237.77,120.53,239.71,117.28,239.71Z"/><path class="cls-3" d="M143.64,358.71A451.8,451.8,0,0,0,127,430.12H334s-1.82-23.78-17.28-63.68C316.7,366.44,181.4,322.51,143.64,358.71Z"/><path class="cls-3" d="M162.17,318c-2.56,10.93-8.11,19.34-18.12,23a2.88,2.88,0,0,1-.41,0c-14.09-.83-23.63-7.78-30-17.77a39.66,39.66,0,0,1,17-9.81C142.61,309.92,154.51,312,162.17,318Z"/><path class="cls-1" d="M311.22,399a1.1,1.1,0,0,1-1.07-.82c-3.94-14.68-8.56-28.19-8.61-28.33a1.11,1.11,0,0,1,2.11-.72c.05.14,4.7,13.72,8.65,28.47a1.11,1.11,0,0,1-.79,1.37A1.36,1.36,0,0,1,311.22,399Z"/><path class="cls-1" d="M310.37,417.36c-34.51,0-52.28-13.19-61.18-24.56a53.64,53.64,0,0,1-11.29-26.62,1.11,1.11,0,0,1,2.22-.17,52.5,52.5,0,0,0,10.9,25.5C264,408,286.23,416.1,315.41,415a1.15,1.15,0,0,1,1.16,1.08,1.12,1.12,0,0,1-1.08,1.15C313.75,417.33,312,417.36,310.37,417.36Z"/><path class="cls-1" d="M470.34,108.62a20,20,0,0,1-20,20H305.46a20,20,0,0,1,0-40.07H450.31A20,20,0,0,1,470.34,108.62Z"/><path class="cls-4" d="M470.34,108.62a20,20,0,0,1-20,20H420.64V88.58h29.67A20,20,0,0,1,470.34,108.62Z"/><path class="cls-3" d="M450.31,129.77H305.46a21.15,21.15,0,1,1,0-42.3H450.31a21.15,21.15,0,0,1,0,42.3ZM305.46,89.7a18.92,18.92,0,1,0,0,37.84H450.31a18.92,18.92,0,1,0,0-37.84Z"/><path class="cls-3" d="M486.48,101.31a1.12,1.12,0,0,1-1.11-1.12c0-12.72-10-23.07-22.19-23.07H399.49a1.12,1.12,0,1,1,0-2.23h63.69c13.46,0,24.42,11.35,24.42,25.3A1.12,1.12,0,0,1,486.48,101.31Z"/><path class="cls-3" d="M380.89,77.12H377a1.12,1.12,0,0,1,0-2.23h3.92a1.12,1.12,0,1,1,0,2.23Z"/><path class="cls-3" d="M277.26,85.21a1.12,1.12,0,0,1-.84-1.84,24.08,24.08,0,0,1,18.24-8.48h67.45a1.12,1.12,0,1,1,0,2.23H294.66a21.84,21.84,0,0,0-16.55,7.7A1.1,1.1,0,0,1,277.26,85.21Z"/><path class="cls-2" d="M224.77,204.5s-55.66,9.65-85.67,156a4.55,4.55,0,0,0,6,5.19c11.09-3.95,32.44-9.9,51.46-5.59,25.75,5.82,72.74,22.46,121.18,18.92a6.45,6.45,0,0,0,5.77-8.25c-6.82-23-30.79-95.35-80.95-168.38Z"/><path class="cls-3" d="M188.47,234.6a1.13,1.13,0,0,1-.67-.23,1.11,1.11,0,0,1-.21-1.56c1.25-1.66,2.54-3.27,3.81-4.8a1.12,1.12,0,0,1,1.72,1.42c-1.26,1.51-2.52,3.1-3.76,4.73A1.11,1.11,0,0,1,188.47,234.6Z"/><path class="cls-3" d="M306.57,323.89a1.14,1.14,0,0,1-1-.7,646.34,646.34,0,0,0-35.15-73.75,1.11,1.11,0,0,1,1.94-1.08,649.1,649.1,0,0,1,35.28,74,1.11,1.11,0,0,1-.62,1.45A1.15,1.15,0,0,1,306.57,323.89Z"/><path class="cls-3" d="M139.1,361.62a.82.82,0,0,1-.22,0,1.12,1.12,0,0,1-.87-1.32c9.26-45.16,21.9-81.91,37.58-109.23a1.12,1.12,0,0,1,1.94,1.12C162,279.28,149.4,315.8,140.19,360.73A1.1,1.1,0,0,1,139.1,361.62Z"/><path class="cls-3" d="M96.54,431.24H77.43a1.12,1.12,0,0,1,0-2.23H96.54a1.12,1.12,0,0,1,0,2.23Z"/><path class="cls-1" d="M349.45,208.6s10-27.63,11.15-37.36,8.18-27.33,6.59-30.13-13.65,4.55-16.38,20.7c0,0-21.58-3.39-26.15,16.87-3,13.12,2.5,15,2.5,15l-7.73,13.14Z"/><path class="cls-3" d="M349.45,209.71h-.07l-30-1.82a1.13,1.13,0,0,1-.92-.59,1.11,1.11,0,0,1,0-1.09l7.18-12.2c-1.69-1.39-4.39-5.31-2.08-15.57,4.14-18.36,21.76-18.21,26.33-17.84,2.62-13.3,11.32-20.41,15.32-21.11a2.57,2.57,0,0,1,2.94,1.07c1,1.85-.18,6.41-2.65,15-1.55,5.39-3.3,11.5-3.81,15.82-1.14,9.74-10.79,36.47-11.2,37.61A1.11,1.11,0,0,1,349.45,209.71Zm-28.14-3.94,27.37,1.66c1.63-4.56,9.8-27.74,10.81-36.32.52-4.5,2.31-10.7,3.88-16.17,1.46-5.11,3.47-12.1,2.85-13.28a2.91,2.91,0,0,0-1.78.41c-4,1.78-10.61,8.56-12.53,19.93a1.11,1.11,0,0,1-1.27.91c-.84-.13-20.61-3-24.89,16-2.66,11.8,1.72,13.64,1.77,13.66a1.13,1.13,0,0,1,.69.66,1.15,1.15,0,0,1-.09,1Z"/><path class="cls-3" d="M353.09,431.24H116.32a1.12,1.12,0,0,1,0-2.23H353.09a1.12,1.12,0,0,1,0,2.23Z"/><path class="cls-2" d="M348.83,319.29c-7,12.49-17.57,19.67-33.27,16.21-11.75-2.58-18.71-9.56-22.34-19.07C280.48,283.14,308.53,219,314.5,204.85a4.77,4.77,0,0,1,3.76-2.85c6.69-.85,24.55-2.47,39.14,2.32a4.75,4.75,0,0,1,3.25,4.12C361.85,222.44,366.55,287.78,348.83,319.29Z"/><path class="cls-3" d="M323.23,337.5a37.13,37.13,0,0,1-7.91-.9c-9.89-2.18-17.11-7.57-21.47-16-10.81-21-4.4-59.6,19.07-114.83l.56-1.33a5.84,5.84,0,0,1,4.64-3.52c7-.9,24.89-2.47,39.63,2.37a5.86,5.86,0,0,1,4,5.08,1.1,1.1,0,0,1-1,1.2,1.12,1.12,0,0,1-1.21-1,3.62,3.62,0,0,0-2.49-3.15c-14.3-4.7-31.79-3.16-38.65-2.28a3.63,3.63,0,0,0-2.87,2.18l-.56,1.33c-28.89,68-26.35,98.95-19.14,112.94,4,7.83,10.76,12.83,20,14.86,19.24,4.24,32.56-7.75,39.6-35.64a1.11,1.11,0,1,1,2.16.55C351.16,324.7,339.63,337.5,323.23,337.5Z"/><path class="cls-1" d="M446.76,114.44a8,8,0,1,1,8-8A8,8,0,0,1,446.76,114.44Zm0-13.83a5.8,5.8,0,1,0,5.8,5.8A5.8,5.8,0,0,0,446.76,100.61Z"/><path class="cls-1" d="M434.48,118.86a1.09,1.09,0,0,1-.8-.35,1.11,1.11,0,0,1,0-1.57l7.08-6.78a1.12,1.12,0,0,1,1.55,1.62l-7.09,6.77A1.12,1.12,0,0,1,434.48,118.86Z"/><path class="cls-3" d="M135.59,257.33l-5.49.5a3.39,3.39,0,0,1-3.68-3.07l-5.7-62.91a1.2,1.2,0,0,1,1.08-1.3l9.87-.89a1.18,1.18,0,0,1,1.29,1.08l5.7,62.91A3.38,3.38,0,0,1,135.59,257.33Z"/><rect class="cls-3" x="122.84" y="180.83" width="6.84" height="9.3" transform="translate(-16.21 12.14) rotate(-5.17)"/><path class="cls-3" d="M123.91,188c-17.57,0-33.2-21.33-36.12-50-1.4-13.73.41-27,5.09-37.46,5.11-11.38,13.06-18.17,22.4-19.12s18.49,4.1,25.79,14.21c6.69,9.27,11.14,21.93,12.54,35.66s-.41,27-5.09,37.46c-5.11,11.38-13.06,18.17-22.4,19.12C125.38,187.91,124.65,188,123.91,188Zm-6.44-96.26a10.87,10.87,0,0,0-1.14,0c-5.48.56-10.44,5.19-14,13-3.94,8.79-5.45,20.2-4.23,32.14,2.29,22.5,13.93,40.63,25.76,40.63a11.45,11.45,0,0,0,1.17,0c5.48-.56,10.44-5.19,14-13,3.94-8.79,5.45-20.2,4.23-32.14s-5-22.82-10.63-30.63C128,95.19,122.61,91.69,117.47,91.69Z"/><path class="cls-3" d="M148.25,77.11a1.09,1.09,0,0,1-.91-.47,72.63,72.63,0,0,0-4.54-5.86,1.12,1.12,0,0,1,1.69-1.46,74.82,74.82,0,0,1,4.68,6,1.12,1.12,0,0,1-.28,1.55A1.1,1.1,0,0,1,148.25,77.11Z"/><path class="cls-3" d="M160.29,185.7a1.25,1.25,0,0,1-.42-.08,1.12,1.12,0,0,1-.62-1.45c6.1-15.29,8.36-34.51,6.36-54.13a130.93,130.93,0,0,0-6.47-29.68,1.12,1.12,0,0,1,2.11-.74,133.38,133.38,0,0,1,6.58,30.19c2,20-.28,39.57-6.51,55.19A1.11,1.11,0,0,1,160.29,185.7Z"/><path class="cls-3" d="M108.23,110.57a1.14,1.14,0,0,1-.65-.21,1.12,1.12,0,0,1-.25-1.56,17.81,17.81,0,0,1,4-4.12,1.11,1.11,0,0,1,1.3,1.81,15.77,15.77,0,0,0-3.53,3.61A1.11,1.11,0,0,1,108.23,110.57Z"/><path class="cls-3" d="M113.92,163.21a1.08,1.08,0,0,1-.73-.28c-6.13-5.37-10.46-15.23-11.6-26.37a52.88,52.88,0,0,1,.11-12,1.13,1.13,0,0,1,1.25-1,1.11,1.11,0,0,1,1,1.25,50.71,50.71,0,0,0-.1,11.5c1.08,10.6,5.13,19.92,10.85,24.93a1.11,1.11,0,0,1-.74,2Z"/><path class="cls-3" d="M122.8,167a10.69,10.69,0,0,1-1.13-.06,1.11,1.11,0,0,1,.21-2.22,9.84,9.84,0,0,0,1.88,0c4.4-.45,8.27-3.92,10.9-9.78,2.72-6.06,3.76-13.88,2.93-22a1.12,1.12,0,1,1,2.22-.22c.87,8.52-.24,16.74-3.12,23.15-3,6.62-7.48,10.55-12.7,11.09A11.85,11.85,0,0,1,122.8,167Z"/><path class="cls-4" d="M44.35,142.43c-10-27.08-3.55-20.6-30.64-30.63,27.09-10,20.6-3.55,30.64-30.63,10,27.08,3.54,20.6,30.63,30.63C47.9,121.83,54.38,115.35,44.35,142.43Z"/><path class="cls-3" d="M44.35,143.54a1.12,1.12,0,0,1-1.05-.72c-1.54-4.15-2.7-7.54-3.63-10.27-4.1-12-4.1-12-16.08-16.08-2.72-.93-6.11-2.09-10.26-3.63a1.1,1.1,0,0,1-.73-1,1.12,1.12,0,0,1,.73-1c4.15-1.53,7.54-2.69,10.26-3.63,12-4.09,12-4.09,16.08-16.07.93-2.73,2.09-6.12,3.63-10.27a1.11,1.11,0,0,1,2.09,0c1.54,4.15,2.7,7.54,3.63,10.27,4.1,12,4.1,12,16.08,16.07,2.72.94,6.11,2.1,10.26,3.63a1.12,1.12,0,0,1,.73,1,1.1,1.1,0,0,1-.73,1c-4.15,1.54-7.54,2.7-10.26,3.63-12,4.1-12,4.1-16.08,16.08-.93,2.73-2.09,6.12-3.63,10.27A1.12,1.12,0,0,1,44.35,143.54ZM17,111.8c2.85,1,5.29,1.86,7.34,2.56,12.78,4.37,13.1,4.7,17.47,17.47.7,2.06,1.54,4.49,2.57,7.35,1-2.86,1.86-5.29,2.56-7.35,4.37-12.77,4.69-13.1,17.47-17.47,2.05-.7,4.49-1.53,7.35-2.56-2.86-1-5.3-1.86-7.35-2.57-12.78-4.36-13.1-4.69-17.47-17.46-.7-2.06-1.54-4.5-2.56-7.35-1,2.85-1.87,5.29-2.57,7.35-4.37,12.77-4.69,13.1-17.46,17.46C22.26,109.94,19.82,110.77,17,111.8Z"/><path class="cls-2" d="M435.89,248.58c-10-27.08-3.55-20.6-30.64-30.63,27.09-10,20.6-3.55,30.64-30.63,10,27.08,3.55,20.6,30.63,30.63C439.44,228,445.92,221.5,435.89,248.58Z"/><path class="cls-3" d="M435.89,249.7a1.11,1.11,0,0,1-1.05-.73c-1.54-4.15-2.7-7.54-3.63-10.26-4.1-12-4.1-12-16.08-16.08-2.72-.93-6.11-2.09-10.26-3.63a1.11,1.11,0,0,1,0-2.09c4.15-1.54,7.54-2.7,10.27-3.63,12-4.1,12-4.1,16.07-16.08.93-2.72,2.09-6.11,3.63-10.26a1.11,1.11,0,0,1,2.09,0c1.54,4.15,2.7,7.54,3.63,10.26,4.1,12,4.1,12,16.08,16.08,2.72.93,6.11,2.09,10.26,3.63a1.11,1.11,0,0,1,0,2.09c-4.15,1.54-7.54,2.7-10.26,3.63-12,4.1-12,4.1-16.08,16.08-.93,2.72-2.09,6.11-3.63,10.26A1.11,1.11,0,0,1,435.89,249.7ZM408.51,218c2.85,1,5.29,1.86,7.35,2.57,12.77,4.37,13.09,4.69,17.46,17.46.7,2.06,1.54,4.5,2.57,7.35,1-2.85,1.86-5.29,2.56-7.35,4.37-12.77,4.69-13.09,17.47-17.46,2.05-.71,4.49-1.54,7.35-2.57-2.86-1-5.3-1.86-7.35-2.56-12.78-4.37-13.1-4.7-17.47-17.47-.7-2-1.54-4.49-2.56-7.35-1,2.86-1.87,5.3-2.57,7.35-4.37,12.78-4.69,13.1-17.46,17.47C413.8,216.09,411.36,216.93,408.51,218Z"/><path class="cls-1" d="M70.25,202.33c-6.69-18.07-2.37-13.75-20.44-20.44,18.07-6.69,13.75-2.37,20.44-20.44,6.69,18.07,2.37,13.75,20.44,20.44C72.62,188.58,76.94,184.26,70.25,202.33Z"/><path class="cls-3" d="M70.25,203.44a1.11,1.11,0,0,1-1-.73c-1-2.77-1.8-5-2.42-6.85C64.1,188,64.1,188,56.28,185.36c-1.82-.62-4.08-1.4-6.86-2.43a1.11,1.11,0,0,1-.72-1,1.13,1.13,0,0,1,.72-1c2.78-1,5-1.8,6.86-2.42,7.82-2.68,7.82-2.68,10.5-10.5.62-1.82,1.4-4.08,2.42-6.86a1.12,1.12,0,0,1,2.09,0c1,2.78,1.81,5,2.43,6.86,2.67,7.82,2.67,7.82,10.49,10.5,1.82.62,4.09,1.4,6.86,2.42a1.12,1.12,0,0,1,.73,1,1.1,1.1,0,0,1-.73,1c-2.77,1-5,1.81-6.86,2.43-7.82,2.67-7.82,2.67-10.49,10.5-.62,1.82-1.4,4.08-2.43,6.85A1.11,1.11,0,0,1,70.25,203.44ZM53.08,181.89c1.49.53,2.79,1,3.92,1.36,8.69,3,8.92,3.19,11.89,11.88.38,1.13.83,2.44,1.36,3.93.53-1.49,1-2.8,1.36-3.93,3-8.69,3.19-8.91,11.88-11.88,1.13-.39,2.44-.83,3.92-1.36-1.48-.53-2.79-1-3.92-1.36-8.69-3-8.91-3.19-11.88-11.89-.39-1.13-.83-2.43-1.36-3.92-.53,1.49-1,2.79-1.36,3.92-3,8.7-3.2,8.92-11.89,11.89C55.87,180.92,54.57,181.36,53.08,181.89Z"/><path class="cls-1" d="M221.72,189.26s-4.41,27.75-3.28,31.16,26.84-9.55,32.76-15.58l2-21Z"/><path class="cls-3" d="M219.59,222.09a3.13,3.13,0,0,1-.73-.08,1.88,1.88,0,0,1-1.47-1.23c-1.17-3.5,2.49-27,3.23-31.69a1.13,1.13,0,0,1,.91-.93l31.52-5.45a1.1,1.1,0,0,1,.95.28,1.07,1.07,0,0,1,.35.92l-2,21a1.14,1.14,0,0,1-.32.67C246.65,211.07,225.62,222.09,219.59,222.09Zm-.09-2h0Zm-.05-.2c3.17.76,24.42-9.5,30.68-15.54L252,185.15l-29.29,5.08C221.06,200.64,218.87,217,219.45,219.87Z"/><path class="cls-3" d="M242,97.59a48.14,48.14,0,0,1,41.57,53.92c-3.25,25.2-18.06,36.5-33.08,40.29a49.13,49.13,0,0,1-20.83,1.28c-26.37-3.41-26.46-31.06-30-57.42-1-7.25-7.1-13.87-5.42-26.87,1.34-10.39,9.45-22,25-20C228.45,90,232,96.3,242,97.59Z"/><circle class="cls-1" cx="232.73" cy="153.2" r="42.49" transform="translate(-19.26 34.3) rotate(-8.1)"/><path class="cls-3" d="M232.82,196.81a43.62,43.62,0,1,1,26.54-9.08A43.3,43.3,0,0,1,232.82,196.81ZM190.6,147.76l1.1.14a41.38,41.38,0,1,0,15.77-27.46A41.11,41.11,0,0,0,191.7,147.9Z"/><path class="cls-3" d="M253.75,113.08c-11.8,10.17-6.06,38.78,6.65,47.53-9.62,6.31-13.76,24.14-9.89,31.19,15.34-5.73,24.36-20.51,26-25.58S278.28,141,278.28,141l-8.13-18.91Z"/><path class="cls-1" d="M259.67,147.75a11.79,11.79,0,1,1-13.21,10.19A11.79,11.79,0,0,1,259.67,147.75Z"/><path class="cls-3" d="M220.19,183.83a26.09,26.09,0,0,1-12.12-3,1.11,1.11,0,0,1-.48-1.5,1.13,1.13,0,0,1,1.51-.48c12.7,6.59,25-1.07,25.16-1.15a1.12,1.12,0,1,1,1.2,1.88A30.85,30.85,0,0,1,220.19,183.83Z"/><path class="cls-3" d="M229.93,151.2a1.11,1.11,0,0,1-1-.66,7.61,7.61,0,0,0-9.12-3.95,1.11,1.11,0,1,1-.55-2.16,9.92,9.92,0,0,1,11.71,5.2,1.11,1.11,0,0,1-.57,1.47A1,1,0,0,1,229.93,151.2Z"/><path class="cls-3" d="M200.84,141.88a1.11,1.11,0,0,1-1-.65c-.08-.15-1.38-2.44-7.11.23a1.11,1.11,0,1,1-.94-2c3.19-1.49,5.82-1.86,7.79-1.11a4.11,4.11,0,0,1,2.3,2,1.12,1.12,0,0,1-1,1.56Z"/><path class="cls-3" d="M223.32,169.89a11.6,11.6,0,0,1-1.44-.09c-8.65-1.12-14.39-12.07-12.8-24.41S219,123.91,227.66,125s14.39,12.07,12.8,24.41C239,161.1,231.43,169.89,223.32,169.89Zm2.88-42.72c-7,0-13.55,8-14.91,18.5h0c-1.44,11.12,3.44,21,10.87,21.92s14.65-7.31,16.09-18.43-3.44-21-10.87-21.92A9.45,9.45,0,0,0,226.2,127.17Zm-16,18.36h0Z"/><path class="cls-3" d="M193.24,161.33a7.26,7.26,0,0,1-.93-.06c-6.51-.84-10.48-10.2-9.05-21.29a28.82,28.82,0,0,1,5-13.34c2.69-3.61,5.94-5.38,9.16-5,6.51.84,10.49,10.2,9.05,21.3a28.9,28.9,0,0,1-5,13.34C199.05,159.58,196.15,161.33,193.24,161.33Zm3.26-37.48c-2.19,0-4.46,1.44-6.45,4.12a26.64,26.64,0,0,0-4.58,12.29c-1.23,9.53,2,18.14,7.13,18.8,2.39.3,4.9-1.14,7.09-4.08a26.52,26.52,0,0,0,4.57-12.29c1.23-9.53-2-18.14-7.12-18.79A4.48,4.48,0,0,0,196.5,123.85Z"/><path class="cls-1" d="M265.85,123.91a1.09,1.09,0,0,1-.81-.36,17.39,17.39,0,0,0-1.66-1.57,1.12,1.12,0,1,1,1.43-1.72,23.7,23.7,0,0,1,1.86,1.77,1.12,1.12,0,0,1-.06,1.58A1.11,1.11,0,0,1,265.85,123.91Z"/><path class="cls-1" d="M274.51,148.52a1.11,1.11,0,0,1-1.11-1.08c0-.1-.36-10.06-4.54-18.28a1.12,1.12,0,1,1,2-1c4.41,8.68,4.76,18.8,4.78,19.22a1.12,1.12,0,0,1-1.08,1.15Z"/><path class="cls-1" d="M202.39,113.83a1.11,1.11,0,0,1-1.1-1c-.07-.55-1.63-13.56,7.54-16.91,5.11-1.87,10.56-.1,15.23,1.88a1.11,1.11,0,0,1-.87,2.05C218.92,98.06,214,96.43,209.6,98c-7.5,2.74-6.12,14.42-6.1,14.54a1.12,1.12,0,0,1-1,1.25Z"/><path class="cls-1" d="M234,104.22l-.25,0a19.82,19.82,0,0,1-2.69-.86,1.11,1.11,0,1,1,.8-2.08,18.13,18.13,0,0,0,2.39.76,1.11,1.11,0,0,1-.25,2.2Z"/><path class="cls-3" d="M348.83,319.29c-7,12.49-17.57,19.67-33.27,16.21-11.75-2.58-18.71-9.56-22.34-19.07,6.08-6.31,15.72-10.38,26.6-10.38C332.28,306.05,343.13,311.39,348.83,319.29Z"/><path class="cls-3" d="M353.77,223.81a1.15,1.15,0,0,1-.44-.09c-1.54-.66-3.17-1.27-4.84-1.81a1.11,1.11,0,1,1,.68-2.12c1.74.56,3.44,1.19,5,1.88a1.11,1.11,0,0,1-.44,2.14Z"/><path class="cls-3" d="M308.83,219.66a1.11,1.11,0,0,1-.2-2.21,99.07,99.07,0,0,1,28.49-.36,1.12,1.12,0,0,1-.31,2.21,98.88,98.88,0,0,0-27.78.34A.71.71,0,0,1,308.83,219.66Z"/><path class="cls-3" d="M120.79,255c-11.79,0-19.06-5.15-19.17-5.24a1.11,1.11,0,0,1-.25-1.55,1.12,1.12,0,0,1,1.56-.25c.74.54,18.34,12.91,43.94-3.72a1.12,1.12,0,1,1,1.22,1.87C137.61,253,128.28,255,120.79,255Z"/><path class="cls-3" d="M308.72,361a1.1,1.1,0,0,1-1.1-1,1.12,1.12,0,0,1,1-1.24c1.6-.18,3.19-.41,4.73-.67a1.12,1.12,0,0,1,1.28.92,1.1,1.1,0,0,1-.91,1.28c-1.57.27-3.2.5-4.85.69Z"/><path class="cls-3" d="M288.85,361.42h-.06c-18.85-1.06-39.06-5.62-63.62-14.36A173.64,173.64,0,0,0,206,341.19a1.11,1.11,0,0,1-.84-1.34,1.1,1.1,0,0,1,1.33-.83A174.41,174.41,0,0,1,225.92,345c24.35,8.66,44.37,13.18,63,14.23a1.12,1.12,0,0,1-.06,2.23Z"/><path class="cls-3" d="M152.94,344.36a1.11,1.11,0,0,1-.29-2.19,166.4,166.4,0,0,1,17.13-3.82,1.12,1.12,0,0,1,.37,2.2,164.73,164.73,0,0,0-16.91,3.77A1.54,1.54,0,0,1,152.94,344.36Z"/><path class="cls-3" d="M115.86,240a35.05,35.05,0,0,1-12.58-2.24,1.11,1.11,0,1,1,.86-2c.12,0,12,4.9,24.5-.58a1.11,1.11,0,0,1,.9,2A33.8,33.8,0,0,1,115.86,240Z"/><path class="cls-1" d="M316.58,424.87a1.11,1.11,0,0,1-1.1-1,125,125,0,0,0-2.33-13.44,1.12,1.12,0,0,1,2.18-.49,126.91,126.91,0,0,1,2.36,13.7,1.1,1.1,0,0,1-1,1.22Z"/><path class="cls-1" d="M200.25,422.82a1,1,0,0,1-.3,0c-30.15-8.45-47.83-42.41-48-42.75a1.11,1.11,0,1,1,2-1c.17.33,17.43,33.44,46.62,41.63a1.11,1.11,0,0,1-.3,2.18Z"/><path class="cls-1" d="M129.67,250.71a1.12,1.12,0,0,1-1.11-1L124,193.83a1.11,1.11,0,1,1,2.22-.18l4.58,55.86a1.11,1.11,0,0,1-1,1.2Z"/><path class="cls-3" d="M420.64,100.08A1.11,1.11,0,0,1,419.53,99V94.79a1.12,1.12,0,1,1,2.23,0V99A1.12,1.12,0,0,1,420.64,100.08Z"/><path class="cls-3" d="M420.64,125.5a1.11,1.11,0,0,1-1.11-1.11v-20.3a1.12,1.12,0,1,1,2.23,0v20.3A1.12,1.12,0,0,1,420.64,125.5Z"/><path class="cls-3" d="M272.57,298.07a1.19,1.19,0,0,1-.37-.06l-14.79-5.23a1.12,1.12,0,0,1,.22-2.16l13.29-1.89a60.06,60.06,0,0,0-20.55-2.58,1.12,1.12,0,0,1-1.2-1,1.11,1.11,0,0,1,1-1.2c.56,0,13.79-1,25.58,4.28a1.1,1.1,0,0,1,.65,1.17,1.11,1.11,0,0,1-.95.95l-13,1.86,10.5,3.72a1.11,1.11,0,0,1-.37,2.16Z"/><path class="cls-3" d="M353.09,411.3a1.11,1.11,0,0,1-1.09-.89c-.72-3.57-3-11.63-6.77-23.93a1.11,1.11,0,1,1,2.13-.66c3.79,12.38,6.09,20.5,6.82,24.14a1.12,1.12,0,0,1-.87,1.32Z"/><path class="cls-3" d="M336.25,355.43a1.11,1.11,0,0,1-1.06-.77c-1.39-4.29-2.26-7-2.27-7a1.14,1.14,0,0,1,.14-1,1.12,1.12,0,0,1,.86-.49,35.66,35.66,0,0,0,25.54-12.37c19.53-22.15,19.5-69,17.74-94.93a1.12,1.12,0,0,1,2.23-.15c1.78,26.29,1.77,73.8-18.29,96.56a37.69,37.69,0,0,1-25.66,13c.4,1.2,1,3.15,1.83,5.63a1.12,1.12,0,0,1-.72,1.41A1.33,1.33,0,0,1,336.25,355.43Z"/><path class="cls-3" d="M376.31,219.66a1.1,1.1,0,0,1-1.1-1c-.29-2.14-.48-3.32-.48-3.33a1.11,1.11,0,0,1,.93-1.27,1.1,1.1,0,0,1,1.27.92s.2,1.2.49,3.38a1.11,1.11,0,0,1-1,1.25Z"/><path class="cls-3" d="M162.17,229.84a1.15,1.15,0,0,1-.61-.19,1.11,1.11,0,0,1-.31-1.55c9.93-14.93,36.6-31.67,37.73-32.37a1.1,1.1,0,0,1,1.53.35,1.12,1.12,0,0,1-.35,1.54c-.28.17-27.39,17.19-37.06,31.72A1.12,1.12,0,0,1,162.17,229.84Z"/><path class="cls-3" d="M116.71,348.45a1.12,1.12,0,0,1-.53-.13C94,336.26,87.28,306.79,85.55,284.19a1.13,1.13,0,0,1,1-1.2,1.14,1.14,0,0,1,1.2,1c1.68,22.05,8.17,50.76,29.47,62.34a1.11,1.11,0,0,1-.54,2.09Z"/><path class="cls-3" d="M86.58,257.36H86.5a1.1,1.1,0,0,1-1-1.19c.2-2.94.4-4.62.4-4.69a1.12,1.12,0,1,1,2.22.26s-.2,1.71-.4,4.59A1.11,1.11,0,0,1,86.58,257.36Z"/><path class="cls-3" d="M112,414.41l-.27,0a1.12,1.12,0,0,1-.82-1.35l4.88-19.79a1.12,1.12,0,1,1,2.17.53l-4.88,19.79A1.12,1.12,0,0,1,112,414.41Z"/><path class="cls-3" d="M120,382.08a.84.84,0,0,1-.27,0,1.11,1.11,0,0,1-.81-1.35l1.78-7.24a1.12,1.12,0,0,1,2.17.54l-1.79,7.24A1.11,1.11,0,0,1,120,382.08Z"/><path class="cls-3" d="M231.48,81.21a1.11,1.11,0,0,1-.5-.12c-1-.53-2.08-1-3.1-1.45a1.12,1.12,0,0,1,.88-2c1.06.46,2.14,1,3.22,1.5a1.12,1.12,0,0,1-.5,2.12Z"/><path class="cls-3" d="M196.55,81.47a1.1,1.1,0,0,1-.9-.46,1.12,1.12,0,0,1,.23-1.56c6.84-5,14.87-6.64,23.86-4.77a1.11,1.11,0,1,1-.45,2.18c-8.35-1.73-15.78-.25-22.08,4.39A1.09,1.09,0,0,1,196.55,81.47Z"/><polygon class="cls-1" points="470.56 396.94 444.93 366.62 457.66 355.86 412.9 342.24 418.87 388.64 431.6 377.88 457.23 408.2 470.56 396.94"/><path class="cls-3" d="M457.23,409.32a1.13,1.13,0,0,1-.85-.4l-24.91-29.47-11.88,10a1.09,1.09,0,0,1-1.12.19,1.11,1.11,0,0,1-.7-.9l-6-46.4a1.12,1.12,0,0,1,1.43-1.21L458,354.79a1.11,1.11,0,0,1,.77.84,1.13,1.13,0,0,1-.37,1.08l-11.88,10,24.91,29.47a1.11,1.11,0,0,1-.13,1.57L458,409.05A1.09,1.09,0,0,1,457.23,409.32ZM431.6,376.77h.09a1.11,1.11,0,0,1,.76.39l24.91,29.47L469,396.81l-24.92-29.47a1.12,1.12,0,0,1,.14-1.57l11.16-9.44-41.15-12.52,5.5,42.66L430.88,377A1.12,1.12,0,0,1,431.6,376.77Z"/><path class="cls-3" d="M406.09,335.48a1.11,1.11,0,0,1-.87-.41L385.48,311a1.11,1.11,0,0,1,.16-1.57,1.1,1.1,0,0,1,1.56.16L407,333.66a1.11,1.11,0,0,1-.16,1.57A1.07,1.07,0,0,1,406.09,335.48Z"/><path class="cls-3" d="M419.39,332a1.11,1.11,0,0,1-1.11-1.11v-30.5a1.12,1.12,0,1,1,2.23,0v30.5A1.12,1.12,0,0,1,419.39,332Z"/><path class="cls-3" d="M400.67,346.21H370.72a1.12,1.12,0,0,1,0-2.23h29.95a1.12,1.12,0,1,1,0,2.23Z"/></svg>