<svg id="Layer_1" data-name="Layer 1" xmlns="http://www.w3.org/2000/svg" viewBox="0 0 500 500"><defs><style>.cls-1{fill:#f0e4d6;}.cls-2{fill:#333;}.cls-3{fill:#3567b1;}.cls-4{fill:#f15d3c;}</style></defs><title>whyLM</title><rect class="cls-1" x="0.22" y="-0.22" width="500" height="500"/><rect class="cls-2" x="244.4" y="240.32" width="47.97" height="6.29"/><path class="cls-2" d="M292.37,247.3h-48a.69.69,0,0,1-.69-.69v-6.29a.69.69,0,0,1,.69-.69h48a.69.69,0,0,1,.69.69v6.29A.69.69,0,0,1,292.37,247.3Zm-47.28-1.37h46.6V241h-46.6Z"/><rect class="cls-2" x="292.37" y="240.32" width="37.61" height="6.29" transform="translate(622.35 486.93) rotate(180)"/><path class="cls-2" d="M330,247.3H292.37a.68.68,0,0,1-.68-.69v-6.29a.68.68,0,0,1,.68-.69H330a.69.69,0,0,1,.69.69v6.29A.69.69,0,0,1,330,247.3Zm-36.92-1.37h36.23V241H293.06Z"/><polygon class="cls-2" points="277.43 195.88 229.46 195.88 244.4 240.32 292.37 240.32 277.43 195.88"/><path class="cls-2" d="M292.37,241h-48a.69.69,0,0,1-.65-.47L228.81,196.1a.66.66,0,0,1,.09-.62.68.68,0,0,1,.56-.29h48a.7.7,0,0,1,.65.47L293,240.1a.68.68,0,0,1-.09.62A.7.7,0,0,1,292.37,241Zm-47.48-1.38h46.53l-14.49-43.07H230.41Z"/><polygon class="cls-3" points="290.46 234.64 278.58 199.3 230.61 199.3 242.49 234.64 290.46 234.64"/><path class="cls-2" d="M290.46,235.33h-48a.69.69,0,0,1-.65-.47L230,199.52a.68.68,0,0,1,.65-.9h48a.68.68,0,0,1,.65.46l11.88,35.34a.68.68,0,0,1-.09.62A.7.7,0,0,1,290.46,235.33ZM243,234h46.53l-11.42-34H231.56Z"/><path class="cls-1" d="M287.21,246.05a.69.69,0,0,1-.69-.69V241H246.26a.69.69,0,0,1,0-1.38h40.95a.68.68,0,0,1,.68.69v5A.68.68,0,0,1,287.21,246.05Z"/><path class="cls-2" d="M291,133.56a16.68,16.68,0,0,1,.66-5.16,17.26,17.26,0,0,1,3.23-5.06l1.85-2.38a9.17,9.17,0,0,0,1.86-5.41,7.3,7.3,0,0,0-1.15-4.35,3.85,3.85,0,0,0-3.3-1.58,4.41,4.41,0,0,0-3.35,1.43,5.39,5.39,0,0,0-1.34,3.84h-4.66a9.6,9.6,0,0,1,2.65-7,9.07,9.07,0,0,1,6.7-2.6,8.6,8.6,0,0,1,6.7,2.68,10.56,10.56,0,0,1,2.44,7.38q0,4.52-3.69,9l-2.43,2.93a10.71,10.71,0,0,0-1.51,6.2Zm2.54,5.59a2.46,2.46,0,0,1,2,.81,3,3,0,0,1,.67,2,2.91,2.91,0,0,1-.67,2,2.51,2.51,0,0,1-2,.78,2.45,2.45,0,0,1-2-.78,3,3,0,0,1-.65-2,3.1,3.1,0,0,1,.65-2A2.41,2.41,0,0,1,293.51,139.15Z"/><path class="cls-3" d="M264,163.32a10.09,10.09,0,0,1,.41-3.14,10.32,10.32,0,0,1,2-3.07l1.13-1.45a5.62,5.62,0,0,0,1.13-3.29,4.46,4.46,0,0,0-.7-2.65,2.34,2.34,0,0,0-2-1,2.67,2.67,0,0,0-2,.87,3.3,3.3,0,0,0-.81,2.34h-2.84a5.87,5.87,0,0,1,1.61-4.24,5.56,5.56,0,0,1,4.08-1.58,5.23,5.23,0,0,1,4.08,1.63,6.45,6.45,0,0,1,1.48,4.49,8.76,8.76,0,0,1-2.24,5.5l-1.48,1.78a6.46,6.46,0,0,0-.92,3.77Zm1.55,3.4a1.53,1.53,0,0,1,1.22.49,1.87,1.87,0,0,1,.41,1.22,1.8,1.8,0,0,1-.41,1.2,1.52,1.52,0,0,1-1.22.47,1.49,1.49,0,0,1-1.22-.47,1.84,1.84,0,0,1-.39-1.2,1.92,1.92,0,0,1,.39-1.22A1.5,1.5,0,0,1,265.53,166.72Z"/><path class="cls-1" d="M180.35,66.73a1.51,1.51,0,0,1,1.47-1.16h63a1.51,1.51,0,0,1,1.47,1.16,118,118,0,0,1,0,52.75,1.51,1.51,0,0,1-1.47,1.16H235.5l-26.91,11.83,11.83-11.83h-38.6a1.51,1.51,0,0,1-1.47-1.16A118,118,0,0,1,180.35,66.73Z"/><path class="cls-2" d="M208.59,133.16a.68.68,0,0,1-.56-.3.67.67,0,0,1,.08-.87l10.66-10.66h-37a2.17,2.17,0,0,1-2.13-1.7,119.05,119.05,0,0,1,0-53,2.17,2.17,0,0,1,2.13-1.7h63a2.17,2.17,0,0,1,2.13,1.7,119.05,119.05,0,0,1,0,53.05,2.17,2.17,0,0,1-2.13,1.7h-9.19L208.87,133.1A.67.67,0,0,1,208.59,133.16ZM181,66.88a118.14,118.14,0,0,0,0,52.45.83.83,0,0,0,.8.62h38.6a.7.7,0,0,1,.64.43.68.68,0,0,1-.15.75l-9.25,9.24L235.22,120a.71.71,0,0,1,.28-.06h9.33a.83.83,0,0,0,.8-.62,118.14,118.14,0,0,0,0-52.45.83.83,0,0,0-.8-.62h-63a.83.83,0,0,0-.8.62Z"/><path class="cls-3" d="M201.21,93.37a3.28,3.28,0,1,1-3.28-3.27A3.27,3.27,0,0,1,201.21,93.37Z"/><path class="cls-3" d="M232,93.37a3.28,3.28,0,1,1-3.27-3.27A3.27,3.27,0,0,1,232,93.37Z"/><path class="cls-3" d="M216.6,93.37a3.28,3.28,0,1,1-3.27-3.27A3.27,3.27,0,0,1,216.6,93.37Z"/><path class="cls-4" d="M133.4,422.09A29.54,29.54,0,0,1,147.31,434h-26.4v-6.66a1.56,1.56,0,0,1,1.37-1.54C124.74,425.51,129.22,420.3,133.4,422.09Z"/><path class="cls-2" d="M147.31,434.68h-26.4a.69.69,0,0,1,0-1.38h26.4a.69.69,0,0,1,0,1.38Z"/><path class="cls-2" d="M132.46,268c61.33,12.41,45.68,118-5.91,158.28a3.1,3.1,0,0,1-4.37-.55c-24.71-32.55-17.31-83.08-17.31-83.08H97.55c-28.6,0-61.08-23.27-61.08-65.93C56.35,258.83,66,254.46,66,254.46Z"/><path class="cls-1" d="M124.64,427.67a2.89,2.89,0,0,1-.5,0,3.7,3.7,0,0,1-2.51-1.45c-22.92-30.18-18.33-76.24-17.54-82.8H97.55c-30.36,0-61.76-24.92-61.76-66.62a.7.7,0,0,1,.22-.51c19.73-17.8,29.35-22.23,29.75-22.41a.68.68,0,0,1,.42-.05l66.41,13.57c24.95,5.05,34.47,24.25,38.06,39.47C175,325.32,173,348.76,165,371.15c-8.23,23.2-21.74,43-38,55.71A3.73,3.73,0,0,1,124.64,427.67ZM37.16,277.07C37.31,317.72,67.94,342,97.55,342h7.32a.69.69,0,0,1,.52.24.68.68,0,0,1,.16.55c-.07.5-7.07,50.63,17.17,82.56a2.38,2.38,0,0,0,1.6.92,2.41,2.41,0,0,0,1.81-.49c32.57-25.44,52.35-79.77,43.18-118.63-3.5-14.83-12.75-33.54-37-38.44L66.13,255.18C64.68,255.9,55,261,37.16,277.07Z"/><path class="cls-1" d="M202.28,208.79c2.33-4.62,0-7.7-2-6.67-3.24,1.62-8.71,3.83-11.64,4.15,1-3.38,2.66-7.21,2.55-9.83-.18-4.81-5-5.08-5.89-2.29-.53,1.79-2.18,5.22-4.24,6-4.49,1.79-4.49,3.29-8.76,6.06l.4,1.74-1.8.19-.09,21C182.76,227.89,198.46,220.83,202.28,208.79Z"/><path class="cls-2" d="M170.78,229.86a.7.7,0,0,1-.46-.18.68.68,0,0,1-.23-.51l.1-21a.68.68,0,0,1,.61-.68l1-.11-.23-1a.7.7,0,0,1,.3-.73,25.89,25.89,0,0,0,3.59-2.79,15.55,15.55,0,0,1,5.29-3.33c1.69-.67,3.26-3.68,3.83-5.6a3.23,3.23,0,0,1,3.61-2.24c1.6.2,3.51,1.55,3.63,4.71.08,2-.8,4.62-1.65,7.15l-.61,1.84a51.91,51.91,0,0,0,10.35-3.9,2.43,2.43,0,0,1,2.89.5c1.11,1.11,1.79,3.62.08,7-3.78,11.82-19,19.41-32.06,20.8Zm.78-21.06-.09,19.6c12.47-1.55,26.65-8.76,30.15-19.82a1,1,0,0,1,0-.1c1.32-2.61,1.05-4.64.2-5.5a1.09,1.09,0,0,0-1.3-.25c-2.9,1.45-8.67,3.87-11.87,4.22a.71.71,0,0,1-.6-.24.68.68,0,0,1-.13-.64c.28-1,.61-2,.94-2.93.81-2.42,1.65-4.91,1.58-6.67-.09-2.29-1.32-3.26-2.43-3.4a1.88,1.88,0,0,0-2.12,1.27c-.44,1.47-2.12,5.48-4.64,6.48a14,14,0,0,0-4.88,3.09,28.79,28.79,0,0,1-3.36,2.65l.29,1.28a.71.71,0,0,1-.11.55.67.67,0,0,1-.49.28Z"/><path class="cls-1" d="M146.55,164.71c2.29-3,.42-8.32,3.07-12.71,2.28-3.77,2.73-7.87,2.15-10.19-.81-3.2,6.12-3.8,6.75,3.95,5-4.1,11.29-7.58,14.58-3.78,2.59,3,2.6,17.49-6.63,27.54C156.63,180.24,146.55,164.71,146.55,164.71Z"/><path class="cls-2" d="M159,174c-.26,0-.51,0-.77,0-6.83-.57-12.07-8.53-12.28-8.87a.69.69,0,0,1,0-.79c1-1.3,1.11-3.14,1.26-5.26.15-2.34.33-5,1.78-7.39,2.18-3.61,2.6-7.54,2.06-9.67a2.31,2.31,0,0,1,.7-2.39,3.51,3.51,0,0,1,3.59-.37c.93.38,3,1.62,3.65,5.25,6.59-5.15,11.75-6.19,14.58-2.94s3,17.91-6.64,28.46C164.54,172.64,161.87,174,159,174Zm-11.65-9.27c1.11,1.55,5.63,7.42,11,7.87,2.68.22,5.23-1,7.59-3.52,9.11-9.93,8.77-24.15,6.61-26.63-3.24-3.74-9.93.82-13.63,3.86a.69.69,0,0,1-.7.1.68.68,0,0,1-.42-.57c-.31-3.85-2.17-5-3-5.33a2.14,2.14,0,0,0-2.17.13,1,1,0,0,0-.27,1c.63,2.47.18,6.74-2.22,10.71-1.28,2.12-1.43,4.48-1.58,6.77C148.49,161.18,148.36,163.14,147.38,164.71Z"/><path class="cls-2" d="M159.92,164.73a.72.72,0,0,1-.34-.09.68.68,0,0,1-.26-.93c2.15-3.83,2-9.39-.29-11.9a.68.68,0,0,1,0-1,.7.7,0,0,1,1,0c2.71,3,2.93,9.13.48,13.5A.68.68,0,0,1,159.92,164.73Z"/><path class="cls-4" d="M59,191.25c22.78-20.07,44,13.85,84.22-30a4.88,4.88,0,0,1,3.77-1.59c10.16.43,22.86,9.26,28.67,17a5,5,0,0,1,.87,4.05c-6.2,27.71-34.23,63.78-79.9,63.92C68.65,244.69,61.06,217.48,59,191.25Z"/><path class="cls-2" d="M96.49,245.29c-22.83,0-35.32-17.66-38.18-54a.68.68,0,0,1,.23-.57C68,182.4,77.4,183.18,87.35,184c14.84,1.22,31.65,2.6,55.37-23.24A5.48,5.48,0,0,1,147,159c10.36.43,23.22,9.3,29.19,17.27a5.63,5.63,0,0,1,1,4.61c-3.44,15.37-12.68,30.91-25.36,42.65a80.39,80.39,0,0,1-55.21,21.81ZM59.71,191.54c2.84,35.24,14.87,52.38,36.78,52.38h.14c47.42-.15,73.76-39,79.23-63.39a4.3,4.3,0,0,0-.74-3.49c-5.79-7.71-18.2-16.3-28.15-16.72a4.16,4.16,0,0,0-3.24,1.37c-24.17,26.33-41.34,24.92-56.49,23.68C77.26,184.54,68.63,183.83,59.71,191.54Z"/><polygon class="cls-1" points="80.88 164.75 94.52 150.82 109.84 160.46 101.04 177.09 80.88 164.75"/><path class="cls-2" d="M101,177.77a.68.68,0,0,1-.36-.1L80.52,165.33a.7.7,0,0,1-.32-.5.73.73,0,0,1,.19-.56L94,150.34a.7.7,0,0,1,.86-.1l15.32,9.64a.68.68,0,0,1,.24.9l-8.8,16.63a.67.67,0,0,1-.43.34A.55.55,0,0,1,101,177.77ZM82,164.61l18.8,11.51,8.16-15.42-14.32-9Z"/><path class="cls-2" d="M132.46,268c62.29,12.6,91.38,69.56,71.81,160.13-22.85-2.34-70.84-47.18-70.84-85.48H97.55c-28.6,0-61.08-23.27-61.08-65.93C56.35,258.83,66,254.46,66,254.46Z"/><path class="cls-1" d="M204.27,428.86h-.07c-11.58-1.18-29.43-13-44.43-29.47-17-18.59-26.77-39-27-56H97.55c-30.36,0-61.76-24.92-61.76-66.62a.7.7,0,0,1,.22-.51c19.73-17.8,29.35-22.23,29.75-22.41a.68.68,0,0,1,.42-.05l66.41,13.57c26.61,5.39,46.95,18.57,60.43,39.19,18.8,28.74,22.92,70.85,11.92,121.77A.68.68,0,0,1,204.27,428.86ZM37.16,277.07C37.31,317.72,67.94,342,97.55,342h35.88a.68.68,0,0,1,.68.69c0,16.85,9.72,37.17,26.68,55.76,14.52,15.93,31.66,27.47,42.94,29,10.76-50.28,6.66-91.81-11.86-120.12C178.59,287,158.56,274,132.32,268.71L66.13,255.18C64.68,255.9,55,261,37.16,277.07Z"/><path class="cls-1" d="M196.51,416.94a.67.67,0,0,1-.58-.32c-.31-.48-.61-1-.91-1.45a.68.68,0,0,1,.22-.94.67.67,0,0,1,.94.22c.3.48.6,1,.91,1.44a.69.69,0,0,1-.22.95A.68.68,0,0,1,196.51,416.94Z"/><path class="cls-1" d="M191.32,408.39a.69.69,0,0,1-.6-.34,191.43,191.43,0,0,1-9.94-19.31.69.69,0,0,1,1.25-.57,190.1,190.1,0,0,0,9.88,19.19.69.69,0,0,1-.25.94A.72.72,0,0,1,191.32,408.39Z"/><path class="cls-1" d="M164.25,346.59a.71.71,0,0,1-.67-.51,120.5,120.5,0,0,1-3.8-25.24c-.13-4.79-.64-8.37-2.74-10.25-1.85-1.66-5.12-2.2-10.59-1.76-18.89,1.54-44.23.33-57.65-14.14-7.47-8.05-10.14-19.19-8-33.1a.69.69,0,1,1,1.36.22c-2.13,13.47.43,24.22,7.6,31.95,13,14.07,37.94,15.22,56.53,13.7,5.95-.48,9.43.15,11.62,2.11,2.47,2.21,3,5.94,3.2,11.24a118.47,118.47,0,0,0,3.75,24.91.68.68,0,0,1-.49.84Z"/><path class="cls-2" d="M119.86,97c16.82-1.18,21.93,23.33,8.09,29.92-15.15,1.35-32.49,2.85-32.49,2.85l-1.07-15.46,17-8.81S110.73,97.67,119.86,97Z"/><circle class="cls-1" cx="112.88" cy="145.42" r="25.87" transform="translate(-64.14 94.91) rotate(-36.25)"/><path class="cls-2" d="M112.93,172a27.08,27.08,0,0,1-6.66-.84,26.49,26.49,0,1,1,6.66.84Zm-.09-51.73a25.17,25.17,0,1,0,21.72,12.35A25,25,0,0,0,112.84,120.25Z"/><path class="cls-2" d="M118.46,164.67a13.5,13.5,0,0,1-10-4.58.69.69,0,0,1,.09-1,.69.69,0,0,1,1,.1,12,12,0,0,0,12.75,3.44.69.69,0,0,1,.87.43.69.69,0,0,1-.43.87A13.32,13.32,0,0,1,118.46,164.67Z"/><path class="cls-2" d="M117.39,143.43a.67.67,0,0,1-.46-.18.69.69,0,0,1-.05-1c1.55-1.7,5.07-1.7,6.58-.47a.69.69,0,0,1,.09,1,.67.67,0,0,1-1,.09,4.13,4.13,0,0,0-4.69.33A.71.71,0,0,1,117.39,143.43Z"/><path class="cls-2" d="M115.22,135.9a.68.68,0,0,1-.54-1.1c1.52-2,5.45-3.76,7.26-4a.67.67,0,0,1,.75.61.68.68,0,0,1-.61.75,12.37,12.37,0,0,0-6.31,3.43A.71.71,0,0,1,115.22,135.9Z"/><path class="cls-2" d="M100.72,116.84c8.2,4.12,8.31,24.63-3.12,33,4.94,7.86,1.32,17.3,1.32,17.3C89,167.88,76.56,153,75.57,138.82c-.76-10.94,2-20.07,12.84-27.28,10.41-6.9,26.72-6.85,31.45-14.5C123.92,105,100.72,116.84,100.72,116.84Z"/><path class="cls-1" d="M94.7,138.8a7.93,7.93,0,1,0,10.86,2.79A7.92,7.92,0,0,0,94.7,138.8Z"/><path class="cls-1" d="M129.24,114.51a.68.68,0,0,1-.68-.64c-.29-4.41-2.82-8.53-5.9-9.58a.69.69,0,0,1,.44-1.3c4.12,1.4,6.55,6.49,6.83,10.79a.68.68,0,0,1-.64.73Z"/><path class="cls-1" d="M128.15,120a.69.69,0,0,1-.6-1c.09-.15.17-.31.25-.47a.67.67,0,0,1,.91-.32.69.69,0,0,1,.33.91c-.09.19-.19.38-.29.56A.68.68,0,0,1,128.15,120Z"/><path class="cls-1" d="M86.12,152.11a.7.7,0,0,1-.55-.28c-8.65-11.67-5.72-25.78,1.43-33.13a.69.69,0,1,1,1,1C81.23,126.6,78.47,140,86.67,151a.69.69,0,0,1-.55,1.1Z"/><path class="cls-1" d="M91,117.07a.68.68,0,0,1-.59-.34.69.69,0,0,1,.25-.94l.42-.23a.69.69,0,1,1,.65,1.21l-.39.21A.58.58,0,0,1,91,117.07Z"/><path class="cls-4" d="M101.84,190.8c4.94.66,9.07-1,8.56-8.81-1.21-18.42-29.09-25.69-29.09-25.69l-.72,7c-34.91,24.23-44.12,79-44.12,113.43,43.15,0,73.2-8.72,96-8.72C132.46,240.73,115.47,214.72,101.84,190.8Z"/><path class="cls-2" d="M36.47,277.45a.68.68,0,0,1-.68-.69c0-40.09,11.6-91,44.15-113.82l.69-6.71a.69.69,0,0,1,.86-.6c1.15.3,28.36,7.61,29.59,26.31.24,3.66-.5,6.32-2.21,7.92a7.61,7.61,0,0,1-5.78,1.74c1.26,2.2,2.55,4.42,3.84,6.66,12.89,22.24,26.21,45.23,26.21,69.78a.67.67,0,0,1-.68.68c-9.54,0-20.4,1.55-33,3.33C82.57,274.46,61.51,277.45,36.47,277.45ZM81.91,157.18l-.64,6.22a.68.68,0,0,1-.29.49C48.85,186.2,37.29,236.33,37.16,276.08c24.62-.06,44.54-2.89,62.14-5.39,12.32-1.75,23-3.27,32.47-3.34-.25-23.92-13.35-46.53-26-68.4-1.52-2.63-3-5.23-4.5-7.81a.69.69,0,0,1,.69-1c2.7.36,4.72-.06,6-1.26s2-3.6,1.78-6.83C108.66,166,86.37,158.52,81.91,157.18Z"/><path class="cls-4" d="M83.24,168.5c31.35,0,24.82,40.51,85.23,34.49a7.23,7.23,0,0,1,6.08,2.34c6.46,7.17,9.9,20.4,9.7,29.89a8.27,8.27,0,0,1-3.58,6.66c-24.22,16.67-69.71,24.63-104.71-6C54.1,216.76,66.85,190.35,83.24,168.5Z"/><path class="cls-2" d="M130.89,257.32A82.57,82.57,0,0,1,75.5,236.4a.69.69,0,0,1,.91-1c36.35,31.8,82,21,103.87,5.94a7.6,7.6,0,0,0,3.29-6.1c.18-9.15-3-22.2-9.53-29.42a6.6,6.6,0,0,0-5.51-2.12c-36.11,3.6-48.39-9.15-59.23-20.4-7.29-7.56-13.57-14.09-26.06-14.09a.68.68,0,0,1-.69-.68.69.69,0,0,1,.69-.69c13.07,0,19.86,7.05,27.05,14.51,10.62,11,22.66,23.52,58.11,20a8,8,0,0,1,6.66,2.56c6.74,7.49,10.07,20.94,9.88,30.37a9,9,0,0,1-3.88,7.2C169.4,250.47,151,257.32,130.89,257.32Z"/><path class="cls-2" d="M170.78,248.29a.68.68,0,0,1-.62-.4.68.68,0,0,1,.33-.91c1.45-1.19-.06-19-4.29-30.19a.68.68,0,0,1,1.28-.48c3.59,9.43,6.86,30.4,3.59,31.91A.65.65,0,0,1,170.78,248.29Z"/><path class="cls-2" d="M164.11,212a.65.65,0,0,1-.54-.27,5.82,5.82,0,0,0-.4-.45.69.69,0,0,1,0-1,.68.68,0,0,1,1,0,6.28,6.28,0,0,1,.47.54.69.69,0,0,1-.11,1A.66.66,0,0,1,164.11,212Z"/><path class="cls-4" d="M202.77,422.9c.59-5.82,5-5.12,5.68-.81,5.16,2.14,14.59,6.56,18.21,11.9H196v-6.66a1.56,1.56,0,0,1,1.37-1.54C199.79,425.51,200,424.41,202.77,422.9Z"/><path class="cls-2" d="M226.66,434.68H196a.69.69,0,0,1,0-1.38h30.7a.69.69,0,0,1,0,1.38Z"/><path class="cls-2" d="M94.92,226.81a26,26,0,0,0-19.42,8.67l.46.4A82.06,82.06,0,0,0,120.81,256a26.63,26.63,0,0,0,.19-3.11A26.08,26.08,0,0,0,94.92,226.81Z"/><path class="cls-1" d="M110.41,306.56a.72.72,0,0,1-.54-.25.7.7,0,0,1,.1-1c10.86-8.81,14.36-20.78,10.71-36.59a.68.68,0,0,1,1.33-.31c3.73,16.14,0,28.92-11.17,38A.7.7,0,0,1,110.41,306.56Z"/><rect class="cls-1" x="85.54" y="346.12" width="29.51" height="14.1"/><path class="cls-2" d="M115.05,360.91H85.54a.69.69,0,0,1-.69-.69v-14.1a.69.69,0,0,1,.69-.69h29.51a.68.68,0,0,1,.68.69v14.1A.68.68,0,0,1,115.05,360.91Zm-28.82-1.38h28.13V346.81H86.23Z"/><path class="cls-1" d="M100.29,360.22H85.54c10.95,4.19,11.79,13.2,11.79,62.44h5.92c0-49.24.85-58.25,11.8-62.44Z"/><path class="cls-2" d="M103.25,423.35H97.33a.69.69,0,0,1-.68-.69c0-48.77-.84-57.78-11.36-61.8a.68.68,0,0,1-.43-.76.7.7,0,0,1,.68-.57h29.51a.69.69,0,0,1,.24,1.33c-10.51,4-11.35,13-11.35,61.8A.69.69,0,0,1,103.25,423.35ZM98,422h4.54c0-44.5.8-56.08,9.4-61.06H88.62C97.23,365.89,98,377.47,98,422Z"/><path class="cls-1" d="M103.25,422.66H97.33s-8.24,7-24.65,11.33h55.23C111.49,429.62,103.25,422.66,103.25,422.66Z"/><path class="cls-2" d="M127.91,434.68H72.68a.69.69,0,0,1-.18-1.35c16.08-4.29,24.31-11.13,24.39-11.2a.72.72,0,0,1,.44-.16h5.92a.7.7,0,0,1,.44.16c.08.07,8.34,6.92,24.39,11.2a.69.69,0,0,1,.51.75A.7.7,0,0,1,127.91,434.68ZM77.45,433.3h45.69c-12.25-3.94-18.91-9-20.13-9.95H97.58C96.35,424.33,89.7,429.36,77.45,433.3Z"/><path class="cls-2" d="M85.54,354H44.87a.68.68,0,0,1-.69-.68.69.69,0,0,1,.69-.69H85.54a.69.69,0,0,1,.69.69A.68.68,0,0,1,85.54,354Z"/><path class="cls-1" d="M26.91,212.34H67.34c14.86,0,27.3,11.8,27.49,26.66.31,24.05-31.95,29.22-31.95,49,0,7.15,4.77,19.06,17.87,19.06,17.16,0,22.84-15,40.76-15a27,27,0,1,1,0,54.05h-36A72.14,72.14,0,0,1,13.4,274V225.85A13.51,13.51,0,0,1,26.91,212.34Z"/><path class="cls-2" d="M121.51,346.81h-36A72.9,72.9,0,0,1,12.72,274V225.85a14.21,14.21,0,0,1,14.19-14.2H67.34c15.34,0,28,12.27,28.18,27.34.16,13-8.74,20.45-17.34,27.68C70.66,273,63.57,278.94,63.57,288c0,7.1,4.66,18.38,17.18,18.38,8.29,0,13.75-3.53,19.53-7.27s12-7.74,21.23-7.74a27.71,27.71,0,0,1,0,55.42ZM26.91,213a12.84,12.84,0,0,0-12.82,12.83V274a71.53,71.53,0,0,0,71.45,71.45h36a26.34,26.34,0,1,0,0-52.67c-8.86,0-14.77,3.82-20.48,7.52s-11.59,7.49-20.28,7.49c-13.52,0-18.56-12.11-18.56-19.75,0-9.71,7.34-15.88,15.1-22.4,8.37-7,17-14.29,16.85-26.61-.18-14.33-12.2-26-26.8-26Z"/><path class="cls-2" d="M44.87,348.66c2,0,13.9,1.31,18.7,3.14a.61.61,0,0,1,.38.57v1.87a.61.61,0,0,1-.38.58c-4.8,1.83-16.66,3.14-18.7,3.14a4.65,4.65,0,1,1,0-9.3Z"/><path class="cls-2" d="M76,255.75a.68.68,0,0,1-.52-.23.69.69,0,0,1,.06-1,54.13,54.13,0,0,0,4.13-4c3.52-3.87,5-7.28,4.94-11.4a17.1,17.1,0,0,0-17.27-16.57.69.69,0,0,1,0-1.38c10.15,0,18.52,8,18.64,17.94.06,4.43-1.57,8.24-5.29,12.33a57,57,0,0,1-4.24,4.13A.65.65,0,0,1,76,255.75Z"/><path class="cls-2" d="M71.6,259.53a.65.65,0,0,1-.52-.25.67.67,0,0,1,.08-1l.81-.69a.69.69,0,0,1,1,.08.68.68,0,0,1-.08,1l-.81.69A.69.69,0,0,1,71.6,259.53Z"/><path class="cls-2" d="M58.57,272.68a.63.63,0,0,1-.39-.13.68.68,0,0,1-.18-.95l.43-.6a.68.68,0,0,1,1-.15.68.68,0,0,1,.15.95l-.41.58A.69.69,0,0,1,58.57,272.68Z"/><path class="cls-2" d="M80.75,317.3c-19.37,0-28.09-17.12-28.09-29.28a27.28,27.28,0,0,1,2.42-11.29.68.68,0,0,1,.9-.34.69.69,0,0,1,.35.91A25.55,25.55,0,0,0,54,288c0,11.59,8.29,27.91,26.72,27.91a.69.69,0,0,1,.69.69A.68.68,0,0,1,80.75,317.3Z"/><path class="cls-2" d="M137.18,312a.7.7,0,0,1-.62-.38,16.71,16.71,0,0,0-15-9.34,20.27,20.27,0,0,0-10.37,2.94.68.68,0,0,1-.93-.26.7.7,0,0,1,.27-.94,21.51,21.51,0,0,1,11-3.11A18.09,18.09,0,0,1,137.79,311a.69.69,0,0,1-.3.92A.7.7,0,0,1,137.18,312Z"/><path class="cls-2" d="M139,319.78a.67.67,0,0,1-.68-.68c0-.49,0-1-.06-1.45a.68.68,0,0,1,.62-.74.69.69,0,0,1,.74.63c0,.51.07,1,.07,1.56A.68.68,0,0,1,139,319.78Z"/><path class="cls-4" d="M374.91,422.09A29.63,29.63,0,0,0,361,434h26.4v-6.66a1.56,1.56,0,0,0-1.37-1.54C383.57,425.51,379.09,420.3,374.91,422.09Z"/><path class="cls-2" d="M387.4,434.68H361a.69.69,0,0,1,0-1.38h26.4a.69.69,0,0,1,0,1.38Z"/><path class="cls-2" d="M363.49,268c-68.61,36.32-34.2,130,15.93,158a5.89,5.89,0,0,0,7.59-1.69c14.84-20,13.08-63.27,1.69-81.62,28.6,0,61.08-23.27,61.08-65.93-19.88-17.93-29.57-22.3-29.57-22.3Z"/><path class="cls-1" d="M382.23,427.41a6.42,6.42,0,0,1-3.14-.81c-15-8.34-28.8-22.6-39-40.16-10.37-17.92-16-37.76-15.78-55.88.21-19.54,7.12-46.35,38.83-63.13a.44.44,0,0,1,.16-.06l56.72-13.57a.61.61,0,0,1,.44,0c.4.18,10,4.61,29.75,22.41a.71.71,0,0,1,.23.51c0,41.15-30.59,66-60.57,66.6,11.25,19.55,12.24,61.75-2.33,81.36A6.65,6.65,0,0,1,382.23,427.41Zm-18.5-158.73c-31,16.48-37.81,42.75-38,61.89-.4,36.66,22.84,77.43,54,94.83a5.22,5.22,0,0,0,6.71-1.49c6.71-9,10.56-24,10.55-41,0-15.75-3.42-31-8.89-39.84a.66.66,0,0,1,0-.69.69.69,0,0,1,.6-.36c29.61,0,60.24-24.28,60.39-64.93-17.84-16.07-27.47-21.14-29-21.88Z"/><path class="cls-1" d="M314,168.94c-4.38-1.2-13.8-2.05-17.14,1-4.36.54-6.53,7.46,6.6,12.33,8.79,6.95,14.5,2.68,19.15,5.55,3.83-4.78,9.57-6.29,6.42-8.61s-2.22-8.32-6.28-12.3a7.25,7.25,0,0,1-1.61-5.1c.16-2-1.52-3.92-4.27-2.55-3.5,1.75-3.35,6.84-2.87,9.7a2.62,2.62,0,0,1-1.22,2.64Z"/><path class="cls-2" d="M322.64,188.49a.69.69,0,0,1-.36-.11c-1.65-1-3.53-1-5.7-1.08-3.54-.06-7.93-.13-13.43-4.44-10.16-3.8-10.44-8.49-10.28-9.84a4.33,4.33,0,0,1,3.72-3.75C300,166.4,308.52,167,313.21,168c-.32-2.79-.27-7.58,3.38-9.4a3.59,3.59,0,0,1,3.81,0,3.51,3.51,0,0,1,1.45,3.22,6.58,6.58,0,0,0,1.41,4.56c2.24,2.2,3,4.93,3.75,7.35.61,2.1,1.14,3.91,2.46,4.89a2.41,2.41,0,0,1,1.19,1.87c0,1.24-1.24,2.22-3,3.56a25.74,25.74,0,0,0-4.5,4.16A.7.7,0,0,1,322.64,188.49Zm-17.37-20c-3.31,0-6.4.53-7.92,1.91a.77.77,0,0,1-.38.17,3,3,0,0,0-2.74,2.58c-.26,2.28,2.09,5.68,9.49,8.43a.72.72,0,0,1,.19.11c5.18,4.08,9.17,4.15,12.69,4.2a13.07,13.07,0,0,1,5.88,1,28.71,28.71,0,0,1,4.36-3.94c1.2-.93,2.45-1.89,2.44-2.45,0-.27-.34-.58-.63-.79-1.69-1.25-2.31-3.36-3-5.61s-1.4-4.8-3.39-6.75a7.94,7.94,0,0,1-1.82-5.65,2.15,2.15,0,0,0-.85-2,2.35,2.35,0,0,0-2.42.09c-3.42,1.72-2.79,7.28-2.5,9a3.36,3.36,0,0,1-1.55,3.37.69.69,0,1,1-.69-1.19,2,2,0,0,0,.91-1.51A35.37,35.37,0,0,0,305.27,168.52Z"/><path class="cls-4" d="M416.34,177.59c-26.64-11.8-36.31,25.17-85.53-2.89a6.27,6.27,0,0,0-5.16-.52c-7.95,2.79-14.4,9.9-17.47,17.33a7.82,7.82,0,0,0,.58,7.05c14.21,23.39,48.82,48.84,90,36C424.51,226.54,422,202.29,416.34,177.59Z"/><path class="cls-2" d="M376.59,238.68a74.8,74.8,0,0,1-33.25-7.92,87.21,87.21,0,0,1-35.17-31.85,8.53,8.53,0,0,1-.62-7.67c3.4-8.25,10.25-15,17.88-17.71a6.92,6.92,0,0,1,5.72.58c28.9,16.47,43.84,10.38,57,5,8.91-3.64,17.33-7.07,28.44-2.15a.66.66,0,0,1,.39.47c5.43,23.55,9,49.38-18,57.79A75.12,75.12,0,0,1,376.59,238.68Zm-49-64.15a5.24,5.24,0,0,0-1.75.3c-7.27,2.55-13.8,9-17.06,16.94a7.17,7.17,0,0,0,.52,6.43c15.63,25.72,50.22,47.86,89.23,35.71,25.75-8,22.43-33,17.18-55.83-10.42-4.49-18.13-1.34-27.05,2.3-13.48,5.5-28.75,11.73-58.23-5.08A5.72,5.72,0,0,0,327.63,174.53Z"/><polygon class="cls-1" points="413.18 168.51 400.04 155.09 385.28 164.38 393.76 180.4 413.18 168.51"/><path class="cls-2" d="M393.76,181.09l-.18,0a.73.73,0,0,1-.43-.34l-8.48-16a.69.69,0,0,1,.24-.9l14.77-9.29a.68.68,0,0,1,.85.1L413.67,168a.67.67,0,0,1,.19.57.66.66,0,0,1-.32.5L394.12,181A.65.65,0,0,1,393.76,181.09Zm-7.58-16.47L394,179.44l18.07-11.06L399.94,156Z"/><path class="cls-2" d="M425.39,213.33c17.77,9.37,38.22-.83,39.07-20,.87-19.79-18.27-23.34-23.12-29.25-5-6.08-3.6-11.87-7.76-16.75s-11.37-5.15-16.76-10.88c-4-4.22-2.86-10.84-7.07-15.74-5.51-6.43-15.65-9.32-25.51-6-27-17.85-47.12,18.81-22.63,29.92C383.47,154.53,425.39,213.33,425.39,213.33Z"/><path class="cls-2" d="M363.49,268c-92.81,18.42-74.87,138.16-8.78,161.59,13.41-17.13,15.19-70.13,8.3-85.48h25.47c55.75,0,80-43.63,66.9-89.69C435.5,236.53,424.11,246,424.11,246Z"/><path class="cls-1" d="M354.71,430.31a.59.59,0,0,1-.23,0c-17.17-6.08-32.24-19.21-42.43-36.95a99.27,99.27,0,0,1-13-56c1.22-16.83,7.13-32,17.1-43.82,11.26-13.37,27.14-22.18,47.19-26.17l60.47-22c1.25-1,12.72-8.87,32.07,8.58a.79.79,0,0,1,.2.33c6.9,24.27,3.48,48-9.37,65C434,336,413.9,344.83,388.48,344.83H364c6.62,16.95,4.41,68.36-8.79,85.22A.7.7,0,0,1,354.71,430.31Zm78-186.11c-5.27,0-8.11,2.26-8.16,2.31a.53.53,0,0,1-.21.11l-60.62,22.06-.1,0c-37.56,7.46-60.61,32.51-63.24,68.75-2.9,39.93,20.33,79.1,54.09,91.35,5.78-7.73,9.9-23.22,11.31-42.64,1.28-17.58-.09-34.36-3.4-41.74a.68.68,0,0,1,.05-.66.7.7,0,0,1,.58-.31h25.47c25,0,44.72-8.66,57.09-25,12.56-16.63,15.91-39.79,9.2-63.58C445.32,246.36,437.86,244.2,432.71,244.2Z"/><path class="cls-1" d="M332.74,219.33c-4.46-1-12.67-.82-19.1,3.51-3.83,2.57-7.93,8-5.62,9.84,2.06,1.65,5.62-1.18,7.8-1.32,5,1.06,11.83,4.63,11.83,4.63Z"/><path class="cls-2" d="M327.65,236.68a.72.72,0,0,1-.32-.08c-.06,0-6.69-3.49-11.55-4.55a10.2,10.2,0,0,0-2.42.79c-1.94.79-4.13,1.69-5.77.38a2.53,2.53,0,0,1-.92-2.18c.11-2.76,3.51-6.7,6.59-8.77,7.11-4.78,15.69-4.52,19.64-3.61a.77.77,0,0,1,.44.33.73.73,0,0,1,.06.54l-5.09,16.66a.67.67,0,0,1-.39.43A.66.66,0,0,1,327.65,236.68Zm-11.83-6H316A54.67,54.67,0,0,1,327.24,235l4.63-15.16A25.69,25.69,0,0,0,314,223.41c-3.1,2.08-5.9,5.68-6,7.68a1.15,1.15,0,0,0,.41,1.06c1,.8,2.73.1,4.39-.58a9.93,9.93,0,0,1,2.94-.89Z"/><circle class="cls-1" cx="382.35" cy="149.89" r="24.92" transform="matrix(0.6, -0.8, 0.8, 0.6, 34.29, 367.86)"/><path class="cls-2" d="M382.31,175.49a25.6,25.6,0,1,1,22.09-12.57A25.63,25.63,0,0,1,382.31,175.49Zm.08-49.85a24.29,24.29,0,1,0,12.3,3.39A24.24,24.24,0,0,0,382.39,125.64Z"/><path class="cls-2" d="M385.7,168a.69.69,0,0,1-.17-1.36,3.06,3.06,0,0,0,2.32-2,3.63,3.63,0,0,0-.62-3,13.39,13.39,0,0,1-12.35,6.19.69.69,0,0,1,.15-1.37c5.44.59,10.22-3.38,11.43-6.35a.72.72,0,0,1,.52-.42.69.69,0,0,1,.63.22,5.37,5.37,0,0,1,1.55,5.12,4.38,4.38,0,0,1-3.29,2.94Z"/><path class="cls-2" d="M376.12,148a.67.67,0,0,1-.5-.23,4,4,0,0,0-4.49-.31.7.7,0,0,1-1-.1.68.68,0,0,1,.1-1c1.46-1.2,4.87-1.2,6.37.45a.67.67,0,0,1-.05,1A.67.67,0,0,1,376.12,148Z"/><path class="cls-2" d="M377.53,140.27A.69.69,0,0,1,377,140a7,7,0,0,0-5.53-2.76.69.69,0,0,1,0-1.38,8.45,8.45,0,0,1,6.62,3.31.69.69,0,0,1-.13,1A.7.7,0,0,1,377.53,140.27Z"/><path class="cls-1" d="M458.38,195.08h-.11a.67.67,0,0,1-.56-.79c0-.22.07-.45.1-.68a.7.7,0,0,1,.76-.59.69.69,0,0,1,.6.77c0,.24-.07.49-.11.73A.69.69,0,0,1,458.38,195.08Z"/><path class="cls-1" d="M442.36,211.06a.69.69,0,0,1-.12-1.36,20.18,20.18,0,0,0,14.15-11.24.68.68,0,0,1,.91-.33.7.7,0,0,1,.34.91,21.63,21.63,0,0,1-15.15,12Z"/><path class="cls-1" d="M414.71,178.6a.69.69,0,0,1-.25,0c-2.14-.84-2.75-3.39-3.34-5.87-.45-1.9-.92-3.86-2-5a15.21,15.21,0,0,0-5.45-3.33.69.69,0,0,1,.5-1.28,16.16,16.16,0,0,1,5.94,3.66c1.38,1.42,1.89,3.57,2.38,5.65s1,4.32,2.5,4.9a.68.68,0,0,1-.24,1.32Z"/><path class="cls-1" d="M373,117.27h-.05l-.31,0a.69.69,0,0,1,.09-1.38l.33,0a.69.69,0,0,1-.06,1.37Z"/><path class="cls-1" d="M358.13,135.52a.66.66,0,0,1-.59-.34c-1.43-2.49-1.25-6.69.45-10.46a14.64,14.64,0,0,1,10.4-8.57.68.68,0,1,1,.28,1.34,13.26,13.26,0,0,0-9.43,7.79c-1.5,3.34-1.72,7.13-.51,9.22a.68.68,0,0,1-.26.93A.67.67,0,0,1,358.13,135.52Z"/><path class="cls-4" d="M393,193.61c-4.76.64-8.74-1-8.25-8.48.79-12,13.25-19,21.29-22.4a5.39,5.39,0,0,1,7.44,4.41c33.63,23.36,42.39,55.61,42.39,88.78-21.93-21-59.87,23.27-92.37,12.12C363.49,241.73,379.86,216.66,393,193.61Z"/><path class="cls-2" d="M375,270.57a35.7,35.7,0,0,1-11.68-1.88.7.7,0,0,1-.47-.65c0-23.66,12.85-45.82,25.26-67.25,1.24-2.14,2.48-4.27,3.68-6.38a7.35,7.35,0,0,1-5.54-1.68c-1.65-1.55-2.37-4.12-2.14-7.65.82-12.48,13.95-19.76,21.71-23a6.07,6.07,0,0,1,8.34,4.65c28.95,20.22,42.44,48.56,42.44,89.17a.7.7,0,0,1-.42.63.68.68,0,0,1-.74-.14c-11.16-10.68-27-3.79-43.8,3.5C399.49,265.18,387.08,270.57,375,270.57Zm-10.77-3c15.09,4.93,31.25-2.09,46.87-8.88,16.65-7.24,32.41-14.1,44.12-4.29-.34-39.41-13.74-67-42.09-86.66a.69.69,0,0,1-.29-.5,4.67,4.67,0,0,0-2.27-3.55,4.72,4.72,0,0,0-4.22-.3c-7.47,3.11-20.1,10.07-20.87,21.81-.21,3.1.37,5.31,1.71,6.56s3.16,1.55,5.76,1.2a.69.69,0,0,1,.66.3.67.67,0,0,1,0,.72q-2.13,3.74-4.34,7.53C377,222.6,364.36,244.44,364.18,267.54Z"/><path class="cls-4" d="M410.91,172.13c-30.28,0-18,51-76.56,45.27a5.06,5.06,0,0,0-4.39,1.81c-6.44,7.88-7.36,16.62-5.34,23.51a10.75,10.75,0,0,0,4.51,6c23.44,14.92,68.95,8,88.8-11.7S426.71,193.18,410.91,172.13Z"/><path class="cls-2" d="M416.94,238.7a.7.7,0,0,1-.5-.22.68.68,0,0,1,0-1c.33-.31.66-.62,1-.94a.68.68,0,1,1,1,1c-.32.33-.66.65-1,1A.66.66,0,0,1,416.94,238.7Z"/><path class="cls-2" d="M362,257.48c-12.66,0-24.61-2.63-33.27-8.14a11.4,11.4,0,0,1-4.79-6.43c-2.41-8.16-.41-17,5.46-24.13a5.69,5.69,0,0,1,5-2.06c34,3.33,43.71-12.55,52.24-26.56,5.87-9.63,11.41-18.72,24.25-18.72a.69.69,0,1,1,0,1.37c-12.07,0-17.17,8.37-23.07,18.06-8.75,14.36-18.67,30.63-53.56,27.21a4.36,4.36,0,0,0-3.79,1.57c-5.58,6.82-7.48,15.16-5.21,22.88a10.07,10.07,0,0,0,4.22,5.65c21,13.36,61.81,9.41,84-8.12a.68.68,0,0,1,.85,1.07C400.89,251.76,380.69,257.48,362,257.48Z"/><path class="cls-4" d="M343.05,422.9c-4.24-4.57-8-4.24-6.35.14-4.89,2.23-8.66,5.57-9.9,10.95h30.71v-6.66a1.56,1.56,0,0,0-1.38-1.54C353.67,425.51,346.06,426.12,343.05,422.9Z"/><path class="cls-2" d="M357.51,434.68H326.8a.69.69,0,0,1,0-1.38h30.71a.69.69,0,0,1,0,1.38Z"/><path class="cls-2" d="M384.24,114.7c-11.39,11.11-1.67,30.72,11.73,33.06,4.92,9-1,12.82,2.11,19.85,2.1,4.8,8.34,3.38,12.61,7.47s-.22,11.1,7.7,13.07c9.7,2.41,13.31-4.24,24.29,6.32,6.31-14.16-9.38-28.66-9.38-28.66l-18.22-21.87L399,126.69Z"/><path class="cls-1" d="M399.87,143.51a7.64,7.64,0,1,1-10.47,2.69A7.64,7.64,0,0,1,399.87,143.51Z"/><path class="cls-1" d="M343.57,344.3a.7.7,0,0,1-.68-.55.69.69,0,0,1,.54-.81l7.87-1.58-14.16-13.73a.69.69,0,0,1,.79-1.11l18.3,9.16a.68.68,0,1,1-.61,1.22l-14.33-7.16,11.91,11.55a.68.68,0,0,1-.35,1.16l-9.15,1.83Z"/><path class="cls-1" d="M399.26,301.12h-.05c-11.58-.84-29.1-13.82-29.1-31.47a.69.69,0,0,1,.69-.68.68.68,0,0,1,.68.68c0,16.88,16.75,29.3,27.83,30.1a.69.69,0,0,1-.05,1.38Z"/><path class="cls-1" d="M342.16,312a.69.69,0,0,1-.35-1.28c.37-.22.78-.43,1.2-.63a.69.69,0,1,1,.59,1.24c-.39.18-.76.38-1.1.58A.72.72,0,0,1,342.16,312Z"/><path class="cls-1" d="M349.63,309.35a.69.69,0,0,1-.15-1.36c5.56-1.26,12.44-1.91,19.72-2.59,9.8-.92,19.94-1.87,27-4.44,16.69-6.09,22.34-21.36,15.5-41.9a.68.68,0,1,1,1.3-.43c7.11,21.34,1.16,37.24-16.33,43.62-7.22,2.63-17.44,3.59-27.33,4.52-7.23.68-14.07,1.32-19.54,2.56Z"/><path class="cls-1" d="M347,417.29a.7.7,0,0,1-.58-.32c-4.11-6.5-9.44-20.14-9.67-20.71a.69.69,0,0,1,1.28-.5c.05.14,5.51,14.08,9.55,20.47a.69.69,0,0,1-.21.95A.72.72,0,0,1,347,417.29Z"/><path class="cls-2" d="M362.28,203.7a.69.69,0,0,1-.67-.52l-2-8-7.39,7a.68.68,0,0,1-.83.08.69.69,0,0,1-.29-.8l4-12.13a.68.68,0,0,1,.86-.43.69.69,0,0,1,.44.87l-3.15,9.54,6.26-5.91a.69.69,0,0,1,1.14.33l2.28,9.15a.69.69,0,0,1-.5.84Z"/><path class="cls-2" d="M313.46,206.07a.66.66,0,0,1-.53-.25c-2.35-2.91,4.85-14.43,11.73-20.59a.69.69,0,0,1,.92,1c-7.29,6.51-12.94,17-11.59,18.7a.67.67,0,0,1-.1,1A.7.7,0,0,1,313.46,206.07Z"/><path class="cls-2" d="M329,183.54a.69.69,0,0,1-.35-1.28l.37-.21a.69.69,0,1,1,.68,1.19l-.35.2A.64.64,0,0,1,329,183.54Z"/><path class="cls-2" d="M336.12,253a.59.59,0,0,1-.23-.05c-3.49-1.27-3-15.48-.82-23.39a.68.68,0,0,1,1.32.36c-2.48,9.1-1.85,21.08,0,21.74a.69.69,0,0,1,.41.88A.71.71,0,0,1,336.12,253Z"/><path class="cls-2" d="M337.22,226.4a.68.68,0,0,1-.61-1c.12-.23.24-.45.37-.66a.68.68,0,0,1,.94-.24.69.69,0,0,1,.24.94,6.5,6.5,0,0,0-.32.59A.72.72,0,0,1,337.22,226.4Z"/><rect class="cls-1" x="385.39" y="346.12" width="29.51" height="14.1" transform="translate(800.28 706.34) rotate(180)"/><path class="cls-2" d="M414.89,360.91h-29.5a.69.69,0,0,1-.69-.69v-14.1a.69.69,0,0,1,.69-.69h29.5a.69.69,0,0,1,.69.69v14.1A.69.69,0,0,1,414.89,360.91Zm-28.82-1.38h28.14V346.81H386.07Z"/><path class="cls-1" d="M400.14,360.22h14.75c-10.94,4.19-11.79,13.2-11.79,62.44h-5.92c0-49.24-.85-58.25-11.79-62.44Z"/><path class="cls-2" d="M403.1,423.35h-5.92a.68.68,0,0,1-.68-.69c0-48.77-.84-57.78-11.36-61.8a.68.68,0,0,1-.43-.76.7.7,0,0,1,.68-.57h29.5a.69.69,0,0,1,.25,1.33c-10.52,4-11.36,13-11.36,61.8A.68.68,0,0,1,403.1,423.35ZM397.87,422h4.54c0-44.5.79-56.08,9.4-61.06H388.47C397.08,365.89,397.86,377.47,397.87,422Z"/><path class="cls-1" d="M397.18,422.66h5.92s8.24,7,24.65,11.33H372.53C388.94,429.62,397.18,422.66,397.18,422.66Z"/><path class="cls-2" d="M427.75,434.68H372.53a.69.69,0,0,1-.18-1.35c16-4.28,24.31-11.13,24.39-11.2a.7.7,0,0,1,.44-.16h5.92a.7.7,0,0,1,.44.16c.08.07,8.34,6.92,24.39,11.2a.69.69,0,0,1-.18,1.35ZM377.3,433.3H423c-12.25-3.94-18.9-9-20.13-9.95h-5.42C396.2,424.33,389.55,429.36,377.3,433.3Z"/><path class="cls-2" d="M455.57,354H414.89a.67.67,0,0,1-.68-.68.68.68,0,0,1,.68-.69h40.68a.68.68,0,0,1,.68.69A.67.67,0,0,1,455.57,354Z"/><path class="cls-1" d="M473.52,212.34H433.09c-14.86,0-27.3,11.8-27.49,26.66-.3,24.05,31.95,29.22,31.95,49,0,7.15-4.76,19.06-17.87,19.06-17.16,0-22.83-15-40.76-15a27,27,0,0,0,0,54.05h36A72.14,72.14,0,0,0,487,274V225.85A13.51,13.51,0,0,0,473.52,212.34Z"/><path class="cls-2" d="M414.89,346.81h-36a27.71,27.71,0,0,1,0-55.42c9.26,0,15.35,3.93,21.23,7.74s11.25,7.27,19.53,7.27c12.52,0,17.19-11.28,17.19-18.38,0-9.08-7.1-15-14.61-21.35-8.61-7.23-17.51-14.71-17.34-27.68.19-15.07,12.83-27.34,28.17-27.34h40.43a14.22,14.22,0,0,1,14.2,14.2V274A72.91,72.91,0,0,1,414.89,346.81Zm-36-54.05a26.34,26.34,0,1,0,0,52.67h36A71.53,71.53,0,0,0,486.34,274V225.85A12.84,12.84,0,0,0,473.52,213H433.09c-14.59,0-26.62,11.66-26.8,26-.16,12.32,8.49,19.58,16.85,26.61,7.76,6.52,15.1,12.69,15.1,22.4,0,7.64-5,19.75-18.56,19.75-8.69,0-14.58-3.81-20.28-7.49S387.78,292.76,378.92,292.76Z"/><path class="cls-2" d="M455.57,348.66c-2,0-13.91,1.31-18.7,3.14a.61.61,0,0,0-.39.57v1.87a.61.61,0,0,0,.39.58c4.79,1.83,16.66,3.14,18.7,3.14a4.65,4.65,0,1,0,0-9.3Z"/><path class="cls-2" d="M424.44,255.75a.66.66,0,0,1-.46-.17,54.81,54.81,0,0,1-4.23-4.13c-3.72-4.09-5.36-7.9-5.3-12.33a18.49,18.49,0,0,1,18.64-17.94.69.69,0,0,1,0,1.38c-9.4,0-17.15,7.43-17.27,16.57-.05,4.12,1.43,7.53,4.94,11.4a54.13,54.13,0,0,0,4.13,4,.68.68,0,0,1,.06,1A.67.67,0,0,1,424.44,255.75Z"/><path class="cls-2" d="M428.83,259.53a.66.66,0,0,1-.44-.16l-.82-.69a.69.69,0,0,1,.89-1.05l.81.69a.67.67,0,0,1,.08,1A.65.65,0,0,1,428.83,259.53Z"/><path class="cls-2" d="M441.87,272.68a.71.71,0,0,1-.57-.3l-.41-.58a.68.68,0,0,1,.16-.95.67.67,0,0,1,.95.15l.43.6a.68.68,0,0,1-.17.95A.65.65,0,0,1,441.87,272.68Z"/><path class="cls-2" d="M419.68,317.3a.68.68,0,0,1-.69-.68.69.69,0,0,1,.69-.69c18.43,0,26.72-16.32,26.72-27.91a25.55,25.55,0,0,0-2.3-10.72.69.69,0,0,1,1.26-.57A27.43,27.43,0,0,1,447.77,288C447.77,300.18,439.06,317.3,419.68,317.3Z"/><path class="cls-2" d="M363.25,312a.66.66,0,0,1-.3-.07.69.69,0,0,1-.31-.92,18.09,18.09,0,0,1,16.28-10.1A21.57,21.57,0,0,1,390,304a.69.69,0,0,1,.26.94.68.68,0,0,1-.93.26,20.27,20.27,0,0,0-10.37-2.94,16.74,16.74,0,0,0-15.05,9.34A.69.69,0,0,1,363.25,312Z"/><path class="cls-2" d="M361.43,319.78a.68.68,0,0,1-.69-.68c0-.52,0-1.05.07-1.56a.68.68,0,0,1,.74-.63.69.69,0,0,1,.63.74c0,.48-.06,1-.06,1.45A.68.68,0,0,1,361.43,319.78Z"/><polygon class="cls-1" points="170.63 254.61 170.63 433.99 174.11 433.99 179.44 277.73 179.44 250.59 170.63 254.61"/><path class="cls-2" d="M174.11,434.68h-3.48A.68.68,0,0,1,170,434V254.61a.67.67,0,0,1,.4-.62l8.8-4a.68.68,0,0,1,.66,0,.66.66,0,0,1,.31.57v27.15L174.79,434A.69.69,0,0,1,174.11,434.68Zm-2.79-1.38h2.12l5.31-155.59V251.65l-7.43,3.4Z"/><polygon class="cls-1" points="327.77 254.61 327.77 433.99 324.3 433.99 318.96 277.73 318.96 250.59 327.77 254.61"/><path class="cls-2" d="M327.77,434.68H324.3a.69.69,0,0,1-.69-.67l-5.33-156.25V250.58a.69.69,0,0,1,1-.62l8.81,4a.68.68,0,0,1,.4.62V434A.69.69,0,0,1,327.77,434.68ZM325,433.3h2.12V255.05l-7.43-3.4v26.08Z"/><rect class="cls-1" x="164.86" y="246.61" width="168.69" height="8"/><path class="cls-2" d="M333.55,255.3H164.86a.69.69,0,0,1-.69-.69v-8a.68.68,0,0,1,.69-.68H333.55a.67.67,0,0,1,.68.68v8A.68.68,0,0,1,333.55,255.3Zm-168-1.38H332.86V247.3H165.54Z"/><rect class="cls-1" x="179.44" y="254.61" width="139.53" height="19.9"/><path class="cls-2" d="M319,275.2H179.44a.69.69,0,0,1-.69-.69v-19.9a.69.69,0,0,1,.69-.69H319a.69.69,0,0,1,.68.69v19.9A.69.69,0,0,1,319,275.2Zm-138.85-1.37H318.28V255.3H180.12Z"/><path class="cls-2" d="M197.77,195.12a.7.7,0,0,1-.69-.71c.09-3.46-1-6.26-3.06-8.08a8.51,8.51,0,0,0-6.67-2,.68.68,0,1,1-.22-1.35,9.73,9.73,0,0,1,7.79,2.3c1.68,1.46,3.66,4.23,3.53,9.15A.69.69,0,0,1,197.77,195.12Z"/><path class="cls-2" d="M175.11,168.57a.61.61,0,0,1-.32-.08.69.69,0,0,1-.28-.93c4.42-8.18,6.32-17.92,5-25.4a.69.69,0,0,1,1.35-.25c1.42,7.78-.54,17.86-5.1,26.3A.69.69,0,0,1,175.11,168.57Z"/><path class="cls-2" d="M138.73,126.93a.66.66,0,0,1-.4-.13.69.69,0,0,1-.15-1c.34-.47.67-.94,1-1.42a.69.69,0,1,1,1.16.73c-.33.51-.67,1-1,1.5A.69.69,0,0,1,138.73,126.93Z"/><path class="cls-2" d="M142.41,119.77a.78.78,0,0,1-.21,0,.68.68,0,0,1-.44-.86c2.14-6.7,1.27-14.53-2.23-19.94a20.75,20.75,0,0,0-14.48-9.2.69.69,0,0,1,.17-1.37,22.17,22.17,0,0,1,15.46,9.83c3.71,5.74,4.65,14,2.38,21.1A.68.68,0,0,1,142.41,119.77Z"/><path class="cls-2" d="M117.68,90.55a.69.69,0,0,1-.24-1.33c.32-.12.64-.23,1-.33a.68.68,0,1,1,.4,1.31,9.18,9.18,0,0,0-.88.31A.69.69,0,0,1,117.68,90.55Z"/><path class="cls-2" d="M76.24,113.4a.69.69,0,0,1-.47-1.19c.24-.23.49-.45.74-.67a.67.67,0,0,1,1,.07.69.69,0,0,1-.06,1q-.36.3-.69.63A.75.75,0,0,1,76.24,113.4Z"/><path class="cls-2" d="M74.78,159.08a.71.71,0,0,1-.57-.3c-8.37-12.37-9.41-30.26-2.42-41.62a.69.69,0,1,1,1.17.72c-6.73,10.93-5.7,28.18,2.39,40.13a.69.69,0,0,1-.57,1.07Z"/><path class="cls-2" d="M218.13,357.23a.7.7,0,0,1-.69-.65C216,332.74,204.8,309,194.38,296.05a.7.7,0,0,1,.11-1,.67.67,0,0,1,1,.11c10.56,13.12,21.87,37.16,23.37,61.31a.69.69,0,0,1-.65.72Z"/><path class="cls-2" d="M190.55,291.46a.67.67,0,0,1-.48-.2c-.41-.4-.82-.78-1.22-1.13a.67.67,0,0,1-.06-1,.68.68,0,0,1,1-.06c.42.37.84.76,1.27,1.18a.69.69,0,0,1,0,1A.67.67,0,0,1,190.55,291.46Z"/><path class="cls-2" d="M304.39,224l-.15,0-8.93-2.06a.69.69,0,0,1,.31-1.34l8.92,2.06a.69.69,0,0,1-.15,1.36Z"/><path class="cls-2" d="M309,220.51a.67.67,0,0,1-.5-.21l-10.53-11.21a.69.69,0,1,1,1-.94l10.53,11.21a.69.69,0,0,1,0,1A.73.73,0,0,1,309,220.51Z"/><path class="cls-2" d="M289.75,165.6a.66.66,0,0,1-.44-.16.69.69,0,0,1-.09-1c3.46-4.15,13.3-5.4,17.44-5.3,1.8-4.76,6.13-7.88,10.69-7.64a.69.69,0,0,1-.07,1.37c-4.1-.22-8,2.74-9.49,7.2a.69.69,0,0,1-.7.46c-3.47-.21-13.57.89-16.82,4.79A.65.65,0,0,1,289.75,165.6Z"/><path class="cls-2" d="M359.73,105.61a.69.69,0,0,1-.25-1.33c.4-.15.8-.29,1.21-.42a.68.68,0,1,1,.43,1.3l-1.15.41A.67.67,0,0,1,359.73,105.61Z"/><path class="cls-2" d="M350.15,145a.66.66,0,0,1-.43-.16c-4.12-3.34-6.66-10.61-6.32-18.08.23-4.86,1.91-13.88,10.66-19.72a.68.68,0,0,1,.95.19.69.69,0,0,1-.19,1c-8.25,5.51-9.83,14-10.05,18.64-.32,7,2.07,13.92,5.81,17a.67.67,0,0,1,.1,1A.67.67,0,0,1,350.15,145Z"/><path class="cls-2" d="M457.09,168a.77.77,0,0,1-.39-.11q-.58-.4-1.2-.78a.69.69,0,0,1-.22-.95.68.68,0,0,1,.94-.22l1.25.8a.7.7,0,0,1,.19,1A.71.71,0,0,1,457.09,168Z"/><path class="cls-2" d="M467.3,207.47a.73.73,0,0,1-.35-.09.69.69,0,0,1-.24-.94c4.56-7.82,6.87-23.58-5.45-35a.69.69,0,0,1,0-1,.68.68,0,0,1,1,0c12.91,12,10.48,28.48,5.69,36.68A.66.66,0,0,1,467.3,207.47Z"/><path class="cls-2" d="M326.36,160.22a.68.68,0,0,1-.69-.68c0-1.52-.54-3.49-1.73-4.22a.69.69,0,1,1,.72-1.17c1.64,1,2.38,3.43,2.38,5.39A.67.67,0,0,1,326.36,160.22Z"/><path class="cls-2" d="M296.33,374.5a.68.68,0,0,1-.66-.49c-6.7-22.95-7.61-57.77,11.86-80.38a.69.69,0,0,1,1-.08.68.68,0,0,1,.07,1c-19.11,22.2-18.18,56.49-11.58,79.1a.67.67,0,0,1-.47.85A.58.58,0,0,1,296.33,374.5Z"/><path class="cls-2" d="M299.13,382.62a.69.69,0,0,1-.64-.43c-.17-.43-.35-.87-.52-1.32a.69.69,0,0,1,1.29-.48c.16.43.33.86.5,1.29a.67.67,0,0,1-.38.89A.56.56,0,0,1,299.13,382.62Z"/><path class="cls-2" d="M241.7,434.68H40.35a.69.69,0,0,1,0-1.38H241.7a.69.69,0,0,1,0,1.38Z"/><path class="cls-2" d="M469.13,434.68H298.9a.69.69,0,0,1,0-1.38H469.13a.69.69,0,0,1,0,1.38Z"/></svg>