<svg xmlns="http://www.w3.org/2000/svg" viewBox="0 0 250 250"><defs><style>.cls-1,.cls-2{fill:#f4e5da;}.cls-1{stroke:#f4e5da;stroke-miterlimit:10;}</style></defs><title>facebook</title><g id="Layer_3" data-name="Layer 3"><path class="cls-1" d="M125,230.53A100.5,100.5,0,1,1,225.5,130,100.61,100.61,0,0,1,125,230.53Zm0-200A99.5,99.5,0,1,0,224.5,130,99.62,99.62,0,0,0,125,30.53Z"/><path class="cls-2" d="M109.87,190H134V129.52H150.9l1.79-20.26H134V97.72c0-4.77,1-6.66,5.58-6.66h13.07V70H136c-18,0-26.09,7.92-26.09,23.08v16.15H97.31v20.52h12.56Z"/><circle class="cls-2" cx="125" cy="30.03" r="10.06"/></g></svg>