<svg id="Layer_1" data-name="Layer 1" xmlns="http://www.w3.org/2000/svg" viewBox="0 0 1200 481.13"><defs><style>.cls-1{fill:none;}.cls-2{fill:#f4e5da;}</style></defs><title>heroPage</title><path class="cls-1" d="M713.5,140.42l.66-.21L706,72.82l-5.82-48a6.92,6.92,0,0,1-4.76-2l-67.37,53,83,66.16A6.91,6.91,0,0,1,713.5,140.42Z"/><path class="cls-1" d="M211.43,276.4a6.88,6.88,0,0,1,.62-6l-26.15-21.3L151.24,360.6c.16.07.32.16.48.25l44.22-59L213.1,279A6.86,6.86,0,0,1,211.43,276.4Z"/><path class="cls-1" d="M214.39,157.14a8.45,8.45,0,0,1,1,.56L292,78.79a6.67,6.67,0,0,1-1.08-1.92,7,7,0,0,1-.41-2.08L240,70.25Z"/><path class="cls-1" d="M217.69,166.65A6.79,6.79,0,0,1,214,169.9a6.28,6.28,0,0,1-1.09.29l5.52,97a6.83,6.83,0,0,1,1.2.2l33.84-84.94Z"/><path class="cls-1" d="M-29.32-27.27a6.71,6.71,0,0,1,1.25,2.12A6.81,6.81,0,0,1-28-20.61l131.3,58.18a8.43,8.43,0,0,1,.55-.78L6.26-66.5Z"/><path class="cls-1" d="M64.63,144.63a6.85,6.85,0,0,1,4-.22l37.3-97.22a6.83,6.83,0,0,1-3.32-8L-28.79-19a6.84,6.84,0,0,1-1.74,1.82l94.83,162Z"/><path class="cls-1" d="M73.28,148.32l.18.42a7.46,7.46,0,0,1,.41,2.06l131,11.17a6.89,6.89,0,0,1,1.66-3.2L155.84,98.24Z"/><path class="cls-1" d="M111.53,47.61a6.88,6.88,0,0,1-4,.22L70.26,145.05a6.92,6.92,0,0,1,2.1,1.75l82.33-49.93L112.87,46.94A6.22,6.22,0,0,1,111.53,47.61Z"/><path class="cls-1" d="M60.14,150.39A7,7,0,0,1,62.39,146L16.66,79.28a6.19,6.19,0,0,1-1,.49,6.75,6.75,0,0,1-1.15.31l1.2,71.46Z"/><path class="cls-1" d="M475,54.43l53.43,27.95,25.31-53.21a6.87,6.87,0,0,1-4.33-3.71L475.53,50.89A6.78,6.78,0,0,1,475,54.43Z"/><path class="cls-1" d="M18.08,78.22l35.6,51.9L20.13,72.83A6.92,6.92,0,0,1,18.08,78.22Z"/><path class="cls-1" d="M149.55,360.05l34.87-112.14L71.72,156.1a6.79,6.79,0,0,1-1.5,1.07l76.6,202.91A6.79,6.79,0,0,1,149.55,360.05Z"/><path class="cls-1" d="M213.17,269.05a6.78,6.78,0,0,1,2.37-1.47,7.2,7.2,0,0,1,1.08-.29l-5.55-97a4.48,4.48,0,0,1-.64-.08l-24,77.08Z"/><path class="cls-1" d="M72.84,154.72,185,246.09l23.76-76.4a6.89,6.89,0,0,1-4-5.95l-131-11.18A6.9,6.9,0,0,1,72.84,154.72Z"/><path class="cls-1" d="M293.3,80,217,159.14a7,7,0,0,1,1.09,1.94,6.81,6.81,0,0,1,.23,3.91L254.1,180.8l40-100.28A6,6,0,0,1,293.3,80Z"/><path class="cls-1" d="M475.1,49.16l73.79-25.39a6.91,6.91,0,0,1,2-6.18L502.48-48.15,471.67,45.48A6.88,6.88,0,0,1,475.1,49.16Z"/><path class="cls-1" d="M860.77,56.08a6.73,6.73,0,0,1-.39-2.92L750.87,29.66,718.61,140.58a6.86,6.86,0,0,1,2.59,2L861,56.55A4.62,4.62,0,0,1,860.77,56.08Z"/><path class="cls-1" d="M114.23,45.81l42,50.13L199.3,69.81c-.06-.14-.13-.28-.18-.42a6.83,6.83,0,0,1-.35-3.27L115.53,43.77A7.08,7.08,0,0,1,114.23,45.81Z"/><path class="cls-1" d="M562.13,20.21c0,.08,0,.16.08.24l44.11-1.11,87.07-2.17A6.88,6.88,0,0,1,695,13.39L634-54.94,561.11,18.35A7,7,0,0,1,562.13,20.21Z"/><path class="cls-1" d="M208,73.5a7.08,7.08,0,0,1-.75.22l4.08,82.83a7.42,7.42,0,0,1,1.41.08l25.46-86.54-25.72-2.31A6.88,6.88,0,0,1,208,73.5Z"/><path class="cls-1" d="M263.71,5.41,295.13,68a6.88,6.88,0,0,1,8.74,4.14q.11.3.18.6l42-5.46,115.81-15a8.88,8.88,0,0,1,0-.89L266.63,2.24A6.84,6.84,0,0,1,263.71,5.41Z"/><path class="cls-1" d="M290.68,73a6.91,6.91,0,0,1,2.87-4.21L262.06,6.08a6.88,6.88,0,0,1-3.25,0l-18.35,62.4Z"/><path class="cls-1" d="M17,67.55-21.29,2.09,11.27,66.72A6.89,6.89,0,0,1,17,67.55Z"/><path class="cls-1" d="M25.59,229.72,61.16,160.5,20.71,215.39a6.89,6.89,0,0,1,.47,9.44Z"/><path class="cls-1" d="M710,143.33,626.62,76.91l-39.13,30.77a7.25,7.25,0,0,1,.63,1.28,7,7,0,0,1,.37,3.14l121,32.18A6.5,6.5,0,0,1,710,143.33Z"/><path class="cls-1" d="M144.79,360.86l.21-.61L68.57,157.8a6.86,6.86,0,0,1-3.92-.22L26.86,231.12l117.49,130A4.78,4.78,0,0,1,144.79,360.86Z"/><path class="cls-1" d="M11.6,215a6.76,6.76,0,0,1,3.34-1.48l-1-60.19-61,1.57a6.84,6.84,0,0,1-1.27,3.34Z"/><path class="cls-1" d="M345.65,223.17l-90.58-40L221.25,268a6.87,6.87,0,0,1,2.76,2.84l121.52-44.26A6.93,6.93,0,0,1,345.65,223.17Z"/><path class="cls-1" d="M295.69,81.18l-40,100.33,90.64,40a6.87,6.87,0,0,1,2.72-2.54L298.9,81.23A6.82,6.82,0,0,1,295.69,81.18Z"/><path class="cls-1" d="M706.71,15.53a6.88,6.88,0,0,1,.38,2.92l42.54,9.13,26-89.53a7.29,7.29,0,0,1-1.34-.67l-68.86,76A7,7,0,0,1,706.71,15.53Z"/><path class="cls-1" d="M552.33,16.55a6.75,6.75,0,0,1,1-.46,7,7,0,0,1,.87-.24L538.9-155.62a6.94,6.94,0,0,1-1-.13L503.16-50.21Z"/><path class="cls-1" d="M501.19-49.9l-7.7-10.45a6.25,6.25,0,0,1-1,.45,6.69,6.69,0,0,1-2.7.41L471.86,39.24Z"/><path class="cls-1" d="M105.13,35.57a7.51,7.51,0,0,1,1.68-.9L69.87-130.11a6.88,6.88,0,0,1-4.68-1.38L7.45-67.82Z"/><path class="cls-1" d="M48.94,413.5l54.92,50.66a6.78,6.78,0,0,1,2.06-1.19,6.86,6.86,0,0,1,3.74-.27L141.29,371Z"/><path class="cls-1" d="M965.43,62.69a6.78,6.78,0,0,1,2.7-1.81c.19-.07.39-.12.58-.18l-6-45.73-11.6-87.9a6.82,6.82,0,0,1-3-.67L894.26,12.3Z"/><path class="cls-1" d="M696.35,12.21a6.92,6.92,0,0,1,1.53-.79l.66-.21-13.41-112a6.93,6.93,0,0,1-4.12-1.41l-45.73,46Z"/><path class="cls-1" d="M864,47.68a6,6,0,0,1,.93-.42,6.85,6.85,0,0,1,5.23.21l21.75-34.69L783.38-64a3.88,3.88,0,0,1-.26.31Z"/><path class="cls-1" d="M1072.08,94.63l57.79-118.88a6.73,6.73,0,0,1-1-.83L1000.12,76.49l63.59,21.63a6.86,6.86,0,0,1,8.37-3.49Z"/><path class="cls-1" d="M202.54,60.86a7.17,7.17,0,0,1,.69-.3,6.93,6.93,0,0,1,4-.21L268.37-96.24a6.91,6.91,0,0,1-1.23-.85l-107,94.45Z"/><path class="cls-1" d="M694.32,21.41a7.39,7.39,0,0,1-.55-1.17,6.73,6.73,0,0,1-.34-1.3L562.54,22.21a6.43,6.43,0,0,1-.06,1.32l64.15,51.12Z"/><path class="cls-1" d="M207.91,157.63a7.29,7.29,0,0,1,1.34-.67l.27-.08-4.08-83a6.87,6.87,0,0,1-5.22-2.58l-42.84,26Z"/><path class="cls-1" d="M860.75,51.43a6.77,6.77,0,0,1,1.76-2.71L781.75-62.58a6.75,6.75,0,0,1-1.32.65,6.79,6.79,0,0,1-3,.38l-26,89.5Z"/><path class="cls-1" d="M702.59,24.36c-.22.08-.43.14-.65.2l5.71,47.14L715.92,140a6.59,6.59,0,0,1,1,.07L749.13,29.29l-42.4-9.1A6.89,6.89,0,0,1,702.59,24.36Z"/><path class="cls-1" d="M12.7,80.16a6.85,6.85,0,0,1-3.11-1l-58.47,70.41a6.82,6.82,0,0,1,1.42,2.33,6.05,6.05,0,0,1,.33,1.3l61-1.58Z"/><path class="cls-1" d="M562,25.37a7,7,0,0,1-1.14,1.77l20,77.35a6.89,6.89,0,0,1,5.58,1.82L625.2,75.77Z"/><path class="cls-1" d="M559.3,28.41A6.6,6.6,0,0,1,558,29a6.7,6.7,0,0,1-2.44.41L530,83.2l46.06,24.09a6.89,6.89,0,0,1,3-2.35Z"/><path class="cls-1" d="M972.85,60.89a6.87,6.87,0,0,1,3,2.21l98.8-58.95,52.65-31.41c0-.13-.11-.25-.16-.38a6.84,6.84,0,0,1-.35-3.3L1001.36-65.26Z"/><path class="cls-1" d="M143,362.33,26,232.81-26.8,335.56a6.86,6.86,0,0,1,2.56,3.31,6.73,6.73,0,0,1,.41,2.44L141.63,365A7,7,0,0,1,143,362.33Z"/><path class="cls-1" d="M871.61,48.42a6.82,6.82,0,0,1,2.1,2.95,7,7,0,0,1,.41,2.37l89.72,11.84a6.35,6.35,0,0,1,.57-1.44L893.31,13.8Z"/><path class="cls-1" d="M575.18,113.68a6.86,6.86,0,0,1,.05-4.83l-46-24L471.17,206.85a7.64,7.64,0,0,1,.79.58l103.93-92.35A6.82,6.82,0,0,1,575.18,113.68Z"/><path class="cls-1" d="M527.67,84,474.1,56a7,7,0,0,1-3,2.21,7.22,7.22,0,0,1-1.33.34l-.26,28.19-1.08,119.12a6.75,6.75,0,0,1,1.18.28Z"/><path class="cls-1" d="M60.52,153.46a6.73,6.73,0,0,1-.34-1.3L15.7,153.31l1,60.21a7.18,7.18,0,0,1,2.56.82l42.94-58.27A7,7,0,0,1,60.52,153.46Z"/><path class="cls-1" d="M102.66,465.46,47.2,414.3-2.94,437.39a6.88,6.88,0,0,1,.27,2.87L101.88,466.9A6.69,6.69,0,0,1,102.66,465.46Z"/><path class="cls-1" d="M747.3,264.82l-106-97.48-163.5,42.84,268.64,56.34A6.69,6.69,0,0,1,747.3,264.82Z"/><path class="cls-1" d="M-3.67,435.77,45.79,413l-72.08-66.5a6.92,6.92,0,0,1-2.06,1.2h0l18.32,84.87A6.89,6.89,0,0,1-3.67,435.77Z"/><path class="cls-1" d="M154.37,363.64a5.38,5.38,0,0,1,.36.81,6.83,6.83,0,0,1,.25.85l145.45-13.19L248.6,298.19Z"/><path class="cls-1" d="M461.59,209l-62.92-51.11L356.8,220a6.78,6.78,0,0,1,2.14,3.55l101.62-11A6.9,6.9,0,0,1,461.59,209Z"/><path class="cls-1" d="M347.15,229.74l-97.07,67.42,51.94,54,46.92-120.06A6.81,6.81,0,0,1,347.15,229.74Z"/><path class="cls-1" d="M150.62,373.27a6.87,6.87,0,0,1-7.56-2l-31.72,92a6.92,6.92,0,0,1,2.33,1.88l184.9-111.11-143.43,13A6.86,6.86,0,0,1,150.62,373.27Z"/><path class="cls-1" d="M212.06,64.68A6.92,6.92,0,0,1,212.4,66l26.26,2.35L257.15,5.5c-.22-.12-.44-.25-.65-.39L210.44,62.16A6.76,6.76,0,0,1,212.06,64.68Z"/><path class="cls-1" d="M267.14.54l195,49.08a6.85,6.85,0,0,1,4.2-4.4,6.76,6.76,0,0,1,2.71-.41l19-104.63a6.84,6.84,0,0,1-4.23-3.83L267.07-2.09A6.86,6.86,0,0,1,267.14.54Z"/><path class="cls-1" d="M540.66-155.79,555.94,15.68a6.89,6.89,0,0,1,3.91,1.42l73-73.37L543.06-156.82a7.38,7.38,0,0,1-1.53.79A7,7,0,0,1,540.66-155.79Z"/><path class="cls-1" d="M115.64,38.79a6.71,6.71,0,0,1,.35,3.27l83.24,22.35a7,7,0,0,1,1.83-2.56L158.78-1.46,114.87,37.29A7.08,7.08,0,0,1,115.64,38.79Z"/><path class="cls-1" d="M71.71-130.5l-.11,0L108.54,34.29A6.92,6.92,0,0,1,113.7,36L157.79-2.95,72.4-130.8A7.17,7.17,0,0,1,71.71-130.5Z"/><path class="cls-1" d="M208.9,61l.14.08L255.17,3.94a6.94,6.94,0,0,1-1.29-2.17A6.89,6.89,0,0,1,258-7.06a6.66,6.66,0,0,1,2.23-.41L270-95.59h0Z"/><path class="cls-1" d="M998.46,77.8,973.55,97.46a6.63,6.63,0,0,1,.56,1.17,7.25,7.25,0,0,1,.36,1.48l88.6.15a3.4,3.4,0,0,1,.08-.46Z"/><path class="cls-1" d="M1205.85,1.2l-46.62-19.52L1074.65,96.19q.19.18.36.36L1206.36,6.16a6.86,6.86,0,0,1-.35-.78A6.82,6.82,0,0,1,1205.85,1.2Z"/><path class="cls-1" d="M47.53,412.2l94.17-43.35a6.9,6.9,0,0,1-.32-2.14L-24.08,343.07a6.73,6.73,0,0,1-1,2.13Z"/><path class="cls-1" d="M224.74,273.36A6.87,6.87,0,0,1,214.52,280l-61.4,81.89a2.83,2.83,0,0,1,.24.25l94-65.29Z"/><path class="cls-1" d="M-50.25,148.41,8.22,78a6.91,6.91,0,0,1-1.43-2.33,7.46,7.46,0,0,1-.36-1.52l-50.66-.33-8.07,73.72A7,7,0,0,1-50.25,148.41Z"/><path class="cls-1" d="M24.73,231.4,19.86,226a7.19,7.19,0,0,1-1.56.81,6.92,6.92,0,0,1-4,.22L-23.88,326Z"/><polygon class="cls-1" points="346.13 228.29 225.95 272.06 248.84 295.87 346.13 228.29"/><path class="cls-1" d="M464.51,57.15A6.93,6.93,0,0,1,462.23,54a.06.06,0,0,1,0,0l-45.8,5.94L391,63.25,304.28,74.51a6.86,6.86,0,0,1-1,3.62l95,77.18Z"/><path class="cls-1" d="M302.14,79.51a7.06,7.06,0,0,1-1.57,1.11L350.75,218.4a6.86,6.86,0,0,1,4.58.57l41.95-62.18Z"/><path class="cls-1" d="M687.55-101.17q-.33.12-.66.21L700.3,11a6.93,6.93,0,0,1,3.86,1.22l68.82-76A6.78,6.78,0,0,1,771.6-66a6.88,6.88,0,0,1-.16-4.2l-80.3-33.92A6.8,6.8,0,0,1,687.55-101.17Z"/><path class="cls-1" d="M586.07,116.59a6.85,6.85,0,0,1-9-.16L473.13,208.76a6.82,6.82,0,0,1,.42.7l166.18-43.54Z"/><path class="cls-1" d="M9.65,67.44-32.5-16.22a6.62,6.62,0,0,1-1.9.31L-44,72l50.47.33A6.91,6.91,0,0,1,9.65,67.44Z"/><path class="cls-1" d="M465.09,206.16a6.94,6.94,0,0,1,1.53-.36l1.09-120.35L468,58.53a7.35,7.35,0,0,1-1.91-.49l-66.39,98.39,63,51.21A7,7,0,0,1,465.09,206.16Z"/><path class="cls-1" d="M1139.61-26.54a6.85,6.85,0,0,1-3.6,3,6.81,6.81,0,0,1-4.54.06L1074.9,92.88,1157.54-19Z"/><path class="cls-1" d="M953.46-73.34a4.89,4.89,0,0,1-.62.19l11.53,87.37,6.1,46.25c.22,0,.44,0,.65,0L999.65-65.73,957.49-77.26A6.84,6.84,0,0,1,953.46-73.34Z"/><path class="cls-1" d="M784.33-65.53l108.48,76.8,53.83-85.84a6.83,6.83,0,0,1-2-2.88,6.82,6.82,0,0,1-.3-1.16L785-68.1A7,7,0,0,1,784.33-65.53Z"/><path class="cls-1" d="M709,146l-121-32.17a6.91,6.91,0,0,1-.78,1.47l54.48,50.09L709,147.76A7,7,0,0,1,709,146Z"/><path class="cls-1" d="M1122.42-22.26,976.8,64.62c.05.13.11.25.16.38a7,7,0,0,1,.27,3.71l20.89,7.1Z"/><path class="cls-1" d="M750.09,262.52,717,153.67a6.87,6.87,0,0,1-7.51-4.2l-66.17,17.34,105.19,96.7A6.76,6.76,0,0,1,750.09,262.52Z"/><path class="cls-1" d="M861.89,58.06l-139.76,86c.07.15.14.3.2.46a6.9,6.9,0,0,1-3.64,8.63L751.78,262a6.79,6.79,0,0,1,3.56.34l107.91-203A6.87,6.87,0,0,1,861.89,58.06Z"/><path class="cls-1" d="M965.28,94.52a6.79,6.79,0,0,1,2.05-.41l1.7-20a6.88,6.88,0,0,1-5-4.37,6.54,6.54,0,0,1-.41-2.37L873.89,55.5c0,.11-.07.22-.1.33l88.05,41.45A6.91,6.91,0,0,1,965.28,94.52Z"/><path class="cls-1" d="M976.66,70.39a6.84,6.84,0,0,1-3.82,3.43,6.73,6.73,0,0,1-2.05.41l-1.69,20a6.83,6.83,0,0,1,3.35,1.8l24-18.95Z"/><path class="cls-2" d="M-180.61-277.52a6.88,6.88,0,0,0,6.53,4.53l21.54,156-.55.17A6.89,6.89,0,0,0-157.2-108a6.88,6.88,0,0,0,5.24,4.41l-8.45,168.93a7.33,7.33,0,0,0-1.81.39,6.9,6.9,0,0,0-4.12,8.83,6.9,6.9,0,0,0,8.83,4.11,6.77,6.77,0,0,0,2.5-1.59l95.14,73.69a6.88,6.88,0,0,0-.53,5.84,6.89,6.89,0,0,0,8.83,4.11,6.75,6.75,0,0,0,2-1.14l60,56.76a6.85,6.85,0,0,0,2.28,10.09L-29.08,334.54a6.8,6.8,0,0,0-4,.22,6.88,6.88,0,0,0-4.12,8.82,6.88,6.88,0,0,0,7.05,4.5L-11.81,433h0A6.89,6.89,0,0,0-16,441.79a6.88,6.88,0,0,0,8.82,4.11,6.86,6.86,0,0,0,4-3.92l104.55,26.63a7,7,0,0,0,.36,3.19,6.89,6.89,0,0,0,12.94-4.72l-.16-.39L302.19,354l.48.48.39-1,3.06-1.84-2.43.22,46.9-120a6.82,6.82,0,0,0,4-.21,6.89,6.89,0,0,0,4.53-6.33l101.62-11a6.88,6.88,0,0,0,13.43-3l271.88,57a6.88,6.88,0,1,0,13.33-1.82,6.79,6.79,0,0,0-2.48-3.26l107.91-203A6.85,6.85,0,0,0,873,57.43l88.06,41.45a6.88,6.88,0,1,0,13.37,3l88.6.14a7.25,7.25,0,0,0,.36,1.48,6.89,6.89,0,0,0,12.94-4.71A7,7,0,0,0,1076,98L1207.36,7.62a6.88,6.88,0,1,0,6.51-11.34l6.77-91.18a7,7,0,0,0,2.32-.41,6.89,6.89,0,0,0,4.35-8l92.58-24.84c0,.14.07.28.12.42a6.9,6.9,0,0,0,8.83,4.11,6.88,6.88,0,0,0,4.11-8.83,6.88,6.88,0,0,0-8.82-4.11,5.59,5.59,0,0,0-.61.26l-23.61-45.58a6.89,6.89,0,0,0,2.55-8,6.89,6.89,0,0,0-8.83-4.11,6.85,6.85,0,0,0-4.35,5l-116.16-10.66a6.52,6.52,0,0,0-.41-2.1,6.88,6.88,0,0,0-8.82-4.11,6.9,6.9,0,0,0-4.51,6L1139.9-197l-108.09,16.23a6.87,6.87,0,0,0-8.75-4,6.89,6.89,0,0,0-4.12,8.83,6.88,6.88,0,0,0,1.74,2.64L954.41-85.84a6.87,6.87,0,0,0-5.66-.44h0l-29.36-56.21L783.72-72.32a6.89,6.89,0,0,0-8-2.55,6.83,6.83,0,0,0-3.58,3l-80.3-33.93a6.85,6.85,0,0,0-.16-4.19,6.89,6.89,0,0,0-8.83-4.12,6.89,6.89,0,0,0-3.72,3.24L545.87-160.93a6.8,6.8,0,0,0-.23-3.93,6.88,6.88,0,0,0-8.82-4.11,6.88,6.88,0,0,0-4.12,8.82,6.89,6.89,0,0,0,2.58,3.32l-42.81,84a6.81,6.81,0,0,0-4.67,0,6.87,6.87,0,0,0-4.45,7.48L266.58-3.8l.24.85A6.88,6.88,0,0,0,262-7.28L271.8-95.4a7,7,0,0,0,2.23-.4,6.89,6.89,0,0,0,4.12-8.83,6.89,6.89,0,0,0-8.83-4.11,6.88,6.88,0,0,0-4.22,4.43L76.23-136.9a6.92,6.92,0,0,0-.4-2.43,6.91,6.91,0,0,0-6-4.51l-3.23-81a8.64,8.64,0,0,0,.83-.24,6.89,6.89,0,0,0,4.11-8.83A6.89,6.89,0,0,0,62.69-238a6.86,6.86,0,0,0-4,3.89L-167.27-279.4a6.92,6.92,0,0,0-.4-2.83,6.88,6.88,0,0,0-8.83-4.11A6.88,6.88,0,0,0-180.61-277.52Zm8.28,4.28.55-.16a7,7,0,0,0,3.08-2.26l151.82,89-128.33,72.13a6.92,6.92,0,0,0-5.58-2.76ZM63.07-139.77a6.83,6.83,0,0,0-.59,2.48L-144.06-112.1c-.06-.21-.12-.43-.2-.64l-.09-.22,129.24-72.65Zm205.3,43.53L207.25,60.35a6.93,6.93,0,0,0-4,.21,7.17,7.17,0,0,0-.69.3L160.12-2.64l107-94.45A6.91,6.91,0,0,0,268.37-96.24Zm998-58.92-41.92,47.67a6.87,6.87,0,0,0-6.2-.76h0l-47.3-86.11a7.15,7.15,0,0,0,1.25-1.55ZM1000.12,76.49,1128.85-25.08a6.73,6.73,0,0,0,1,.83L1072.08,94.63a6.86,6.86,0,0,0-8.37,3.49ZM105.92,463a6.78,6.78,0,0,0-2.06,1.19L48.94,413.5,141.29,371,109.66,462.7A6.86,6.86,0,0,0,105.92,463Zm-36-593.08L106.81,34.67a7.51,7.51,0,0,0-1.68.9L7.45-67.82l57.74-63.67A6.88,6.88,0,0,0,69.87-130.11ZM492.51-59.9a6.25,6.25,0,0,0,1-.45l7.7,10.45L471.86,39.24l17.95-98.73A6.69,6.69,0,0,0,492.51-59.9Zm46.39-95.72L554.18,15.85a7,7,0,0,0-.87.24,6.75,6.75,0,0,0-1,.46L503.16-50.21l34.72-105.54A6.94,6.94,0,0,0,538.9-155.62Zm146.23,54.86,13.41,112-.66.21a6.92,6.92,0,0,0-1.53.79L635.28-56.2l45.73-46A6.93,6.93,0,0,0,685.13-100.76ZM891.86,12.78,870.11,47.47a6.85,6.85,0,0,0-5.23-.21,6,6,0,0,0-.93.42L783.12-63.72a3.88,3.88,0,0,0,.26-.31Zm59.22-85.71L962.68,15l6,45.73c-.19.06-.39.11-.58.18a6.78,6.78,0,0,0-2.7,1.81L894.26,12.3l53.86-85.9A6.82,6.82,0,0,0,951.08-72.93Zm80.77-102.89,120.06,47.28-17.83,91.67a6.88,6.88,0,0,0-2.78.4,7.77,7.77,0,0,0-.92.42l-99.53-138A7,7,0,0,0,1031.85-175.82Zm136.75-17.13a8.13,8.13,0,0,0,.85-.38l47.19,85.92a6.84,6.84,0,0,0-1.74,1.78l-61-24,12.23-62.89A7,7,0,0,0,1168.6-192.95ZM1135.82-36.53l17.77-91.35L1214.1-104a6.76,6.76,0,0,0,0,4.61,6.72,6.72,0,0,0,.28.67l-76.09,63.7A7,7,0,0,0,1135.82-36.53Zm-8.64,8.89c0,.13.11.25.16.38L1074.69,4.15l-98.8,59a6.87,6.87,0,0,0-3-2.21l28.51-126.15,125.47,34.32A6.84,6.84,0,0,0,1127.18-27.64ZM964.41,64.14a6.35,6.35,0,0,0-.57,1.44L874.12,53.74a7,7,0,0,0-.41-2.37,6.82,6.82,0,0,0-2.1-2.95l21.7-34.62ZM471.17,206.85l58.08-122,46,24a6.79,6.79,0,0,0,.66,6.23L472,207.43A7.64,7.64,0,0,0,471.17,206.85Zm-1.7-120.16.26-28.19a7.22,7.22,0,0,0,1.33-.34,7,7,0,0,0,3-2.21l53.57,28-58.1,122.11a6.75,6.75,0,0,0-1.18-.28ZM-24.24,338.87a6.86,6.86,0,0,0-2.56-3.31L26,232.81,143,362.33a7,7,0,0,0-1.4,2.63L-23.83,341.31A6.73,6.73,0,0,0-24.24,338.87Zm-23.22-187a6.82,6.82,0,0,0-1.42-2.33L9.59,79.12a6.85,6.85,0,0,0,3.11,1l1.2,71.42-61,1.58A6.05,6.05,0,0,0-47.46,151.86ZM-28-100.1a6.67,6.67,0,0,0,1.69-.9L5-67.79-30.63-28.45a6.88,6.88,0,0,0-2.85-1.14l3.64-70.12A6.89,6.89,0,0,0-28-100.1Zm233.46,174,4.08,83-.27.08a7.29,7.29,0,0,0-1.34.67L157.38,97.31l42.84-26A6.87,6.87,0,0,0,205.44,73.91Zm575-135.84a6.75,6.75,0,0,0,1.32-.65l80.76,111.3a6.77,6.77,0,0,0-1.76,2.71L751.37,28l26-89.5A6.79,6.79,0,0,0,780.43-61.93Zm-63.52,202a6.59,6.59,0,0,0-1-.07L707.65,71.7l-5.71-47.14c.22-.06.43-.12.65-.2a6.89,6.89,0,0,0,4.14-4.17l42.4,9.1ZM530,83.2l25.57-53.76A6.7,6.7,0,0,0,558,29a6.6,6.6,0,0,0,1.28-.62l19.77,76.53a6.89,6.89,0,0,0-3,2.35Zm50.78,21.29-20-77.35A7,7,0,0,0,562,25.37l63.25,50.4-38.83,30.54A6.89,6.89,0,0,0,580.79,104.49Zm-18.31-81a6.43,6.43,0,0,0,.06-1.32l130.89-3.27a6.73,6.73,0,0,0,.34,1.3,7.39,7.39,0,0,0,.55,1.17L626.63,74.65Zm132.94-.73a6.92,6.92,0,0,0,4.76,2L706,72.82l8.16,67.39-.66.21a6.91,6.91,0,0,0-2.43,1.52l-83-66.16Zm-146,2.66a6.87,6.87,0,0,0,4.33,3.71L528.44,82.38,475,54.43a6.78,6.78,0,0,0,.52-3.54ZM16.72,213.52l-1-60.21,44.48-1.15a6.73,6.73,0,0,0,.34,1.3,7,7,0,0,0,1.7,2.61L19.28,214.34A7.18,7.18,0,0,0,16.72,213.52ZM15.62,79.77a6.19,6.19,0,0,0,1-.49L62.39,146a7,7,0,0,0-2.25,4.42l-44.47,1.15-1.2-71.46A6.75,6.75,0,0,0,15.62,79.77Zm2.46-1.55a6.92,6.92,0,0,0,2.05-5.39l33.55,57.29Zm193,92.07,5.55,97a7.2,7.2,0,0,0-1.08.29,6.78,6.78,0,0,0-2.37,1.47l-26.7-21.76,24-77.08A4.48,4.48,0,0,0,211.07,170.29Zm-5.93-4.5a6.86,6.86,0,0,0,3.6,3.9L185,246.09,72.84,154.72a6.9,6.9,0,0,0,.87-2.16l131,11.18A6.79,6.79,0,0,0,205.14,165.79ZM71.72,156.1l112.7,91.81L149.55,360.05a6.79,6.79,0,0,0-2.73,0L70.22,157.17A6.79,6.79,0,0,0,71.72,156.1Zm80,204.75c-.16-.09-.32-.18-.48-.25L185.9,249.12l26.15,21.3a6.85,6.85,0,0,0,1,8.55l-17.16,22.9Zm66.68-93.67-5.52-97a6.28,6.28,0,0,0,1.09-.29,6.79,6.79,0,0,0,3.72-3.25l35.75,15.79L219.6,267.38A6.83,6.83,0,0,0,218.4,267.18ZM218.31,165a6.81,6.81,0,0,0-.23-3.91,7,7,0,0,0-1.09-1.94L293.3,80a6,6,0,0,0,.75.48l-40,100.28Zm72.62-88.12A6.67,6.67,0,0,0,292,78.79l-76.6,78.91a8.45,8.45,0,0,0-1-.56L240,70.25l50.57,4.54A7,7,0,0,0,290.93,76.87Zm-84.38,81.9a6.89,6.89,0,0,0-1.66,3.2l-131-11.17a7.46,7.46,0,0,0-.41-2.06l-.18-.42,82.56-50.08Zm-134.19-12a6.92,6.92,0,0,0-2.1-1.75l37.29-97.22a6.88,6.88,0,0,0,4-.22,6.22,6.22,0,0,0,1.34-.67l41.82,49.93ZM103.29,37.57-28-20.61a6.81,6.81,0,0,0-.06-4.54,6.71,6.71,0,0,0-1.25-2.12L6.26-66.5,103.84,36.79A8.43,8.43,0,0,0,103.29,37.57ZM-28.79-19l131.37,58.2a6.83,6.83,0,0,0,3.32,8L68.6,144.41a6.85,6.85,0,0,0-4,.22l-.33.14-94.83-162A6.84,6.84,0,0,0-28.79-19ZM17,67.55a6.89,6.89,0,0,0-5.77-.83L-21.29,2.09Zm-64.13,87.38,61-1.57,1,60.19A6.76,6.76,0,0,0,11.6,215l-60-56.76A6.84,6.84,0,0,0-47.09,154.93ZM22.41,218a7,7,0,0,0-1.7-2.61L61.16,160.5,25.59,229.72l-4.41-4.89A6.9,6.9,0,0,0,22.41,218Zm42.24-60.42a6.86,6.86,0,0,0,3.92.22L145,360.25l-.21.61a4.78,4.78,0,0,0-.44.29l-117.49-130ZM224,270.88a6.87,6.87,0,0,0-2.76-2.84l33.82-84.88,90.58,40a6.93,6.93,0,0,0-.12,3.45Zm122.35-49.33-90.64-40,40-100.33a6.82,6.82,0,0,0,3.21,0L349.08,219A6.87,6.87,0,0,0,346.36,221.55ZM588.12,109a7.25,7.25,0,0,0-.63-1.28l39.13-30.77L710,143.33a6.5,6.5,0,0,0-.48.95l-121-32.18A7,7,0,0,0,588.12,109Zm130.49,31.62L750.87,29.66l109.51,23.5a6.73,6.73,0,0,0,.39,2.92,4.62,4.62,0,0,0,.19.47l-139.76,86A6.86,6.86,0,0,0,718.61,140.58ZM775.67-61.95l-26,89.53-42.54-9.13a6.88,6.88,0,0,0-.38-2.92,7,7,0,0,0-1.24-2.11l68.86-76A7.29,7.29,0,0,0,775.67-61.95ZM695,13.39a6.88,6.88,0,0,0-1.64,3.78l-87.07,2.17-44.11,1.11c0-.08-.05-.16-.08-.24a7,7,0,0,0-1-1.86L634-54.94ZM550.9,17.59a6.91,6.91,0,0,0-2,6.18L475.1,49.16a6.88,6.88,0,0,0-3.43-3.68l30.81-93.63ZM461.84,52.26,346,67.3l-42,5.46q-.07-.3-.18-.6A6.88,6.88,0,0,0,295.13,68L263.71,5.41a6.84,6.84,0,0,0,2.92-3.17L461.82,51.37A8.88,8.88,0,0,0,461.84,52.26ZM262.06,6.08l31.49,62.73A6.91,6.91,0,0,0,290.68,73l-50.22-4.5,18.35-62.4A6.88,6.88,0,0,0,262.06,6.08ZM212.69,156.63a7.42,7.42,0,0,0-1.41-.08L207.2,73.72a7.08,7.08,0,0,0,.75-.22,6.88,6.88,0,0,0,4.48-5.72l25.72,2.31ZM199.12,69.39c0,.14.12.28.18.42L156.23,95.94l-42-50.13a7.08,7.08,0,0,0,1.3-2l83.24,22.35A6.83,6.83,0,0,0,199.12,69.39ZM6.23-69.11-25-102.22a6.86,6.86,0,0,0,1.46-5.51L63-134.38a6.82,6.82,0,0,0,1,1.64Zm-30.35-40.31A6.88,6.88,0,0,0-32.73-113a6.89,6.89,0,0,0-4.44,5.37l-102-3.24L59.39-135.13Zm-119.82.13,106.72,3.39a6.74,6.74,0,0,0,.37,1.69,7,7,0,0,0,1.75,2.65l-36.19,50L-144.75-107A6.72,6.72,0,0,0-143.94-109.29Zm110.28,8.77a7,7,0,0,0,2,.72l-3.65,70.17a6.85,6.85,0,0,0-1.63.37,6.88,6.88,0,0,0-2.56,1.66L-69.87-50.54Zm-6.86,74.33A6.87,6.87,0,0,0-41-20.43a7.24,7.24,0,0,0,.5,1.05L-155,67.35l-.18-.18L-70.91-49.1Zm-112.88,96a6,6,0,0,0-.49-1.06L-39.44-18a6.92,6.92,0,0,0,3.28,1.86L-45.82,72-153,71.33A6.26,6.26,0,0,0-153.4,69.82Zm119-85.73a6.62,6.62,0,0,0,1.9-.31L9.65,67.44a6.91,6.91,0,0,0-3.21,4.93L-44,72ZM6.43,74.14a7.46,7.46,0,0,0,.36,1.52A6.91,6.91,0,0,0,8.22,78l-58.47,70.42a7,7,0,0,0-2-.88l8.07-73.72ZM18.3,226.83a7.19,7.19,0,0,0,1.56-.81l4.87,5.38L-23.88,326l38.19-98.95A6.92,6.92,0,0,0,18.3,226.83ZM-24.08,343.07l165.46,23.64a6.9,6.9,0,0,0,.32,2.14L47.53,412.2l-72.62-67A6.73,6.73,0,0,0-24.08,343.07Zm177.2,18.86L214.52,280a6.87,6.87,0,0,0,10.22-6.68l22.62,23.53-94,65.29A2.83,2.83,0,0,0,153.12,361.93ZM226,272.06l120.18-43.77-97.29,67.58Zm124.8-53.66L300.57,80.62a7.06,7.06,0,0,0,1.57-1.11l95.14,77.28L355.33,219A6.86,6.86,0,0,0,350.75,218.4ZM303.25,78.13a6.86,6.86,0,0,0,1-3.62L391,63.25l25.46-3.31L462.22,54a.06.06,0,0,0,0,0,6.93,6.93,0,0,0,2.28,3.11l-66.23,98.16ZM466.05,58a7.35,7.35,0,0,0,1.91.49l-.25,26.92L466.62,205.8a6.94,6.94,0,0,0-1.53.36,7,7,0,0,0-2.39,1.48l-63-51.21Zm7.08,150.72L577,116.43a6.85,6.85,0,0,0,9,.16l53.66,49.33L473.55,209.46A6.82,6.82,0,0,0,473.13,208.76Zm114.15-93.47a6.91,6.91,0,0,0,.78-1.47L709,146a7,7,0,0,0,0,1.77l-67.27,17.62Zm122.2,34.18a6.87,6.87,0,0,0,7.51,4.2l33.1,108.85a6.76,6.76,0,0,0-1.59,1l-105.19-96.7ZM751.78,262,718.69,153.16a6.9,6.9,0,0,0,3.64-8.63c-.06-.16-.13-.31-.2-.46l139.76-86a6.87,6.87,0,0,0,1.36,1.28l-107.91,203A6.79,6.79,0,0,0,751.78,262ZM873.89,55.5l89.72,11.84a6.54,6.54,0,0,0,.41,2.37,6.88,6.88,0,0,0,5,4.37l-1.7,20a6.79,6.79,0,0,0-2.05.41,6.91,6.91,0,0,0-3.44,2.76L873.79,55.83C873.82,55.72,873.86,55.61,873.89,55.5ZM969.1,94.27l1.69-20a6.73,6.73,0,0,0,2.05-.41,6.84,6.84,0,0,0,3.82-3.43l19.8,6.73-24,18.95A6.83,6.83,0,0,0,969.1,94.27Zm8.13-25.56A7,7,0,0,0,977,65c-.05-.13-.11-.25-.16-.38l145.62-86.88L998.12,75.81Zm154.24-92.18a6.81,6.81,0,0,0,4.54-.06,6.85,6.85,0,0,0,3.6-3L1157.54-19,1074.9,92.88Zm8.82-4.71a6.86,6.86,0,0,0-.17-4.17,6.3,6.3,0,0,0-.67-1.35l75.75-63.4-56.57,76.6Zm19.2-169.95a7.35,7.35,0,0,0,.28,1.07,6.87,6.87,0,0,0,4.63,4.27l-12.15,62.48-120-47.26a7.13,7.13,0,0,0,0-1.46l29.89-4.49Zm-131.72,26.35a6.72,6.72,0,0,0,1.81-1L1128.94-35a6.89,6.89,0,0,0-1.63,2.37L1001.75-67l23.59-104.38A6.64,6.64,0,0,0,1027.77-171.78ZM971.12,60.5c-.21,0-.43,0-.65,0l-6.1-46.25L952.84-73.15a4.89,4.89,0,0,0,.62-.19,6.84,6.84,0,0,0,4-3.92l42.16,11.53ZM944.63-77.45a6.83,6.83,0,0,0,2,2.88L892.81,11.27,784.33-65.53A7,7,0,0,0,785-68.1L944.33-78.61A6.82,6.82,0,0,0,944.63-77.45ZM771.6-66A6.78,6.78,0,0,0,773-63.77l-68.82,76A6.93,6.93,0,0,0,700.3,11L686.89-101q.33-.09.66-.21a6.8,6.8,0,0,0,3.59-3l80.3,33.92A6.88,6.88,0,0,0,771.6-66Zm-92.87-39.24a7,7,0,0,0,1,1.86L634.09-57.53,544.38-158a6.81,6.81,0,0,0,.87-1.27L678.5-109.21A6.8,6.8,0,0,0,678.73-105.28Zm-45.89,49-73,73.37a6.89,6.89,0,0,0-3.91-1.42L540.66-155.79a7,7,0,0,0,.87-.24,7.38,7.38,0,0,0,1.53-.79ZM501.87-52l-6.95-9.44a6.89,6.89,0,0,0,1.71-7.33A6.85,6.85,0,0,0,494.05-72l40.68-79.8Zm-13.8-7.86-19,104.63a6.76,6.76,0,0,0-2.71.41,6.85,6.85,0,0,0-4.2,4.4L267.14.54a6.86,6.86,0,0,0-.07-2.63L483.84-63.65A6.84,6.84,0,0,0,488.07-59.82ZM257.15,5.5,238.66,68.35,212.4,66a6.92,6.92,0,0,0-.34-1.32,6.76,6.76,0,0,0-1.62-2.52l46.06-57C256.71,5.25,256.93,5.38,257.15,5.5ZM201.06,61.85a7,7,0,0,0-1.83,2.56L116,42.06a6.71,6.71,0,0,0-.35-3.27,7.08,7.08,0,0,0-.77-1.5L158.78-1.46ZM113.7,36a6.92,6.92,0,0,0-5.16-1.67L71.6-130.47l.11,0a7.17,7.17,0,0,0,.69-.3L157.79-2.95ZM-150.19-103.53a6.89,6.89,0,0,0,1.82-.39,6.74,6.74,0,0,0,2.55-1.65l73.49,55.4-84.25,116.3a7.13,7.13,0,0,0-2.06-.73Zm-3.73,179.18A7.1,7.1,0,0,0-153,73.1l107,.7-8.06,73.54a6.9,6.9,0,0,0-2.21.41,6.82,6.82,0,0,0-2.5,1.59ZM-28.4,347.71h0a6.92,6.92,0,0,0,2.06-1.2L45.79,413-3.67,435.77a6.89,6.89,0,0,0-6.41-3.19Zm25.73,92.55a6.88,6.88,0,0,0-.27-2.87L47.2,414.3l55.46,51.16a6.69,6.69,0,0,0-.78,1.44Zm116.34,24.9a6.92,6.92,0,0,0-2.33-1.88l31.72-92a6.88,6.88,0,0,0,12.08-4.23l143.43-13ZM155,365.3a6.83,6.83,0,0,0-.25-.85,5.38,5.38,0,0,0-.36-.81l94.23-65.45,51.83,53.92Zm95.1-68.14,97.07-67.42a6.81,6.81,0,0,0,1.79,1.41L302,351.21ZM358.94,223.5A6.78,6.78,0,0,0,356.8,220l41.87-62L461.59,209a6.9,6.9,0,0,0-1,3.47Zm118.84-13.32,163.5-42.84,106,97.48a6.69,6.69,0,0,0-.88,1.7ZM974.47,100.11a7.25,7.25,0,0,0-.36-1.48,6.63,6.63,0,0,0-.56-1.17L998.46,77.8l64.69,22a3.4,3.4,0,0,0-.08.46ZM1075,96.55q-.16-.18-.36-.36l84.58-114.51L1205.85,1.2a6.82,6.82,0,0,0,.16,4.18,6.86,6.86,0,0,0,.35.78ZM1212.1-3.85a6.52,6.52,0,0,0-2,.4,6.87,6.87,0,0,0-3.6,3l-46.22-19.36,56.37-76.34a6.67,6.67,0,0,0,2.2,1Zm15-100.28h0a6.72,6.72,0,0,0-1.3-2.18l42.3-48.1L1319.88-132a7.18,7.18,0,0,0-.28,2.12L1226.84-105Zm93.52-29.5-51.29-22.19,22.85-26a6.88,6.88,0,0,0,6.19.76L1322-135.31A7.16,7.16,0,0,0,1320.59-133.63Zm-31.48-53.62a7,7,0,0,0,.41,2.09,6.88,6.88,0,0,0,1.3,2.19l-23.23,26.41-94.73-41c0-.12.07-.25.1-.38Zm-267,15a7.82,7.82,0,0,0,1.47.6L1000-67.46,957.93-79a6.72,6.72,0,0,0-.36-3.18,6.71,6.71,0,0,0-1.73-2.63Zm-103.5,32.12,28.55,54.65a6.87,6.87,0,0,0-2.91,5.06L784.79-69.86a5.61,5.61,0,0,0-.25-.89ZM260.23-7.47a6.66,6.66,0,0,0-2.23.41,6.89,6.89,0,0,0-4.12,8.83,6.94,6.94,0,0,0,1.29,2.17L209,61.08,208.9,61,270-95.59h0Zm4.57-95.09a6.75,6.75,0,0,0,.41,2.64,6.74,6.74,0,0,0,.76,1.49L159.13-4.13,73.88-131.78A7,7,0,0,0,76-135.14ZM68-143.72a7.61,7.61,0,0,0-1,.28,6.82,6.82,0,0,0-3,2.16l-77.32-45.33,72.79-40.92a6.91,6.91,0,0,0,5.34,2.85Zm-9.82-88.7a6.84,6.84,0,0,0,.36,3.21.61.61,0,0,0,.05.12l-73.72,41.44-152.72-89.54c.07-.16.13-.31.19-.47Z"/></svg>