<svg xmlns="http://www.w3.org/2000/svg" viewBox="0 0 250 250"><defs><style>.cls-1,.cls-2{fill:#f4e5da;}.cls-1{stroke:#f4e5da;stroke-miterlimit:10;}</style></defs><title>instra</title><g id="Layer_3" data-name="Layer 3"><path class="cls-1" d="M125,230.53A100.5,100.5,0,1,1,225.5,130,100.61,100.61,0,0,1,125,230.53Zm0-200A99.5,99.5,0,1,0,224.5,130,99.62,99.62,0,0,0,125,30.53Z"/><path class="cls-2" d="M125,80.84c16,0,17.92.06,24.25.35a33.38,33.38,0,0,1,11.14,2.07,19.85,19.85,0,0,1,11.38,11.38,33.13,33.13,0,0,1,2.07,11.15c.29,6.32.35,8.22.35,24.24s-.06,17.92-.35,24.25a33.06,33.06,0,0,1-2.07,11.14,19.83,19.83,0,0,1-11.38,11.39,33.19,33.19,0,0,1-11.14,2.06c-6.33.29-8.23.35-24.25.35s-17.92-.06-24.25-.35a33.19,33.19,0,0,1-11.14-2.06,19.83,19.83,0,0,1-11.38-11.39,33.32,33.32,0,0,1-2.07-11.14c-.29-6.33-.35-8.23-.35-24.25s.06-17.92.35-24.24a33.4,33.4,0,0,1,2.07-11.15A19.85,19.85,0,0,1,89.61,83.26a33.38,33.38,0,0,1,11.14-2.07c6.33-.29,8.23-.35,24.25-.35M125,70c-16.3,0-18.34.07-24.74.36A44.05,44.05,0,0,0,85.7,73.18,30.66,30.66,0,0,0,68.15,90.73a44.11,44.11,0,0,0-2.79,14.56c-.29,6.4-.36,8.45-.36,24.74s.07,18.34.36,24.74a44.12,44.12,0,0,0,2.79,14.57A30.68,30.68,0,0,0,85.7,186.88a43.8,43.8,0,0,0,14.56,2.79c6.4.29,8.44.36,24.74.36s18.34-.07,24.74-.36a43.8,43.8,0,0,0,14.56-2.79,30.68,30.68,0,0,0,17.55-17.54,44.12,44.12,0,0,0,2.79-14.57c.29-6.4.36-8.44.36-24.74s-.07-18.34-.36-24.74a44.11,44.11,0,0,0-2.79-14.56A30.66,30.66,0,0,0,164.3,73.18a44.05,44.05,0,0,0-14.56-2.79C143.34,70.1,141.3,70,125,70"/><path class="cls-2" d="M125,99.22A30.81,30.81,0,1,0,155.81,130,30.81,30.81,0,0,0,125,99.22M125,150a20,20,0,1,1,20-20,20,20,0,0,1-20,20"/><path class="cls-2" d="M164.23,98a7.2,7.2,0,1,1-7.2-7.2,7.2,7.2,0,0,1,7.2,7.2"/><circle class="cls-2" cx="125" cy="30.03" r="10.06"/></g></svg>