<svg id="Layer_1" data-name="Layer 1" xmlns="http://www.w3.org/2000/svg" viewBox="0 0 250 250"><defs><style>.cls-1{fill:#3567b1;}</style></defs><title>insta</title><path class="cls-1" d="M125.3,246.55a122,122,0,1,1,122-122A122.13,122.13,0,0,1,125.3,246.55Zm0-240a118,118,0,1,0,118,118A118.13,118.13,0,0,0,125.3,6.55Z"/><path class="cls-1" d="M125.3,76.72c15.57,0,17.42.06,23.57.34a32.19,32.19,0,0,1,10.83,2,19.27,19.27,0,0,1,11.07,11.07,32.32,32.32,0,0,1,2,10.84c.28,6.15.34,8,.34,23.57s-.06,17.42-.34,23.57a32.32,32.32,0,0,1-2,10.84A19.27,19.27,0,0,1,159.7,170a32.19,32.19,0,0,1-10.83,2c-6.15.28-8,.34-23.57.34s-17.43-.06-23.58-.34a32.19,32.19,0,0,1-10.83-2A19.27,19.27,0,0,1,79.82,159a32.32,32.32,0,0,1-2-10.84c-.28-6.15-.34-8-.34-23.57s.06-17.42.34-23.57a32.32,32.32,0,0,1,2-10.84A19.27,19.27,0,0,1,90.89,79.07a32.19,32.19,0,0,1,10.83-2c6.15-.28,8-.34,23.58-.34m0-10.51c-15.85,0-17.84.07-24.06.35a42.78,42.78,0,0,0-14.16,2.71A29.83,29.83,0,0,0,70,86.34a42.78,42.78,0,0,0-2.71,14.16c-.29,6.22-.35,8.21-.35,24s.06,17.83.35,24A42.9,42.9,0,0,0,70,162.77a29.86,29.86,0,0,0,17.06,17.06,42.78,42.78,0,0,0,14.16,2.71c6.22.28,8.21.35,24.06.35s17.83-.07,24-.35a42.78,42.78,0,0,0,14.16-2.71,29.86,29.86,0,0,0,17.06-17.06,42.9,42.9,0,0,0,2.71-14.17c.29-6.22.35-8.21.35-24s-.06-17.83-.35-24a42.78,42.78,0,0,0-2.71-14.16,29.83,29.83,0,0,0-17.06-17.07,42.78,42.78,0,0,0-14.16-2.71c-6.22-.28-8.21-.35-24-.35"/><path class="cls-1" d="M125.3,94.59a30,30,0,1,0,30,30,30,30,0,0,0-29.95-30m0,49.41a19.45,19.45,0,1,1,19.44-19.45A19.45,19.45,0,0,1,125.3,144"/><path class="cls-1" d="M163.44,93.41a7,7,0,1,1-7-7,7,7,0,0,1,7,7"/></svg>