<svg id="Layer_1" data-name="Layer 1" xmlns="http://www.w3.org/2000/svg" viewBox="0 0 1200 800.48"><defs><style>.cls-1{fill:none;}.cls-2{fill:#f4e5da;}</style></defs><title>landing</title><path class="cls-1" d="M713.5,433.33c.22-.08.44-.14.66-.2L706,365.74l-5.82-48.06a6.87,6.87,0,0,1-4.76-2l-67.37,53,83,66.16A6.93,6.93,0,0,1,713.5,433.33Z"/><path class="cls-1" d="M211.43,569.32a6.88,6.88,0,0,1,.62-6L185.9,542,151.24,653.51l.48.25,44.22-59,17.16-22.89A6.86,6.86,0,0,1,211.43,569.32Z"/><path class="cls-1" d="M214.39,450.06a6.37,6.37,0,0,1,1,.56L292,371.71a6.81,6.81,0,0,1-1.08-1.92,7,7,0,0,1-.41-2.09L240,363.17Z"/><path class="cls-1" d="M217.69,459.57a6.87,6.87,0,0,1-3.72,3.25,7.32,7.32,0,0,1-1.09.29l5.52,97a6.82,6.82,0,0,1,1.2.19l33.84-84.93Z"/><path class="cls-1" d="M-29.32,265.65a6.71,6.71,0,0,1,1.25,2.12,6.81,6.81,0,0,1,.06,4.54l131.3,58.17a8.29,8.29,0,0,1,.55-.77L6.26,226.42Z"/><path class="cls-1" d="M64.63,437.55a6.85,6.85,0,0,1,4-.22l37.3-97.22a6.83,6.83,0,0,1-3.32-8L-28.79,273.9a6.84,6.84,0,0,1-1.74,1.82l94.83,162Z"/><path class="cls-1" d="M73.28,441.24l.18.42a7.46,7.46,0,0,1,.41,2.06l131,11.17a6.89,6.89,0,0,1,1.66-3.2l-50.71-60.53Z"/><path class="cls-1" d="M111.53,340.53a6.88,6.88,0,0,1-4,.22L70.26,438a6.78,6.78,0,0,1,2.1,1.75l82.33-49.94-41.82-49.92A6.71,6.71,0,0,1,111.53,340.53Z"/><path class="cls-1" d="M60.14,443.31a6.92,6.92,0,0,1,2.25-4.42L16.66,372.2a6.19,6.19,0,0,1-1,.49,6.71,6.71,0,0,1-1.15.3l1.2,71.46Z"/><path class="cls-1" d="M475,347.35l53.43,27.94,25.31-53.2a6.89,6.89,0,0,1-4.33-3.71L475.53,343.8A6.8,6.8,0,0,1,475,347.35Z"/><path class="cls-1" d="M18.08,371.13,53.68,423,20.13,365.75A6.88,6.88,0,0,1,18.08,371.13Z"/><path class="cls-1" d="M149.55,653l34.87-112.13L71.72,449a7.14,7.14,0,0,1-1.5,1.07L146.82,653A7,7,0,0,1,149.55,653Z"/><path class="cls-1" d="M213.17,562a7.08,7.08,0,0,1,2.37-1.47,7.2,7.2,0,0,1,1.08-.29l-5.55-97c-.22,0-.43,0-.64-.08l-24,77.08Z"/><path class="cls-1" d="M72.84,447.64,185,539l23.76-76.4a6.88,6.88,0,0,1-4-6l-131-11.17A6.9,6.9,0,0,1,72.84,447.64Z"/><path class="cls-1" d="M293.3,373,217,452.05a7,7,0,0,1,1.09,1.94,6.85,6.85,0,0,1,.23,3.92l35.79,15.8,40-100.27A6,6,0,0,1,293.3,373Z"/><path class="cls-1" d="M475.1,342.08l73.79-25.4a6.9,6.9,0,0,1,2-6.17l-48.42-65.74L471.67,338.4A6.81,6.81,0,0,1,475.1,342.08Z"/><path class="cls-1" d="M860.77,349a6.76,6.76,0,0,1-.39-2.93L750.87,322.58,718.61,433.5a6.94,6.94,0,0,1,2.59,2l139.76-86A3.71,3.71,0,0,1,860.77,349Z"/><path class="cls-1" d="M114.23,338.72l42,50.13,43.07-26.12c-.06-.14-.13-.28-.18-.42a6.85,6.85,0,0,1-.35-3.27l-83.24-22.36A7,7,0,0,1,114.23,338.72Z"/><path class="cls-1" d="M562.13,313.12c0,.08,0,.16.08.24l44.11-1.1,87.07-2.17A6.91,6.91,0,0,1,695,306.3L634,238l-72.91,73.28A7,7,0,0,1,562.13,313.12Z"/><path class="cls-1" d="M208,366.42a7.08,7.08,0,0,1-.75.22l4.08,82.83a7.42,7.42,0,0,1,1.41.08L238.15,363l-25.72-2.31A6.89,6.89,0,0,1,208,366.42Z"/><path class="cls-1" d="M263.71,298.33l31.42,62.6a6.89,6.89,0,0,1,8.74,4.14q.11.3.18.6l42-5.45,115.81-15.05a8.81,8.81,0,0,1,0-.89L266.63,295.16A6.88,6.88,0,0,1,263.71,298.33Z"/><path class="cls-1" d="M290.68,365.94a6.91,6.91,0,0,1,2.87-4.21L262.06,299a6.88,6.88,0,0,1-3.25,0l-18.35,62.39Z"/><path class="cls-1" d="M17,360.47-21.29,295l32.56,64.63A6.89,6.89,0,0,1,17,360.47Z"/><path class="cls-1" d="M25.59,522.63l35.57-69.21L20.71,508.31a6.89,6.89,0,0,1,.47,9.44Z"/><path class="cls-1" d="M710,436.24l-83.35-66.41-39.13,30.76a6.87,6.87,0,0,1,1,4.43l121,32.17A7.69,7.69,0,0,1,710,436.24Z"/><path class="cls-1" d="M144.79,653.78l.21-.61L68.57,450.72a7,7,0,0,1-3.92-.22L26.86,524l117.49,130C144.49,654,144.63,653.87,144.79,653.78Z"/><path class="cls-1" d="M11.6,507.94a6.82,6.82,0,0,1,2-1.13,6.71,6.71,0,0,1,1.35-.35l-1-60.19-61,1.58a6.84,6.84,0,0,1-1.27,3.34Z"/><path class="cls-1" d="M345.65,516.09l-90.58-40L221.25,561A7,7,0,0,1,224,563.8l121.52-44.26A6.93,6.93,0,0,1,345.65,516.09Z"/><path class="cls-1" d="M295.69,374.1l-40,100.33,90.64,40a6.8,6.8,0,0,1,2.72-2.54L298.9,374.14A6.82,6.82,0,0,1,295.69,374.1Z"/><path class="cls-1" d="M706.71,308.45a6.86,6.86,0,0,1,.38,2.92l42.54,9.13,26-89.53a7.33,7.33,0,0,1-1.34-.68l-68.86,76A6.83,6.83,0,0,1,706.71,308.45Z"/><path class="cls-1" d="M552.33,309.46a6.7,6.7,0,0,1,1-.45,7.11,7.11,0,0,1,.87-.25L538.9,137.29a6.93,6.93,0,0,1-1-.12L503.16,242.71Z"/><path class="cls-1" d="M501.19,243l-7.7-10.45a7.32,7.32,0,0,1-1,.45,7.05,7.05,0,0,1-2.7.41l-17.95,98.73Z"/><path class="cls-1" d="M105.13,328.49a7.13,7.13,0,0,1,1.68-.9L69.87,162.81a6.88,6.88,0,0,1-4.68-1.38L7.45,225.1Z"/><path class="cls-1" d="M48.94,706.42l54.92,50.66a6.85,6.85,0,0,1,5.8-1.46l31.63-91.72Z"/><path class="cls-1" d="M965.43,355.6a6.86,6.86,0,0,1,2.7-1.8c.19-.07.39-.13.58-.18l-6-45.73L951.08,220a6.83,6.83,0,0,1-3-.68l-53.86,85.91Z"/><path class="cls-1" d="M696.35,305.13a7.41,7.41,0,0,1,1.53-.8c.22-.08.44-.14.66-.2l-13.41-112a6.94,6.94,0,0,1-4.12-1.42l-45.73,46Z"/><path class="cls-1" d="M864,340.6a7.17,7.17,0,0,1,.93-.43,6.89,6.89,0,0,1,5.23.22l21.75-34.69L783.38,228.89l-.26.31Z"/><path class="cls-1" d="M-144.35,180l.09.21c.08.22.14.43.2.65L62.48,155.63a6.73,6.73,0,0,1,.59-2.48l-78.18-45.84Z"/><path class="cls-1" d="M1130.38,256.87a6.44,6.44,0,0,1,.92-.42,6.71,6.71,0,0,1,2.78-.4l17.83-91.67-120.06-47.29a6.9,6.9,0,0,1-1,1.8Z"/><path class="cls-1" d="M1072.08,387.55l57.79-118.88a6.73,6.73,0,0,1-1-.83L1000.12,369.41,1063.71,391a6.87,6.87,0,0,1,8.37-3.48Z"/><path class="cls-1" d="M1218.21,184.68l0,0a6.87,6.87,0,0,1,6.2.77l41.92-47.67L1172.16,97a6.86,6.86,0,0,1-1.25,1.54Z"/><path class="cls-1" d="M202.54,353.78a7.17,7.17,0,0,1,.69-.3,6.85,6.85,0,0,1,4-.21l61.12-156.6a6.42,6.42,0,0,1-1.23-.85l-107,94.45Z"/><path class="cls-1" d="M694.32,314.33a7.83,7.83,0,0,1-.55-1.17,6.73,6.73,0,0,1-.34-1.3l-130.89,3.27a6.46,6.46,0,0,1-.06,1.32l64.15,51.12Z"/><path class="cls-1" d="M207.91,450.55a6.71,6.71,0,0,1,1.34-.67l.27-.08-4.08-83a6.9,6.9,0,0,1-5.22-2.58l-42.84,26Z"/><path class="cls-1" d="M860.75,344.34a6.81,6.81,0,0,1,1.76-2.7L781.75,230.33a6.78,6.78,0,0,1-1.32.66,6.92,6.92,0,0,1-3,.37l-26,89.51Z"/><path class="cls-1" d="M-30.63,264.46,5,225.12l-31.37-33.2a7,7,0,0,1-1.69.9,6.89,6.89,0,0,1-1.82.39l-3.64,70.11A7,7,0,0,1-30.63,264.46Z"/><path class="cls-1" d="M702.59,317.27c-.22.08-.43.15-.65.21l5.71,47.14,8.27,68.3a8.26,8.26,0,0,1,1,.08l32.22-110.8-42.4-9.1A6.89,6.89,0,0,1,702.59,317.27Z"/><path class="cls-1" d="M12.7,373.08A6.86,6.86,0,0,1,9.59,372l-58.47,70.42a6.73,6.73,0,0,1,1.42,2.33,6.12,6.12,0,0,1,.33,1.29l61-1.57Z"/><path class="cls-1" d="M562,318.29a7,7,0,0,1-1.14,1.77l20,77.35a6.89,6.89,0,0,1,5.58,1.82l38.83-30.54Z"/><path class="cls-1" d="M559.3,321.33A7.23,7.23,0,0,1,558,322a6.91,6.91,0,0,1-2.44.41L530,376.11l46.06,24.1a6.82,6.82,0,0,1,3-2.35Z"/><path class="cls-1" d="M1214.9,187.28a7,7,0,0,1,1.74-1.77l-47.19-85.92a8.13,8.13,0,0,1-.85.38,7,7,0,0,1-2.44.41l-12.23,62.89Z"/><path class="cls-1" d="M972.85,353.81a6.85,6.85,0,0,1,3,2.2l98.8-58.94,52.65-31.42c0-.12-.11-.24-.16-.37a6.88,6.88,0,0,1-.35-3.31l-125.47-34.32Z"/><path class="cls-1" d="M143,655.25,26,525.73-26.8,628.48a6.81,6.81,0,0,1,2.56,3.31,6.7,6.7,0,0,1,.41,2.44l165.46,23.65A6.9,6.9,0,0,1,143,655.25Z"/><path class="cls-1" d="M1214.13,193.49a6.79,6.79,0,0,1,0-4.62L1153.59,165l-17.77,91.35a7,7,0,0,1,2.5,1.47l76.09-63.7C1214.31,193.94,1214.21,193.72,1214.13,193.49Z"/><path class="cls-1" d="M871.61,341.33a6.91,6.91,0,0,1,2.1,3,7,7,0,0,1,.41,2.37l89.72,11.84a6.43,6.43,0,0,1,.57-1.45l-71.1-50.33Z"/><path class="cls-1" d="M575.18,406.59a6.83,6.83,0,0,1,.05-4.82l-46-24-58.08,122a7.64,7.64,0,0,1,.79.58L575.89,408A6.57,6.57,0,0,1,575.18,406.59Z"/><path class="cls-1" d="M527.67,376.89l-53.57-28a6.87,6.87,0,0,1-3,2.2,6.5,6.5,0,0,1-1.33.34l-.26,28.2-1.08,119.12a6.75,6.75,0,0,1,1.18.28Z"/><path class="cls-1" d="M60.52,446.37a6.64,6.64,0,0,1-.34-1.29L15.7,446.23l1,60.21a6.81,6.81,0,0,1,2.56.82L62.22,449A6.8,6.8,0,0,1,60.52,446.37Z"/><path class="cls-1" d="M102.66,758.38,47.2,707.22-2.94,730.3a6.94,6.94,0,0,1,.27,2.88l104.55,26.63A6.86,6.86,0,0,1,102.66,758.38Z"/><path class="cls-1" d="M747.3,557.73l-106-97.47L477.78,503.1l268.64,56.33A7,7,0,0,1,747.3,557.73Z"/><path class="cls-1" d="M-3.67,728.69l49.46-22.77-72.08-66.5a6.9,6.9,0,0,1-2.06,1.19l0,0,18.32,84.86A6.92,6.92,0,0,1-3.67,728.69Z"/><path class="cls-1" d="M544.38,134.92l89.71,100.47,45.66-45.89a7.13,7.13,0,0,1-1-1.86,6.8,6.8,0,0,1-.23-3.93L545.25,133.64A6.88,6.88,0,0,1,544.38,134.92Z"/><path class="cls-1" d="M154.37,656.56a5.75,5.75,0,0,1,.36.8,7,7,0,0,1,.25.86L300.43,645,248.6,591.1Z"/><path class="cls-1" d="M461.59,501.94l-62.92-51.11-41.87,62a6.89,6.89,0,0,1,1.92,2.81,6.29,6.29,0,0,1,.22.74l101.62-11A6.89,6.89,0,0,1,461.59,501.94Z"/><path class="cls-1" d="M347.15,522.66l-97.07,67.42,51.94,54,46.92-120.06A6.81,6.81,0,0,1,347.15,522.66Z"/><path class="cls-1" d="M150.62,666.19a6.87,6.87,0,0,1-7.56-2l-31.72,92a6.92,6.92,0,0,1,2.33,1.88L298.57,647,155.14,660A6.87,6.87,0,0,1,150.62,666.19Z"/><path class="cls-1" d="M212.06,357.59a7,7,0,0,1,.34,1.33l26.26,2.35,18.49-62.86a6.11,6.11,0,0,1-.65-.38l-46.06,57A6.92,6.92,0,0,1,212.06,357.59Z"/><path class="cls-1" d="M267.14,293.46l195,49.08a6.84,6.84,0,0,1,6.91-4.81l19-104.63a6.83,6.83,0,0,1-4.23-3.84L267.07,290.82A6.92,6.92,0,0,1,267.14,293.46Z"/><path class="cls-1" d="M540.66,137.13,555.94,308.6a6.89,6.89,0,0,1,3.91,1.42l73-73.37L543.06,136.09a6.92,6.92,0,0,1-1.53.79A5.69,5.69,0,0,1,540.66,137.13Z"/><path class="cls-1" d="M115.64,331.7A6.72,6.72,0,0,1,116,335l83.24,22.35a7,7,0,0,1,1.83-2.55l-42.28-63.31-43.91,38.75A7,7,0,0,1,115.64,331.7Z"/><path class="cls-1" d="M71.71,162.42l-.11,0,36.94,164.76a6.84,6.84,0,0,1,5.16,1.67L157.79,290,72.4,162.12A7.17,7.17,0,0,1,71.71,162.42Z"/><path class="cls-1" d="M73.88,161.13l85.25,127.66L266,194.49a7,7,0,0,1-.76-1.49,6.8,6.8,0,0,1-.41-2.65L76,157.78A6.92,6.92,0,0,1,73.88,161.13Z"/><path class="cls-1" d="M208.9,353.92l.14.07,46.13-57.13a7,7,0,0,1-1.29-2.18,6.88,6.88,0,0,1,4.12-8.82,6.66,6.66,0,0,1,2.23-.41L270,197.33h0Z"/><path class="cls-1" d="M998.46,370.72l-24.91,19.65a6.73,6.73,0,0,1,.56,1.18,7.1,7.1,0,0,1,.36,1.48l88.6.14a4,4,0,0,1,.08-.46Z"/><path class="cls-1" d="M-23.59,185.19A6.87,6.87,0,0,1-25,190.7L6.23,223.81l57.7-63.63a6.82,6.82,0,0,1-1-1.64Z"/><path class="cls-1" d="M-15.09,105.27,58.63,63.83a.61.61,0,0,1-.05-.12,6.84,6.84,0,0,1-.36-3.21L-167.62,15.25c-.06.16-.12.32-.19.48Z"/><path class="cls-1" d="M784.79,223.05l159.46-10.52a6.88,6.88,0,0,1,2.91-5.06l-28.55-54.65L784.54,222.17A5.81,5.81,0,0,1,784.79,223.05Z"/><path class="cls-1" d="M59.47,65.39-13.32,106.3,64,151.63a6.8,6.8,0,0,1,3-2.15,6.4,6.4,0,0,1,1-.28l-3.23-81A6.87,6.87,0,0,1,59.47,65.39Z"/><path class="cls-1" d="M1216.68,196.79l-56.37,76.33,46.22,19.36a6.93,6.93,0,0,1,5.57-3.42l6.78-91.26A6.88,6.88,0,0,1,1216.68,196.79Z"/><path class="cls-1" d="M1205.85,294.12l-46.62-19.53-84.58,114.52a4.08,4.08,0,0,1,.36.36l131.35-90.39a6.66,6.66,0,0,1-.51-5Z"/><path class="cls-1" d="M1267.59,136.36l23.23-26.42a6.72,6.72,0,0,1-1.3-2.18,7,7,0,0,1-.41-2.1L1173,95c0,.13-.07.26-.1.39Z"/><path class="cls-1" d="M957.93,213.94,1000,225.45l23.54-104.15a7.17,7.17,0,0,1-1.47-.59l-66.27,87.41a6.83,6.83,0,0,1,2.09,5.82Z"/><path class="cls-1" d="M496.63,224.19a6.89,6.89,0,0,1-1.71,7.33l6.95,9.43,32.86-99.87-40.68,79.79A6.92,6.92,0,0,1,496.63,224.19Z"/><path class="cls-1" d="M47.53,705.12l94.17-43.35a6.9,6.9,0,0,1-.32-2.14L-24.08,636a6.84,6.84,0,0,1-1,2.13Z"/><path class="cls-1" d="M224.74,566.28A6.88,6.88,0,0,1,214.52,573l-61.4,81.89a2.83,2.83,0,0,1,.24.25l94-65.29Z"/><path class="cls-1" d="M-50.25,441.32,8.22,370.91a7,7,0,0,1-1.43-2.33,7.46,7.46,0,0,1-.36-1.52l-50.66-.33-8.07,73.72A6.74,6.74,0,0,1-50.25,441.32Z"/><path class="cls-1" d="M24.73,524.32l-4.87-5.39a6.81,6.81,0,0,1-1.56.82,6.92,6.92,0,0,1-4,.22l-38.19,98.94Z"/><polygon class="cls-1" points="346.13 521.21 225.95 564.98 248.84 588.78 346.13 521.21"/><path class="cls-1" d="M464.51,350.07a7,7,0,0,1-2.28-3.11.07.07,0,0,1,0,0l-45.8,5.95L391,356.17l-86.68,11.26a6.8,6.8,0,0,1-1,3.61l95,77.19Z"/><path class="cls-1" d="M302.14,372.42a6.78,6.78,0,0,1-1.57,1.12l50.18,137.78a6.92,6.92,0,0,1,4.58.56l41.95-62.18Z"/><path class="cls-1" d="M687.55,191.75a5.53,5.53,0,0,1-.66.2l13.41,112a6.94,6.94,0,0,1,3.86,1.23l68.82-76a6.86,6.86,0,0,1-1.54-6.47l-80.3-33.93A6.81,6.81,0,0,1,687.55,191.75Z"/><path class="cls-1" d="M586.07,409.51a7.14,7.14,0,0,1-2.06,1.2,6.89,6.89,0,0,1-7-1.36L473.13,501.68a7.92,7.92,0,0,1,.42.69l166.18-43.54Z"/><path class="cls-1" d="M9.65,360.36-32.5,276.7a7,7,0,0,1-1.9.31L-44,365l50.47.33A6.89,6.89,0,0,1,9.65,360.36Z"/><path class="cls-1" d="M465.09,499.08a6.42,6.42,0,0,1,1.53-.36l1.09-120.35.25-26.93a6.63,6.63,0,0,1-1.91-.49l-66.39,98.4,63,51.21A6.74,6.74,0,0,1,465.09,499.08Z"/><path class="cls-1" d="M1139.61,266.38a6.89,6.89,0,0,1-3.6,3,6.81,6.81,0,0,1-4.54.05L1074.9,385.8l82.64-111.91Z"/><path class="cls-1" d="M1032.26,115.35l120,47.26,12.15-62.48a6.89,6.89,0,0,1-4.63-4.28,6.74,6.74,0,0,1-.28-1.07l-97.35,14.61-29.89,4.49A7.23,7.23,0,0,1,1032.26,115.35Z"/><path class="cls-1" d="M1139.45,259.22a6.22,6.22,0,0,1,.67,1.34,6.89,6.89,0,0,1,.17,4.18l18.34,7.68,56.57-76.6Z"/><path class="cls-1" d="M1127.31,260.27a6.89,6.89,0,0,1,1.63-2.37l-99.36-137.74a7,7,0,0,1-1.81,1,6.86,6.86,0,0,1-2.43.41l-23.59,104.37Z"/><path class="cls-1" d="M-37.17,185.25a6.87,6.87,0,0,1,4.44-5.37,6.87,6.87,0,0,1,8.61,3.62l83.51-25.71L-139.15,182Z"/><path class="cls-1" d="M953.46,219.58a4.89,4.89,0,0,1-.62.19l11.53,87.37,6.1,46.25c.22,0,.44,0,.65,0l28.53-126.23-42.16-11.54A6.86,6.86,0,0,1,953.46,219.58Z"/><path class="cls-1" d="M784.33,227.39l108.48,76.8,53.83-85.84a6.83,6.83,0,0,1-2-2.88,7.18,7.18,0,0,1-.3-1.17L785,224.82A7,7,0,0,1,784.33,227.39Z"/><path class="cls-1" d="M709,438.91l-121-32.17a6.84,6.84,0,0,1-.78,1.46l54.48,50.1L709,440.68A7,7,0,0,1,709,438.91Z"/><path class="cls-1" d="M1122.42,270.66,976.8,357.54l.16.37a7,7,0,0,1,.27,3.72l20.89,7.1Z"/><path class="cls-1" d="M750.09,555.43,717,446.59a6.89,6.89,0,0,1-7.51-4.2l-66.17,17.34,105.19,96.7A6.79,6.79,0,0,1,750.09,555.43Z"/><path class="cls-1" d="M861.89,351,722.13,437c.07.16.14.31.2.47a6.88,6.88,0,0,1-3.64,8.62l33.09,108.84a6.9,6.9,0,0,1,3.56.35l107.91-203A6.59,6.59,0,0,1,861.89,351Z"/><path class="cls-1" d="M965.28,387.44a6.79,6.79,0,0,1,2.05-.41l1.7-20a6.84,6.84,0,0,1-5-4.36,6.61,6.61,0,0,1-.41-2.37l-89.72-11.85c0,.12-.07.23-.1.34l88.05,41.45A6.85,6.85,0,0,1,965.28,387.44Z"/><path class="cls-1" d="M976.66,363.31a6.84,6.84,0,0,1-3.82,3.43,6.73,6.73,0,0,1-2.05.41l-1.69,20a7,7,0,0,1,3.35,1.8l24-18.94Z"/><path class="cls-2" d="M-180.61,15.4a6.88,6.88,0,0,0,6.53,4.52l21.54,156c-.18.05-.37.1-.55.17a6.88,6.88,0,0,0-4.11,8.82A6.89,6.89,0,0,0-152,189.3l-8.45,168.93a6.91,6.91,0,0,0-1.81.39,6.89,6.89,0,0,0-4.12,8.83,6.9,6.9,0,0,0,8.83,4.11A6.9,6.9,0,0,0-155,370l95.14,73.69a6.85,6.85,0,0,0-.53,5.83,6.89,6.89,0,0,0,8.83,4.12,7,7,0,0,0,2-1.14l60,56.76a6.86,6.86,0,0,0,2.28,10.09L-29.08,627.45a6.88,6.88,0,0,0-4,.22,6.89,6.89,0,0,0-4.12,8.83,6.9,6.9,0,0,0,7.05,4.5l18.32,84.87h0A6.89,6.89,0,0,0-16,734.71a6.88,6.88,0,0,0,8.82,4.11,6.87,6.87,0,0,0,4-3.93l104.55,26.64a7,7,0,0,0,.36,3.18A6.89,6.89,0,1,0,114.74,760c0-.14-.11-.27-.16-.4L302.19,646.86l.48.49.39-1,3.06-1.83-2.43.22,46.9-120a6.88,6.88,0,0,0,8.54-6.54l101.62-11a7.67,7.67,0,0,0,.22.74,6.89,6.89,0,0,0,13.21-3.76l271.88,57a6.88,6.88,0,1,0,13.33-1.83,6.81,6.81,0,0,0-2.48-3.25l107.91-203a6.86,6.86,0,0,0,8.21-2.73l88.06,41.45a6.88,6.88,0,1,0,13.37,3l88.6.14a7.19,7.19,0,0,0,.36,1.49,6.89,6.89,0,1,0,12.59-5.5l131.35-90.39a6.88,6.88,0,1,0,6.51-11.34l6.77-91.19a6.76,6.76,0,0,0,2.32-.41,6.87,6.87,0,0,0,4.35-8l92.58-24.84c0,.14.07.28.12.41a6.89,6.89,0,1,0,4.12-8.82,4.14,4.14,0,0,0-.61.26l-23.61-45.58a6.88,6.88,0,1,0-10.63-7.16L1173.12,93.24a6.47,6.47,0,0,0-.41-2.1A6.88,6.88,0,0,0,1159.38,93l-19.48,2.92-108.09,16.22a6.88,6.88,0,1,0-11.13,7.51l-66.27,87.42a6.84,6.84,0,0,0-5.66-.44h0l-29.36-56.21L783.72,220.6a6.87,6.87,0,0,0-11.59.44l-80.3-33.92a6.88,6.88,0,0,0-12.71-5.07L545.87,132a6.77,6.77,0,0,0-.23-3.92,6.89,6.89,0,1,0-10.36,8l-42.81,84a6.89,6.89,0,0,0-9.12,7.5L266.58,289.12l.24.85a6.88,6.88,0,0,0-4.83-4.33l9.81-88.12a6.7,6.7,0,0,0,2.23-.41,6.89,6.89,0,1,0-8.93-8.5L76.23,156a6.83,6.83,0,0,0-6.42-6.94l-3.23-81a6.48,6.48,0,0,0,.83-.24,6.89,6.89,0,1,0-8.74-9L-167.27,13.51a6.9,6.9,0,0,0-.4-2.82,6.89,6.89,0,0,0-8.83-4.12A6.89,6.89,0,0,0-180.61,15.4Zm8.28,4.28c.18-.05.37-.1.55-.17a6.9,6.9,0,0,0,3.08-2.25l151.82,89-128.33,72.14a6.89,6.89,0,0,0-5.58-2.76ZM63.07,153.15a6.73,6.73,0,0,0-.59,2.48l-206.54,25.19c-.06-.22-.12-.43-.2-.65l-.09-.21,129.24-72.65Zm205.3,43.52-61.12,156.6a6.85,6.85,0,0,0-4,.21,7.17,7.17,0,0,0-.69.3l-42.42-63.51,107-94.45A6.42,6.42,0,0,0,268.37,196.67Zm998-58.91-41.92,47.67a6.87,6.87,0,0,0-6.2-.77l0,0-47.3-86.12a6.86,6.86,0,0,0,1.25-1.54ZM1000.12,369.41l128.73-101.57a6.73,6.73,0,0,0,1,.83l-57.79,118.88a6.87,6.87,0,0,0-8.37,3.48ZM105.92,755.89a6.78,6.78,0,0,0-2.06,1.19L48.94,706.42l92.35-42.52-31.63,91.72A6.77,6.77,0,0,0,105.92,755.89Zm-36-593.08,36.94,164.78a7.13,7.13,0,0,0-1.68.9L7.45,225.1l57.74-63.67A6.88,6.88,0,0,0,69.87,162.81ZM492.51,233a7.32,7.32,0,0,0,1-.45l7.7,10.45-29.33,89.14,17.95-98.73A7.05,7.05,0,0,0,492.51,233Zm46.39-95.73,15.28,171.47a7.11,7.11,0,0,0-.87.25,6.7,6.7,0,0,0-1,.45l-49.17-66.75,34.72-105.54A6.93,6.93,0,0,0,538.9,137.29Zm146.23,54.87,13.41,112c-.22.06-.44.12-.66.2a7.41,7.41,0,0,0-1.53.8l-61.07-68.41,45.73-46A6.94,6.94,0,0,0,685.13,192.16ZM891.86,305.7l-21.75,34.69a6.89,6.89,0,0,0-5.23-.22,7.17,7.17,0,0,0-.93.43L783.12,229.2l.26-.31ZM951.08,220l11.6,87.9,6,45.73c-.19.05-.39.11-.58.18a6.86,6.86,0,0,0-2.7,1.8l-71.17-50.38,53.86-85.91A6.83,6.83,0,0,0,951.08,220Zm80.77-102.9,120.06,47.29-17.83,91.67a6.71,6.71,0,0,0-2.78.4,6.44,6.44,0,0,0-.92.42l-99.53-138A6.9,6.9,0,0,0,1031.85,117.09ZM1168.6,100a8.13,8.13,0,0,0,.85-.38l47.19,85.92a7,7,0,0,0-1.74,1.77l-61-24,12.23-62.89A7,7,0,0,0,1168.6,100Zm-32.78,156.42L1153.59,165l60.51,23.83a6.79,6.79,0,0,0,0,4.62c.08.23.18.45.28.67l-76.09,63.7A7,7,0,0,0,1135.82,256.39Zm-8.64,8.89c0,.13.11.25.16.37l-52.65,31.42L975.89,356a6.85,6.85,0,0,0-3-2.2l28.51-126.16L1126.83,262A6.88,6.88,0,0,0,1127.18,265.28ZM964.41,357.05a6.43,6.43,0,0,0-.57,1.45l-89.72-11.84a7,7,0,0,0-.41-2.37,6.91,6.91,0,0,0-2.1-3l21.7-34.61ZM471.17,499.77l58.08-122,46,24a6.83,6.83,0,0,0-.05,4.82,6.57,6.57,0,0,0,.71,1.4L472,500.35A7.64,7.64,0,0,0,471.17,499.77Zm-1.7-120.16.26-28.2a6.5,6.5,0,0,0,1.33-.34,6.87,6.87,0,0,0,3-2.2l53.57,28L469.57,499a6.75,6.75,0,0,0-1.18-.28ZM-24.24,631.79a6.81,6.81,0,0,0-2.56-3.31L26,525.73,143,655.25a6.9,6.9,0,0,0-1.4,2.63L-23.83,634.23A6.7,6.7,0,0,0-24.24,631.79Zm-23.22-187a6.73,6.73,0,0,0-1.42-2.33L9.59,372a6.86,6.86,0,0,0,3.11,1.05l1.2,71.42-61,1.57A6.12,6.12,0,0,0-47.46,444.78Zm19.44-252a7,7,0,0,0,1.69-.9L5,225.12l-35.67,39.34a7,7,0,0,0-2.85-1.14l3.64-70.11A6.89,6.89,0,0,0-28,192.82Zm233.46,174,4.08,83-.27.08a6.71,6.71,0,0,0-1.34.67l-50.53-60.32,42.84-26A6.9,6.9,0,0,0,205.44,366.83ZM780.43,231a6.78,6.78,0,0,0,1.32-.66l80.76,111.31a6.81,6.81,0,0,0-1.76,2.7L751.37,320.87l26-89.51A6.92,6.92,0,0,0,780.43,231ZM716.91,433a8.26,8.26,0,0,0-1-.08l-8.27-68.3-5.71-47.14c.22-.06.43-.13.65-.21a6.89,6.89,0,0,0,4.14-4.17l42.4,9.1ZM530,376.11l25.57-53.75A6.91,6.91,0,0,0,558,322a7.23,7.23,0,0,0,1.28-.62l19.77,76.53a6.82,6.82,0,0,0-3,2.35Zm50.78,21.3-20-77.35a7,7,0,0,0,1.14-1.77l63.25,50.4-38.83,30.54A6.89,6.89,0,0,0,580.79,397.41Zm-18.31-81a6.46,6.46,0,0,0,.06-1.32l130.89-3.27a6.73,6.73,0,0,0,.34,1.3,7.83,7.83,0,0,0,.55,1.17l-67.69,53.24Zm132.94-.73a6.87,6.87,0,0,0,4.76,2L706,365.74l8.16,67.39c-.22.06-.44.12-.66.2a6.93,6.93,0,0,0-2.43,1.53l-83-66.16Zm-146,2.66a6.89,6.89,0,0,0,4.33,3.71l-25.31,53.2L475,347.35a6.8,6.8,0,0,0,.52-3.55ZM16.72,506.44l-1-60.21,44.48-1.15a6.64,6.64,0,0,0,.34,1.29,6.8,6.8,0,0,0,1.7,2.61L19.28,507.26A6.81,6.81,0,0,0,16.72,506.44Zm-1.1-133.75a6.19,6.19,0,0,0,1-.49l45.73,66.69a6.92,6.92,0,0,0-2.25,4.42l-44.47,1.14L14.47,373A6.71,6.71,0,0,0,15.62,372.69Zm2.46-1.56a6.88,6.88,0,0,0,2.05-5.38L53.68,423Zm193,92.08,5.55,97a7.2,7.2,0,0,0-1.08.29,7.08,7.08,0,0,0-2.37,1.47l-26.7-21.75,24-77.08C210.64,463.17,210.85,463.19,211.07,463.21Zm-5.93-4.5a6.86,6.86,0,0,0,3.6,3.9L185,539,72.84,447.64a6.9,6.9,0,0,0,.87-2.16l131,11.17A6.79,6.79,0,0,0,205.14,458.71ZM71.72,449l112.7,91.81L149.55,653a7,7,0,0,0-2.73,0l-76.6-202.9A7.14,7.14,0,0,0,71.72,449Zm80,204.74-.48-.25L185.9,542l26.15,21.3a6.85,6.85,0,0,0,1,8.55l-17.16,22.89ZM218.4,560.1l-5.52-97a7.32,7.32,0,0,0,1.09-.29,6.87,6.87,0,0,0,3.72-3.25l35.75,15.79L219.6,560.29A6.82,6.82,0,0,0,218.4,560.1Zm-.09-102.19a6.85,6.85,0,0,0-.23-3.92,7,7,0,0,0-1.09-1.94L293.3,373a6,6,0,0,0,.75.48l-40,100.27Zm72.62-88.12a6.81,6.81,0,0,0,1.08,1.92l-76.6,78.91a6.37,6.37,0,0,0-1-.56L240,363.17l50.57,4.53A7,7,0,0,0,290.93,369.79Zm-84.38,81.9a6.89,6.89,0,0,0-1.66,3.2l-131-11.17a7.46,7.46,0,0,0-.41-2.06l-.18-.42,82.56-50.08Zm-134.19-12a6.78,6.78,0,0,0-2.1-1.75l37.29-97.22a6.88,6.88,0,0,0,4-.22,6.71,6.71,0,0,0,1.34-.67l41.82,49.92Zm30.93-109.24L-28,272.31a6.81,6.81,0,0,0-.06-4.54,6.71,6.71,0,0,0-1.25-2.12L6.26,226.42l97.58,103.29A8.29,8.29,0,0,0,103.29,330.48ZM-28.79,273.9l131.37,58.21a6.83,6.83,0,0,0,3.32,8L68.6,437.33a6.85,6.85,0,0,0-4,.22l-.33.13-94.83-162A6.84,6.84,0,0,0-28.79,273.9ZM17,360.47a6.89,6.89,0,0,0-5.77-.83L-21.29,295Zm-64.13,87.38,61-1.58,1,60.19a6.71,6.71,0,0,0-1.35.35,6.82,6.82,0,0,0-2,1.13l-60-56.75A6.84,6.84,0,0,0-47.09,447.85Zm69.5,63.07a7,7,0,0,0-1.7-2.61l40.45-54.89L25.59,522.63l-4.41-4.88A6.9,6.9,0,0,0,22.41,510.92ZM64.65,450.5a7,7,0,0,0,3.92.22L145,653.17l-.21.61c-.16.09-.3.19-.44.28L26.86,524ZM224,563.8a7,7,0,0,0-2.76-2.85l33.82-84.87,90.58,40a6.93,6.93,0,0,0-.12,3.45Zm122.35-49.33-90.64-40,40-100.33a6.82,6.82,0,0,0,3.21,0l50.18,137.79A6.8,6.8,0,0,0,346.36,514.47ZM588.12,401.88a7,7,0,0,0-.63-1.29l39.13-30.76L710,436.24a7.69,7.69,0,0,0-.48.95L588.49,405A7,7,0,0,0,588.12,401.88ZM718.61,433.5l32.26-110.92,109.51,23.49a6.76,6.76,0,0,0,.39,2.93,3.71,3.71,0,0,0,.19.46l-139.76,86A6.94,6.94,0,0,0,718.61,433.5ZM775.67,231l-26,89.53-42.54-9.13a6.75,6.75,0,0,0-1.62-5l68.86-76A7.33,7.33,0,0,0,775.67,231ZM695,306.3a6.91,6.91,0,0,0-1.64,3.79l-87.07,2.17-44.11,1.1c0-.08-.05-.16-.08-.24a7,7,0,0,0-1-1.86L634,238ZM550.9,310.51a6.9,6.9,0,0,0-2,6.17l-73.79,25.4a6.81,6.81,0,0,0-3.43-3.68l30.81-93.63Zm-89.06,34.66L346,360.22l-42,5.45q-.07-.3-.18-.6a6.89,6.89,0,0,0-8.74-4.14l-31.42-62.6a6.88,6.88,0,0,0,2.92-3.17l195.19,49.12A8.81,8.81,0,0,0,461.84,345.17ZM262.06,299l31.49,62.73a6.91,6.91,0,0,0-2.87,4.21l-50.22-4.51L258.81,299A6.88,6.88,0,0,0,262.06,299ZM212.69,449.55a7.42,7.42,0,0,0-1.41-.08l-4.08-82.83a7.08,7.08,0,0,0,.75-.22,6.89,6.89,0,0,0,4.48-5.72L238.15,363Zm-13.57-87.24c0,.14.12.28.18.42l-43.07,26.12-42-50.13a7,7,0,0,0,1.3-2L198.77,359A6.85,6.85,0,0,0,199.12,362.31ZM6.23,223.81-25,190.7a6.87,6.87,0,0,0,1.46-5.51L63,158.54a6.82,6.82,0,0,0,1,1.64ZM-24.12,183.5a6.87,6.87,0,0,0-8.61-3.62,6.87,6.87,0,0,0-4.44,5.37l-102-3.24L59.39,157.79Zm-119.82.13L-37.22,187a6.83,6.83,0,0,0,.37,1.69,6.9,6.9,0,0,0,1.75,2.64l-36.19,50-73.46-55.38A6.72,6.72,0,0,0-143.94,183.63Zm110.28,8.76a7.07,7.07,0,0,0,2,.73l-3.65,70.17a6.39,6.39,0,0,0-1.63.37,6.85,6.85,0,0,0-2.56,1.65l-30.42-22.93Zm-6.86,74.34a6.86,6.86,0,0,0-.49,5.75,6.89,6.89,0,0,0,.5,1.06L-155,360.26l-.18-.18,84.23-116.27Zm-112.88,96a6.29,6.29,0,0,0-.49-1.05L-39.44,275a6.85,6.85,0,0,0,3.28,1.87L-45.82,365l-107.22-.7A6.34,6.34,0,0,0-153.4,362.73ZM-34.4,277a7,7,0,0,0,1.9-.31L9.65,360.36a6.89,6.89,0,0,0-3.21,4.93L-44,365ZM6.43,367.06a7.46,7.46,0,0,0,.36,1.52,7,7,0,0,0,1.43,2.33l-58.47,70.41a6.74,6.74,0,0,0-2-.87l8.07-73.72ZM18.3,519.75a6.81,6.81,0,0,0,1.56-.82l4.87,5.39-48.61,94.59L14.31,520A6.92,6.92,0,0,0,18.3,519.75ZM-24.08,636l165.46,23.64a6.9,6.9,0,0,0,.32,2.14L47.53,705.12l-72.62-67A6.84,6.84,0,0,0-24.08,636Zm177.2,18.86L214.52,573a6.88,6.88,0,0,0,10.22-6.68l22.62,23.53-94,65.29A2.83,2.83,0,0,0,153.12,654.85ZM226,565l120.18-43.76-97.29,67.57Zm124.8-53.65L300.57,373.54a6.78,6.78,0,0,0,1.57-1.12l95.14,77.28-41.95,62.18A6.92,6.92,0,0,0,350.75,511.32ZM303.25,371a6.8,6.8,0,0,0,1-3.61L391,356.17l25.46-3.31,45.8-5.95a.07.07,0,0,0,0,0,7,7,0,0,0,2.28,3.11l-66.23,98.16ZM466.05,351a6.63,6.63,0,0,0,1.91.49l-.25,26.93-1.09,120.35a6.42,6.42,0,0,0-1.53.36,6.74,6.74,0,0,0-2.39,1.48l-63-51.21Zm7.08,150.73L577,409.35a6.89,6.89,0,0,0,7,1.36,7.14,7.14,0,0,0,2.06-1.2l53.66,49.32L473.55,502.37A7.92,7.92,0,0,0,473.13,501.68ZM587.28,408.2a6.84,6.84,0,0,0,.78-1.46l121,32.17a7,7,0,0,0,0,1.77L641.76,458.3Zm122.2,34.19a6.89,6.89,0,0,0,7.51,4.2l33.1,108.84a6.79,6.79,0,0,0-1.59,1l-105.19-96.7Zm42.3,112.52L718.69,446.07a6.88,6.88,0,0,0,3.64-8.62c-.06-.16-.13-.31-.2-.47l139.76-86a6.59,6.59,0,0,0,1.36,1.28l-107.91,203A6.9,6.9,0,0,0,751.78,554.91Zm122.11-206.5,89.72,11.85a6.61,6.61,0,0,0,.41,2.37,6.84,6.84,0,0,0,5,4.36l-1.7,20a6.88,6.88,0,0,0-5.49,3.17l-88.05-41.45C873.82,348.64,873.86,348.53,873.89,348.41Zm95.21,38.77,1.69-20a6.73,6.73,0,0,0,2.05-.41,6.84,6.84,0,0,0,3.82-3.43l19.8,6.73-24,18.94A7,7,0,0,0,969.1,387.18Zm8.13-25.55a7,7,0,0,0-.27-3.72l-.16-.37,145.62-86.88-124.3,98.07Zm154.24-92.19a6.81,6.81,0,0,0,4.54-.05,6.89,6.89,0,0,0,3.6-3l17.93,7.51L1074.9,385.8Zm8.82-4.7a6.89,6.89,0,0,0-.17-4.18,6.22,6.22,0,0,0-.67-1.34l75.75-63.4-56.57,76.6Zm19.2-170a6.74,6.74,0,0,0,.28,1.07,6.89,6.89,0,0,0,4.63,4.28l-12.15,62.48-120-47.26a7.23,7.23,0,0,0,0-1.47l29.89-4.49Zm-131.72,26.36a7,7,0,0,0,1.81-1l99.36,137.74a6.89,6.89,0,0,0-1.63,2.37l-125.56-34.35,23.59-104.37A6.86,6.86,0,0,0,1027.77,121.14ZM971.12,353.42c-.21,0-.43,0-.65,0l-6.1-46.25-11.53-87.37a4.89,4.89,0,0,0,.62-.19,6.86,6.86,0,0,0,4-3.93l42.16,11.54Zm-26.49-138a6.83,6.83,0,0,0,2,2.88l-53.83,85.84-108.48-76.8a7,7,0,0,0,.62-2.57L944.33,214.3A7.18,7.18,0,0,0,944.63,215.47Zm-173,11.4a6.83,6.83,0,0,0,1.38,2.28l-68.82,76a6.94,6.94,0,0,0-3.86-1.23L686.89,192a5.53,5.53,0,0,0,.66-.2,6.81,6.81,0,0,0,3.59-3l80.3,33.93A6.85,6.85,0,0,0,771.6,226.87Zm-92.87-39.23a7.13,7.13,0,0,0,1,1.86l-45.66,45.89L544.38,134.92a6.88,6.88,0,0,0,.87-1.28L678.5,183.71A6.8,6.8,0,0,0,678.73,187.64Zm-45.89,49-73,73.37a6.89,6.89,0,0,0-3.91-1.42L540.66,137.13a5.69,5.69,0,0,0,.87-.25,6.92,6.92,0,0,0,1.53-.79Zm-131,4.3-6.95-9.43a6.88,6.88,0,0,0-.87-10.65l40.68-79.79Zm-13.8-7.85-19,104.63a6.84,6.84,0,0,0-6.91,4.81l-195-49.08a6.92,6.92,0,0,0-.07-2.64l216.77-61.56A6.83,6.83,0,0,0,488.07,233.1ZM257.15,298.41l-18.49,62.86-26.26-2.35a7,7,0,0,0-.34-1.33,6.92,6.92,0,0,0-1.62-2.52l46.06-57A6.11,6.11,0,0,0,257.15,298.41Zm-56.09,56.36a7,7,0,0,0-1.83,2.55L116,335a6.72,6.72,0,0,0-.35-3.27,7,7,0,0,0-.77-1.49l43.91-38.75ZM113.7,328.88a6.84,6.84,0,0,0-5.16-1.67L71.6,162.45l.11,0a7.17,7.17,0,0,0,.69-.3L157.79,290ZM-150.19,189.39a6.89,6.89,0,0,0,1.82-.39,6.76,6.76,0,0,0,2.55-1.66l73.49,55.41-84.25,116.3a6.85,6.85,0,0,0-2.06-.73Zm-3.73,179.18A7.16,7.16,0,0,0-153,366l107,.7-8.06,73.54a6.63,6.63,0,0,0-2.21.41,6.69,6.69,0,0,0-2.5,1.59ZM-28.4,640.63l0,0a6.9,6.9,0,0,0,2.06-1.19l72.08,66.5L-3.67,728.69a6.92,6.92,0,0,0-6.41-3.2Zm25.73,92.55a6.94,6.94,0,0,0-.27-2.88L47.2,707.22l55.46,51.16a6.86,6.86,0,0,0-.78,1.43Zm116.34,24.9a6.92,6.92,0,0,0-2.33-1.88l31.72-92A6.88,6.88,0,0,0,155.14,660l143.43-13ZM155,658.22a7,7,0,0,0-.25-.86,5.75,5.75,0,0,0-.36-.8L248.6,591.1,300.43,645Zm95.1-68.14,97.07-67.42a6.81,6.81,0,0,0,1.79,1.41L302,644.13Zm108.86-73.66a6.29,6.29,0,0,0-.22-.74,6.89,6.89,0,0,0-1.92-2.81l41.87-62,62.92,51.11a6.89,6.89,0,0,0-1,3.46ZM477.78,503.1l163.5-42.84,106,97.47a7,7,0,0,0-.88,1.7ZM974.47,393a7.1,7.1,0,0,0-.36-1.48,6.73,6.73,0,0,0-.56-1.18l24.91-19.65,64.69,22a4,4,0,0,0-.08.46ZM1075,389.47a4.08,4.08,0,0,0-.36-.36l84.58-114.52,46.62,19.53a6.66,6.66,0,0,0,.51,5ZM1212.1,289.06a6.93,6.93,0,0,0-5.57,3.42l-46.22-19.36,56.37-76.33a6.88,6.88,0,0,0,2.2,1Zm15-100.28h0a6.72,6.72,0,0,0-1.3-2.18l42.3-48.1,51.81,22.41a7.14,7.14,0,0,0-.28,2.12l-92.76,24.89Zm93.52-29.49L1269.3,137.1l22.85-26a6.85,6.85,0,0,0,6.19.77L1322,157.61A7,7,0,0,0,1320.59,159.29Zm-31.48-53.63a7,7,0,0,0,.41,2.1,6.72,6.72,0,0,0,1.3,2.18l-23.23,26.42-94.73-41c0-.13.07-.26.1-.39Zm-267,15a7.17,7.17,0,0,0,1.47.59L1000,225.45l-42.11-11.51a6.83,6.83,0,0,0-2.09-5.82Zm-103.5,32.11,28.55,54.65a6.88,6.88,0,0,0-2.91,5.06L784.79,223.05a5.81,5.81,0,0,0-.25-.88ZM260.23,285.45a6.66,6.66,0,0,0-2.23.41,6.88,6.88,0,0,0-4.12,8.82,7,7,0,0,0,1.29,2.18L209,354l-.14-.07L270,197.33h0Zm4.57-95.1a6.8,6.8,0,0,0,.41,2.65,7,7,0,0,0,.76,1.49l-106.84,94.3L73.88,161.13A6.92,6.92,0,0,0,76,157.78ZM68,149.2a6.4,6.4,0,0,0-1,.28,6.8,6.8,0,0,0-3,2.15L-13.32,106.3,59.47,65.39a6.87,6.87,0,0,0,5.34,2.84ZM58.22,60.5a6.84,6.84,0,0,0,.36,3.21.61.61,0,0,0,.05.12l-73.72,41.44L-167.81,15.73c.07-.16.13-.32.19-.48Z"/></svg>