<svg id="Layer_2" data-name="Layer 2" xmlns="http://www.w3.org/2000/svg" viewBox="0 0 800 800"><defs><style>.cls-1{fill:#333;}.cls-2{fill:#3567b1;}.cls-3{fill:#f0e4d6;}.cls-4{fill:#f15d3c;}</style></defs><title>landing</title><path class="cls-1" d="M429.43,309.21c27.12-7,27.88-57.7-13.55-63.12-55.92-7.31-77.9,51-80.27,60.4-9.08.76-21.58,5.92-28.42,21.33-6.06,13.66,3.35,31.15-9,45-10,11.2-39.55,8.95-63.74,23.52-11.68,7-34.58,27.63-34.58,65.24,0,35.73,31.5,80.87,102,80.87,72,0,128.75-80.32,128.75-80.32,15.4,20.42,48,62,73.92,40.82,25.25-20.55,27.9-78.05,11.85-105.88C503.63,374.87,480,361.85,460.08,347c-7.45-5.57-14.94-11.38-21.1-18.4C438,327.4,426.39,310,429.43,309.21Z"/><path class="cls-2" d="M401,416.68c64.35,3.92,103.28,25.24,116.75,62s-39,113.51-39,113.51Z"/><path class="cls-3" d="M432.57,288.42a2,2,0,0,1-.34,0,1.67,1.67,0,0,1-1.28-2c0-.09,1.72-8.56-3.06-15.23-3.23-4.5-8.69-7.24-16.23-8.15-9.2-1.1-19.64,3.24-31,12.92a1.66,1.66,0,1,1-2.15-2.53c12.13-10.3,23.42-14.92,33.57-13.69,8.53,1,14.77,4.23,18.56,9.54,5.63,7.89,3.67,17.43,3.59,17.83A1.67,1.67,0,0,1,432.57,288.42Z"/><path class="cls-3" d="M360.07,297.54a1.66,1.66,0,0,1-1.36-2.62s.86-1.24,2.44-3.25a1.66,1.66,0,1,1,2.62,2.05c-1.5,1.91-2.33,3.09-2.34,3.11A1.66,1.66,0,0,1,360.07,297.54Z"/><path class="cls-2" d="M381.64,416.68c-38,1-105.64,62.73-140.93,160.27l55.38,71.55,92.69-173Z"/><path class="cls-2" d="M381.64,416.68s-72,60.85-49.48,125.76c0,0-39.5,62.48-52.73,115.4H525.24S490.73,492.65,401,416.68Z"/><path class="cls-1" d="M337.58,476.5a1.64,1.64,0,0,1-.68-.15,1.66,1.66,0,0,1-.83-2.2c1.08-2.38,2.27-4.79,3.53-7.17a1.65,1.65,0,0,1,2.24-.7,1.67,1.67,0,0,1,.7,2.24c-1.23,2.34-2.39,4.69-3.44,7A1.67,1.67,0,0,1,337.58,476.5Z"/><path class="cls-1" d="M525.24,659.51H279.43a1.68,1.68,0,0,1-1.31-.64,1.64,1.64,0,0,1-.3-1.43c12.41-49.62,48.21-108.26,52.52-115.21-4.95-14.71-5.53-30.38-1.72-46.61a1.66,1.66,0,0,1,3.24.76c-3.73,15.88-3.1,31.19,1.87,45.51a1.66,1.66,0,0,1-.16,1.44c-.39.61-38.49,61.24-52,112.85h241.6c-2.94-13-20.72-87.2-58.11-154.73a1.66,1.66,0,1,1,2.9-1.61c41.22,74.43,58.74,156.84,58.91,157.66a1.67,1.67,0,0,1-1.63,2Z"/><path class="cls-3" d="M133.65,639.15H393.08a6.05,6.05,0,0,1,6.05,6.05v12.64a0,0,0,0,1,0,0H133.65a6.05,6.05,0,0,1-6.05-6.05v-6.58A6.05,6.05,0,0,1,133.65,639.15Z" transform="translate(526.72 1297) rotate(180)"/><path class="cls-1" d="M393.07,659.51H133.65a7.72,7.72,0,0,1-7.72-7.72V639.15a1.67,1.67,0,0,1,1.66-1.66H393.07a7.72,7.72,0,0,1,7.72,7.72v6.58A7.73,7.73,0,0,1,393.07,659.51ZM129.25,640.82v11a4.4,4.4,0,0,0,4.4,4.39H393.07a4.4,4.4,0,0,0,4.4-4.39v-6.58a4.39,4.39,0,0,0-4.4-4.39Z"/><path class="cls-3" d="M310.87,639.15h82.2a6.05,6.05,0,0,1,6.05,6.05v12.64a0,0,0,0,1,0,0H310.87a6.05,6.05,0,0,1-6.05-6.05v-6.58A6.05,6.05,0,0,1,310.87,639.15Z" transform="translate(703.95 1297) rotate(180)"/><path class="cls-1" d="M393.07,659.51h-82.2a7.73,7.73,0,0,1-7.72-7.72V639.15a1.67,1.67,0,0,1,1.67-1.66h88.25a7.72,7.72,0,0,1,7.72,7.72v6.58A7.73,7.73,0,0,1,393.07,659.51Zm-86.59-18.69v11a4.4,4.4,0,0,0,4.39,4.39h82.2a4.4,4.4,0,0,0,4.4-4.39v-6.58a4.39,4.39,0,0,0-4.4-4.39Z"/><path class="cls-3" d="M127.89,639.15H305.11L255.6,511.83a8,8,0,0,0-7.46-5.1H81A3.13,3.13,0,0,0,78.05,511Z"/><path class="cls-1" d="M305.11,640.82H127.89a1.68,1.68,0,0,1-1.55-1.06L94.49,557.85a1.66,1.66,0,1,1,3.1-1.21L129,637.49H302.68l-48.63-125a6.3,6.3,0,0,0-5.91-4.05h-100a1.66,1.66,0,0,1,0-3.32h100a9.61,9.61,0,0,1,9,6.16l49.51,127.32a1.67,1.67,0,0,1-1.55,2.27Z"/><path class="cls-1" d="M85.59,532.05A1.67,1.67,0,0,1,84,531L76.5,511.6A4.8,4.8,0,0,1,81,505.07h20.81a1.66,1.66,0,0,1,0,3.32H81a1.48,1.48,0,0,0-1.37,2l7.54,19.38a1.66,1.66,0,0,1-1,2.15A1.57,1.57,0,0,1,85.59,532.05Z"/><path class="cls-4" d="M169.78,578.62c3.86,10.12,13.53,15.82,21.6,12.74s11.48-13.78,7.62-23.89-13.53-15.82-21.6-12.74S165.92,568.51,169.78,578.62Z"/><path class="cls-3" d="M405.83,441.64C412.46,422,420.9,391,420.9,391l-43.48-5.22-21.8,30L398,444.29A5.21,5.21,0,0,0,405.83,441.64Z"/><path class="cls-1" d="M400.88,446.85a6.86,6.86,0,0,1-3.84-1.18l-42.35-28.53a1.65,1.65,0,0,1-.41-2.35l21.79-30a1.67,1.67,0,0,1,1.54-.67l43.49,5.22a1.67,1.67,0,0,1,1.18.72,1.7,1.7,0,0,1,.23,1.37c-.09.31-8.54,31.29-15.1,50.71h0a6.88,6.88,0,0,1-4.31,4.32A7.11,7.11,0,0,1,400.88,446.85ZM358,415.35l40.91,27.57a3.57,3.57,0,0,0,5.37-1.81h0c5.6-16.59,12.6-41.69,14.53-48.67l-40.6-4.87Z"/><path class="cls-1" d="M388.78,285.32c-24.26,30,5.94,63.52-30.46,75.47.11,27,21.15,24.19,21.15,53.3,0,8.89-6.7,26.8-31.2,26.8s-41.5-19-77.49,0c-1.57-8.39,59-78.55,62.34-88.65.74-2.26,31.24-53.18,31.24-53.18Z"/><circle class="cls-3" cx="409.21" cy="351.77" r="57.3" transform="translate(-75.78 115.17) rotate(-14.68)"/><path class="cls-1" d="M409.11,410.73a59.05,59.05,0,1,1,5-.21C412.43,410.66,410.76,410.73,409.11,410.73Zm-4.65-116.07.14,1.66a55.64,55.64,0,1,0,60,50.83,55.25,55.25,0,0,0-60-50.83Z"/><path class="cls-3" d="M357.06,340.06a17,17,0,1,1-15.57,18.4A17.05,17.05,0,0,1,357.06,340.06Z"/><path class="cls-1" d="M419.14,384.88c-13.49,0-25.07-7.89-25.71-8.34a1.66,1.66,0,0,1,1.89-2.73c.2.14,19.94,13.57,36.65,4.63a1.66,1.66,0,0,1,1.56,2.93A30.06,30.06,0,0,1,419.14,384.88Z"/><path class="cls-1" d="M401,340.13a1.58,1.58,0,0,1-.43-.05,1.67,1.67,0,0,1-1.18-2c0-.13,3.61-13.07,18.18-11.51a1.66,1.66,0,1,1-.35,3.31c-11.71-1.24-14.5,8.63-14.62,9A1.66,1.66,0,0,1,401,340.13Z"/><path class="cls-1" d="M444.2,322.34a1.67,1.67,0,0,1-1.4-2.55c.16-.26,4.07-6.25,12.62-4a1.67,1.67,0,0,1-.86,3.22c-6.22-1.66-8.93,2.5-8.95,2.54A1.68,1.68,0,0,1,444.2,322.34Z"/><path class="cls-1" d="M397.34,320.69a1.67,1.67,0,0,1-1.2-2.82c.26-.26,6.38-6.51,14.77-7a1.63,1.63,0,0,1,1.76,1.55,1.65,1.65,0,0,1-1.56,1.76c-7.07.43-12.53,6-12.58,6A1.65,1.65,0,0,1,397.34,320.69Z"/><path class="cls-1" d="M412.66,363.64c-10.54,0-21.27-10.38-25.14-25.16-2.09-8-1.92-16,.48-22.7,2.48-6.9,7-11.54,12.81-13.06,11.69-3.06,24.75,8,29.12,24.65h0c2.08,8,1.91,16-.49,22.7-2.47,6.9-7,11.54-12.8,13.06A15.92,15.92,0,0,1,412.66,363.64Zm-7.8-58.11a12.51,12.51,0,0,0-3.21.41c-4.69,1.23-8.42,5.12-10.52,11-2.17,6.06-2.32,13.42-.4,20.74,3.9,14.88,15.15,24.87,25.06,22.27,4.69-1.23,8.43-5.12,10.52-11,2.18-6.06,2.32-13.42.4-20.74h0C423.23,314.92,413.89,305.53,404.86,305.53Z"/><path class="cls-1" d="M453,346.61c-3.64,0-7.44-1.9-10.94-5.53-4.1-4.24-7.37-10.42-9.19-17.4-3.93-15-.1-28.53,8.71-30.84s18.79,7.62,22.72,22.6c1.83,7,2,14,.52,19.68-1.58,6.05-4.86,10-9.24,11.16A10.2,10.2,0,0,1,453,346.61Zm-8.86-50.77a6.6,6.6,0,0,0-1.72.22c-6.77,1.77-9.68,14-6.34,26.78,1.69,6.43,4.66,12.09,8.37,15.94,3.47,3.59,7.13,5.11,10.29,4.28s5.6-3.94,6.86-8.78c1.35-5.17,1.17-11.56-.52-18h0C458,304.6,450.54,295.84,444.1,295.84Z"/><path class="cls-1" d="M624.49,659.51H591.15a1.67,1.67,0,0,1,0-3.33h33.34a1.67,1.67,0,1,1,0,3.33Z"/><path class="cls-1" d="M565.67,659.51H77.84a1.67,1.67,0,0,1,0-3.33H565.67a1.67,1.67,0,1,1,0,3.33Z"/><path class="cls-2" d="M448.54,435.56c22.32-13.38,47.42,9.08,65.11,31.3,5.73-12.73,10.81-22.83,13.7-28.41a8.5,8.5,0,0,1,8.09-4.56A147.11,147.11,0,0,1,586,445.49a8.52,8.52,0,0,1,5.14,8.05c-.4,13.28-1.31,26.55-2.62,39.77a437.3,437.3,0,0,1-9.41,58.34c-4.35,18.2-10.12,36.89-20.51,52.64-8.22,12.45-20.32,22.86-36,22.82-14,0-26-6.86-34-18.11a202.76,202.76,0,0,1-13.17-22,413,413,0,0,1-27-63.16c-6.56-19.71-12.74-41.18-11.73-62.18C437.2,452.06,439.64,440.89,448.54,435.56Z"/><path class="cls-1" d="M588.53,495h-.17a1.65,1.65,0,0,1-1.48-1.82c1.34-13.51,2.22-26.85,2.61-39.66a6.82,6.82,0,0,0-4.14-6.47,146.14,146.14,0,0,0-50-11.47,6.87,6.87,0,0,0-6.53,3.66c-2.58,5-7.78,15.29-13.66,28.34a1.65,1.65,0,0,1-2.19.83,1.67,1.67,0,0,1-.84-2.2c5.91-13.12,11.14-23.49,13.74-28.5a10.23,10.23,0,0,1,9.67-5.45A149.4,149.4,0,0,1,586.68,444a10.12,10.12,0,0,1,6.13,9.62c-.39,12.88-1.27,26.3-2.63,39.89A1.66,1.66,0,0,1,588.53,495Z"/><path class="cls-1" d="M522.72,628.77h-.07c-14.22,0-26.77-6.72-35.32-18.81a206.81,206.81,0,0,1-13.28-22.16,413.64,413.64,0,0,1-27.15-63.42c-2.43-7.28-5.51-16.9-7.83-26.7-1.28-5.36-2.23-10.31-2.9-15.14a1.64,1.64,0,0,1,1.41-1.87,1.67,1.67,0,0,1,1.88,1.41c.66,4.72,1.59,9.58,2.84,14.84,2.29,9.67,5.35,19.19,7.75,26.41A409.43,409.43,0,0,0,477,586.24,199.8,199.8,0,0,0,490.05,608c7.91,11.19,19.49,17.38,32.6,17.41a33.54,33.54,0,0,0,3.63-.19,1.66,1.66,0,1,1,.36,3.3A36.49,36.49,0,0,1,522.72,628.77Z"/><path class="cls-3" d="M576.22,459c4.91-9,7.08-16.29,10.3-29,4.67-6.23,9.59-9.57,15-12.65,8.34-4.79-4.88-17.34-17-12.9s-20.34,11.18-26,10.27c-3.29-.52-12.32-12-23.88-12.42-3.71-.13-10.08,3.4-5,8.16,2.76,2.58,5.26,4.79,7.07,7.89,4.79,8.24-3,14.48,3.21,30.38,3.17,8.06,11.27,12.62,18.48,15.15C566,466.6,573.21,464.55,576.22,459Z"/><path class="cls-1" d="M565,466.75a21.71,21.71,0,0,1-7.2-1.29c-10-3.5-16.71-9.08-19.47-16.11-3.57-9.05-2.76-15.16-2.11-20.07.53-4,.9-6.82-1-10.09a30.92,30.92,0,0,0-6.06-6.85l-.7-.65c-3-2.8-2.57-5.28-2.06-6.51,1.22-2.93,5.27-4.63,8.24-4.53,8.32.28,15.28,5.83,19.89,9.5,1.58,1.27,3.55,2.84,4.2,2.94,2.89.46,7-1.64,12.22-4.29a116.89,116.89,0,0,1,13-5.9c9.19-3.37,18.64,2.13,21.1,7.41a6.19,6.19,0,0,1-2.73,8.49c-5.65,3.25-10,6.39-14.25,11.94C584.7,444,582.49,451,577.68,459.82,575.24,464.3,570.53,466.75,565,466.75ZM534.39,404c-1.8,0-4.33,1.08-4.92,2.49-.32.78.1,1.73,1.26,2.81l.7.65a33.9,33.9,0,0,1,6.66,7.61c2.48,4.25,2,8.11,1.43,12.19-.63,4.77-1.35,10.17,1.9,18.42,3,7.72,11.18,12,17.48,14.2,6.85,2.4,13.22.76,15.86-4.1h0c4.68-8.6,6.83-15.49,10.15-28.63a1.88,1.88,0,0,1,.28-.59c4.62-6.15,9.52-9.68,15.46-13.09,1.77-1,2.22-2.39,1.37-4.21-1.89-4-9.61-8.38-16.95-5.69a113.91,113.91,0,0,0-12.61,5.74c-5.76,2.93-10.33,5.24-14.25,4.62-1.51-.25-3.2-1.59-5.76-3.63-4.26-3.4-10.7-8.54-17.92-8.78Z"/><path class="cls-3" d="M513.78,380.4l36.68-59V274.24h30.88v47.13l36.68,59a16.61,16.61,0,0,1-14.1,25.37h-76A16.6,16.6,0,0,1,513.78,380.4Z"/><path class="cls-4" d="M521.94,392.46a6.64,6.64,0,0,0,5.94,3.51h76a6.8,6.8,0,0,0,5.78-10.39L592,357.05H539.84l-17.73,28.53A6.6,6.6,0,0,0,521.94,392.46Z"/><path class="cls-1" d="M542.47,335.89a1.66,1.66,0,0,1-1.41-2.54l7.74-12.45V274.24a1.66,1.66,0,0,1,1.66-1.66h30.88a1.66,1.66,0,0,1,1.66,1.66v20.22a1.66,1.66,0,1,1-3.32,0V275.9H552.12v45.48a1.66,1.66,0,0,1-.25.87l-8,12.85A1.64,1.64,0,0,1,542.47,335.89Z"/><path class="cls-1" d="M533.11,351a1.68,1.68,0,0,1-.88-.25,1.66,1.66,0,0,1-.53-2.29l3-4.78a1.66,1.66,0,0,1,2.82,1.76l-3,4.78A1.67,1.67,0,0,1,533.11,351Z"/><path class="cls-1" d="M603.92,407.43h-76a18.28,18.28,0,0,1-15.52-27.91l8.3-13.35a1.67,1.67,0,0,1,2.83,1.76l-8.3,13.35a14.94,14.94,0,0,0,12.69,22.83h76a14.95,14.95,0,0,0,12.69-22.83l-36.68-59a1.57,1.57,0,0,1-.25-.87V308.52a1.66,1.66,0,1,1,3.32,0V320.9l36.43,58.62a18.27,18.27,0,0,1-15.51,27.91Z"/><rect class="cls-3" x="543.11" y="274.24" width="45.58" height="8.82" transform="translate(1131.8 557.3) rotate(180)"/><path class="cls-1" d="M588.69,284.72H543.11a1.66,1.66,0,0,1-1.67-1.66v-8.82a1.66,1.66,0,0,1,1.67-1.66h45.58a1.66,1.66,0,0,1,1.66,1.66v8.82A1.66,1.66,0,0,1,588.69,284.72Zm-43.92-3.32H587v-5.5H544.77Z"/><circle class="cls-3" cx="583.93" cy="367.05" r="2.57"/><path class="cls-3" d="M561.26,384.46a6.13,6.13,0,1,0,6.13-6.13A6.13,6.13,0,0,0,561.26,384.46Z"/><path class="cls-3" d="M546.81,371.09a1.47,1.47,0,1,0,1.47-1.47A1.47,1.47,0,0,0,546.81,371.09Z"/><path class="cls-3" d="M535.29,381.64a3.31,3.31,0,1,0,3.3-3.31A3.31,3.31,0,0,0,535.29,381.64Z"/><path class="cls-3" d="M591.15,385.44a3.81,3.81,0,1,0,3.81-3.8A3.81,3.81,0,0,0,591.15,385.44Z"/><path class="cls-3" d="M562.46,362.76a1.72,1.72,0,1,0,1.72-1.72A1.71,1.71,0,0,0,562.46,362.76Z"/><path class="cls-3" d="M565.9,248.78c15.85-42.79,5.61-32.55,48.4-48.4-42.79-15.85-32.55-5.61-48.4-48.4-15.85,42.79-5.61,32.55-48.41,48.4C560.29,216.23,550.05,206,565.9,248.78Z"/><path class="cls-1" d="M565.9,250.44a1.67,1.67,0,0,1-1.56-1.08c-2.43-6.56-4.26-11.91-5.73-16.22-6.49-19-6.49-19-25.47-25.47-4.31-1.47-9.67-3.3-16.22-5.73a1.66,1.66,0,0,1,0-3.12c6.55-2.43,11.91-4.26,16.22-5.73,19-6.49,19-6.49,25.47-25.47,1.47-4.31,3.3-9.66,5.73-16.22a1.73,1.73,0,0,1,3.12,0c2.43,6.56,4.26,11.92,5.73,16.22,6.49,19,6.49,19,25.47,25.47,4.3,1.47,9.66,3.3,16.22,5.73a1.67,1.67,0,0,1,0,3.12c-6.56,2.43-11.91,4.26-16.22,5.73-19,6.49-19,6.49-25.47,25.47-1.47,4.3-3.3,9.66-5.73,16.22A1.67,1.67,0,0,1,565.9,250.44Zm-43.56-50.06c4.62,1.67,8.56,3,11.87,4.15,20.33,6.95,20.59,7.21,27.54,27.53,1.14,3.32,2.48,7.26,4.15,11.88,1.67-4.63,3-8.57,4.15-11.88,7-20.33,7.21-20.58,27.53-27.53,3.32-1.14,7.26-2.48,11.88-4.15-4.63-1.67-8.56-3-11.88-4.15C577.26,189.28,577,189,570.05,168.7c-1.14-3.32-2.48-7.26-4.15-11.88-1.67,4.62-3,8.56-4.15,11.87-7,20.33-7.21,20.59-27.53,27.54C530.9,197.36,527,198.71,522.34,200.38Z"/><path class="cls-3" d="M649.16,293.42c8.66-23.37,3.07-17.78,26.44-26.44-23.37-8.65-17.78-3.06-26.44-26.43-8.65,23.37-3.06,17.78-26.43,26.43C646.1,275.64,640.51,270.05,649.16,293.42Z"/><path class="cls-1" d="M649.16,295.08h0a1.65,1.65,0,0,1-1.55-1.08c-1.33-3.59-2.33-6.5-3.14-8.88-3.43-10-3.43-10-13.44-13.44-2.38-.81-5.29-1.81-8.88-3.14a1.66,1.66,0,0,1,0-3.11c3.59-1.33,6.5-2.33,8.88-3.14,10-3.43,10-3.43,13.44-13.44.81-2.39,1.81-5.29,3.14-8.88a1.73,1.73,0,0,1,3.11,0c1.33,3.59,2.32,6.5,3.14,8.88,3.42,10,3.42,10,13.44,13.44,2.38.81,5.29,1.81,8.88,3.14a1.66,1.66,0,0,1,0,3.11c-3.59,1.33-6.5,2.33-8.88,3.14-10,3.42-10,3.42-13.44,13.44-.82,2.38-1.81,5.29-3.14,8.88A1.66,1.66,0,0,1,649.16,295.08ZM627.62,267c1.67.59,3.16,1.09,4.48,1.55,11.24,3.84,11.67,4.27,15.51,15.51.46,1.32,1,2.81,1.55,4.48.59-1.68,1.1-3.16,1.55-4.49,3.85-11.23,4.28-11.66,15.52-15.5l4.48-1.55c-1.68-.6-3.16-1.1-4.48-1.56-11.24-3.84-11.67-4.27-15.52-15.5-.45-1.33-1-2.81-1.55-4.49-.59,1.67-1.09,3.16-1.55,4.48-3.84,11.24-4.27,11.67-15.51,15.51C630.78,265.89,629.29,266.39,627.62,267Z"/><path class="cls-1" d="M561.34,490.1c-7.59,0-16.57-2.13-26.88-8a1.66,1.66,0,1,1,1.65-2.88c34.32,19.6,52.45-5.14,52.63-5.39a1.66,1.66,0,1,1,2.71,1.92A38.83,38.83,0,0,1,561.34,490.1Z"/><path class="cls-1" d="M490.2,558.85H490a1.65,1.65,0,0,1-1.5-1.8c3.57-39.65,18.89-79.32,19-79.72a1.66,1.66,0,0,1,3.1,1.21c-.15.39-15.3,39.64-18.83,78.8A1.67,1.67,0,0,1,490.2,558.85Z"/><path class="cls-1" d="M478.43,534.25a1.63,1.63,0,0,1-1.3-.64,1.66,1.66,0,0,1,.27-2.33c9.33-7.35,17-5.82,17.37-5.75a1.68,1.68,0,0,1,1.28,2,1.66,1.66,0,0,1-2,1.28c-.3-.06-6.62-1.2-14.62,5.1A1.68,1.68,0,0,1,478.43,534.25Z"/><path class="cls-1" d="M523.77,606.06a1.66,1.66,0,0,1-.76-3.13l10.58-5.47-17-3.64a1.66,1.66,0,0,1-.06-3.24l22.8-5.68a1.66,1.66,0,1,1,.8,3.22l-15.83,4,14.55,3.11a1.66,1.66,0,0,1,.41,3.1l-14.7,7.6A1.7,1.7,0,0,1,523.77,606.06Z"/><path class="cls-1" d="M381.05,550.68a120.21,120.21,0,0,1-22.9-2,1.66,1.66,0,0,1,.64-3.26c31.74,6.23,73.12-4.48,73.54-4.59a1.66,1.66,0,1,1,.84,3.22C432.85,544.13,407.53,550.68,381.05,550.68Z"/><polygon class="cls-2" points="649.16 487.32 679.54 507.17 679.54 546.87 649.16 566.72 618.78 546.87 618.78 507.17 649.16 487.32"/><path class="cls-1" d="M649.16,568.38a1.69,1.69,0,0,1-.91-.27l-30.37-19.85a1.67,1.67,0,0,1-.76-1.39v-39.7a1.67,1.67,0,0,1,.76-1.39l30.37-19.85a1.67,1.67,0,0,1,1.82,0l30.38,19.85a1.66,1.66,0,0,1,.75,1.39v39.7a1.66,1.66,0,0,1-.75,1.39l-30.38,19.85A1.64,1.64,0,0,1,649.16,568.38ZM620.44,546l28.72,18.76L677.88,546v-37.9l-28.72-18.76-28.72,18.76Z"/><path class="cls-1" d="M695.71,486.13a1.64,1.64,0,0,1-.91-.27L664.42,466a1.67,1.67,0,0,1-.75-1.4V424.93a1.65,1.65,0,0,1,.75-1.39l30.38-19.85a1.67,1.67,0,0,1,1.82,0L727,423.54a1.67,1.67,0,0,1,.75,1.39v39.69A1.69,1.69,0,0,1,727,466l-30.38,19.84A1.69,1.69,0,0,1,695.71,486.13ZM667,463.72l28.72,18.77,28.72-18.77V425.83l-28.72-18.77L667,425.83Z"/><path class="cls-1" d="M115.78,223.41a1.68,1.68,0,0,1-.89-.26c-2.25-1.43-55.07-35.41-62.85-80.08a1.66,1.66,0,0,1,3.27-.57c7,40.14,53.42,72.55,60.47,77.25,7-4.71,53.46-37.14,60.45-77.25a1.66,1.66,0,0,1,3.27.57c-7.78,44.67-60.59,78.65-62.83,80.08A1.7,1.7,0,0,1,115.78,223.41Z"/><path class="cls-1" d="M115.77,402.09a1.67,1.67,0,0,1-.89-.25c-2.61-1.66-63.78-41.07-63.78-90.75s61.17-89.1,63.78-90.75a1.68,1.68,0,0,1,1.78,0c2.6,1.65,63.78,41.06,63.78,90.75s-61.18,89.09-63.78,90.75A1.67,1.67,0,0,1,115.77,402.09Zm0-178.36c-7.62,5.1-61.35,42.68-61.35,87.36s53.73,82.25,61.35,87.35c7.62-5.1,61.35-42.67,61.35-87.35S123.39,228.83,115.77,223.73Z"/><path class="cls-1" d="M178,481.56a1.66,1.66,0,0,1-1.64-1.39c-6.68-40.33-53.46-73-60.53-77.75-7.08,4.73-53.87,37.42-60.56,77.75a1.66,1.66,0,0,1-3.28-.54c7.45-44.91,60.68-79.16,63-80.6a1.66,1.66,0,0,1,1.78,0c2.26,1.44,55.48,35.69,62.92,80.6a1.66,1.66,0,0,1-1.36,1.91Z"/><path class="cls-4" d="M163,156.3H68.5a1.66,1.66,0,0,1,0-3.32H163a1.66,1.66,0,0,1,0,3.32Z"/><path class="cls-2" d="M148.71,178.58H82.83a1.67,1.67,0,0,1,0-3.33h65.88a1.67,1.67,0,0,1,0,3.33Z"/><path class="cls-4" d="M125.42,200.83h-19.3a1.66,1.66,0,1,1,0-3.32h19.3a1.66,1.66,0,0,1,0,3.32Z"/><path class="cls-4" d="M125.44,245.36H106.11a1.67,1.67,0,1,1,0-3.33h19.33a1.67,1.67,0,0,1,0,3.33Z"/><path class="cls-2" d="M148.73,267.61H82.81a1.66,1.66,0,1,1,0-3.32h65.92a1.66,1.66,0,1,1,0,3.32Z"/><path class="cls-4" d="M163,289.86H68.5a1.66,1.66,0,1,1,0-3.32H163a1.66,1.66,0,1,1,0,3.32Z"/><path class="cls-2" d="M168.2,312.14H63.34a1.67,1.67,0,0,1,0-3.33H168.2a1.67,1.67,0,0,1,0,3.33Z"/><path class="cls-4" d="M163.57,334.39H68a1.66,1.66,0,0,1,0-3.32h95.6a1.66,1.66,0,0,1,0,3.32Z"/><path class="cls-2" d="M149.77,356.64h-68a1.66,1.66,0,0,1,0-3.32h68a1.66,1.66,0,0,1,0,3.32Z"/><path class="cls-4" d="M127,378.92H104.58a1.67,1.67,0,1,1,0-3.33H127a1.67,1.67,0,0,1,0,3.33Z"/><path class="cls-4" d="M124.28,423.43H108.2a1.67,1.67,0,0,1,0-3.33h16.08a1.67,1.67,0,0,1,0,3.33Z"/><path class="cls-2" d="M148.16,445.7H84.32a1.66,1.66,0,1,1,0-3.32h63.84a1.66,1.66,0,1,1,0,3.32Z"/><path class="cls-4" d="M162.94,468H69.54a1.66,1.66,0,0,1,0-3.32h93.4a1.66,1.66,0,1,1,0,3.32Z"/><path class="cls-1" d="M665.33,499.54a1.59,1.59,0,0,1-.91-.27,1.66,1.66,0,0,1-.48-2.3l15.16-23.11a1.66,1.66,0,0,1,2.78,1.82l-15.16,23.11A1.65,1.65,0,0,1,665.33,499.54Z"/><path class="cls-3" d="M240.71,495a1.66,1.66,0,0,1-1.05-.37,32.45,32.45,0,0,1-2.91-2.81,1.66,1.66,0,0,1,2.43-2.27,28.65,28.65,0,0,0,2.58,2.49,1.67,1.67,0,0,1,.24,2.34A1.65,1.65,0,0,1,240.71,495Z"/><path class="cls-3" d="M225.7,470.5a1.67,1.67,0,0,1-1.6-1.21,59.26,59.26,0,0,1-.7-28.75c4.42-20.91,23.31-24.59,43.3-28.48,24.4-4.76,49.64-9.67,53.4-46.05a1.66,1.66,0,0,1,3.31.34c-4,38.83-31.68,44.22-56.08,49-19.7,3.84-36.72,7.15-40.68,25.91a56,56,0,0,0,.65,27.15,1.66,1.66,0,0,1-1.15,2.05A1.41,1.41,0,0,1,225.7,470.5Z"/><path class="cls-3" d="M505.39,446.85h-.1a1.66,1.66,0,0,1-1.56-1.76c.11-1.78.15-3.58.12-5.35a1.67,1.67,0,0,1,1.64-1.69h0a1.66,1.66,0,0,1,1.66,1.64c0,1.85,0,3.74-.13,5.6A1.65,1.65,0,0,1,505.39,446.85Z"/><path class="cls-3" d="M501.91,420.15a1.66,1.66,0,0,1-1.58-1.13,78.3,78.3,0,0,0-25.8-36,1.66,1.66,0,0,1,1.91-2.72,80.25,80.25,0,0,1,27,37.68,1.67,1.67,0,0,1-1.05,2.11A1.88,1.88,0,0,1,501.91,420.15Z"/><path class="cls-1" d="M197.09,407.43a1.77,1.77,0,0,1-.6-.11,1.65,1.65,0,0,1-1-2.15c14.68-38,38.41-39.7,57.48-41.06,10.44-.75,19.45-1.39,24.5-8.07a1.66,1.66,0,1,1,2.65,2c-6,7.89-15.67,8.58-26.91,9.38-19.08,1.37-40.7,2.91-54.63,38.95A1.65,1.65,0,0,1,197.09,407.43Z"/><path class="cls-1" d="M283.88,341.66h-.09a1.66,1.66,0,0,1-1.57-1.75c.08-1.35.12-2.77.12-4.27a1.67,1.67,0,0,1,3.33,0c0,1.57-.05,3.05-.13,4.46A1.66,1.66,0,0,1,283.88,341.66Z"/><path class="cls-1" d="M469.12,289.86a1.65,1.65,0,0,1-1.46-2.46c.72-1.29,1.36-2.6,1.92-3.88a1.66,1.66,0,1,1,3.05,1.33c-.6,1.38-1.3,2.77-2.06,4.15A1.65,1.65,0,0,1,469.12,289.86Z"/><path class="cls-1" d="M474.41,270.8a1.66,1.66,0,0,1-1.67-1.65c-.17-19.93-20.41-31.49-20.61-31.61a1.66,1.66,0,1,1,1.62-2.9c.91.51,22.13,12.64,22.32,34.48a1.66,1.66,0,0,1-1.65,1.68Z"/><path class="cls-1" d="M552.4,643.48a1.66,1.66,0,0,1-.57-3.22,53.11,53.11,0,0,0,7.85-3.64,1.66,1.66,0,0,1,1.64,2.89,55.86,55.86,0,0,1-8.35,3.87A1.63,1.63,0,0,1,552.4,643.48Z"/><path class="cls-1" d="M579.12,623.34a1.68,1.68,0,0,1-1-.36,1.66,1.66,0,0,1-.27-2.33c20.08-25.39,24.58-63.27,24.62-63.65a1.68,1.68,0,0,1,1.84-1.47,1.66,1.66,0,0,1,1.46,1.84c-.17,1.59-4.65,39.21-25.32,65.34A1.65,1.65,0,0,1,579.12,623.34Z"/><path class="cls-1" d="M101.78,637.92a1.67,1.67,0,0,1-1.55-1.06l-2.85-7.39a1.66,1.66,0,0,1,3.1-1.2l2.85,7.39a1.66,1.66,0,0,1-1,2.15A1.59,1.59,0,0,1,101.78,637.92Z"/><path class="cls-1" d="M86.63,598.72a1.67,1.67,0,0,1-1.55-1.07l-33-85.29a1.66,1.66,0,0,1,3.1-1.2l33,85.29a1.67,1.67,0,0,1-1,2.15A1.61,1.61,0,0,1,86.63,598.72Z"/><path class="cls-1" d="M635.77,407.43a1.66,1.66,0,1,1,0-3.32,11.26,11.26,0,0,0,9.28-17.62L633.7,369.94a1.66,1.66,0,0,1,2.74-1.88l11.35,16.56a14.57,14.57,0,0,1-12,22.81Z"/><path class="cls-1" d="M618.78,346.89a1.65,1.65,0,0,1-1.37-.72l-16.83-24.56a1.63,1.63,0,0,1-.29-.94V290.22a1.66,1.66,0,1,1,3.32,0v29.94l16.54,24.13a1.67,1.67,0,0,1-1.37,2.6Z"/><path class="cls-1" d="M719.09,497.66a1.65,1.65,0,0,1-1.37-.72,1.67,1.67,0,0,1,.43-2.31l4.45-3.05a1.66,1.66,0,1,1,1.88,2.74L720,497.37A1.61,1.61,0,0,1,719.09,497.66Z"/><path class="cls-1" d="M736.31,485.86a1.66,1.66,0,0,1-.94-3L748.31,474V424.52a1.66,1.66,0,1,1,3.32,0v50.31a1.68,1.68,0,0,1-.72,1.38l-13.66,9.36A1.65,1.65,0,0,1,736.31,485.86Z"/><path class="cls-1" d="M626.84,581a1.66,1.66,0,0,1-.83-.22l-4.11-2.38a1.66,1.66,0,1,1,1.66-2.87l4.11,2.37a1.66,1.66,0,0,1-.83,3.1Z"/><path class="cls-1" d="M649.16,593.86a1.68,1.68,0,0,1-.83-.23L638.5,588a1.66,1.66,0,0,1,1.66-2.88l8.9,5.14,36.7-26.85a1.66,1.66,0,0,1,2,2.68l-37.58,27.5A1.66,1.66,0,0,1,649.16,593.86Z"/><path class="cls-3" d="M640.6,512.26a1.14,1.14,0,0,1,1.14,1.14V525h14.85V513.4a1.13,1.13,0,0,1,1.13-1.14h1.73a1.13,1.13,0,0,1,1.14,1.14v27.24a1.08,1.08,0,0,1-.33.82,1.17,1.17,0,0,1-.81.32h-1.73a1.1,1.1,0,0,1-.8-.34,1.11,1.11,0,0,1-.33-.8V528.75H641.74v11.89a1.08,1.08,0,0,1-.34.8,1.07,1.07,0,0,1-.8.34h-1.73a1.1,1.1,0,0,1-.8-.34,1.12,1.12,0,0,1-.34-.8V513.4a1.14,1.14,0,0,1,.34-.81,1.13,1.13,0,0,1,.8-.33Z"/><polygon class="cls-4" points="263.36 229.44 293.74 249.29 293.74 288.99 263.36 308.84 232.98 288.99 232.98 249.29 263.36 229.44"/><path class="cls-1" d="M263.36,310.5a1.67,1.67,0,0,1-.91-.27l-30.38-19.85a1.66,1.66,0,0,1-.75-1.39v-39.7a1.66,1.66,0,0,1,.75-1.39l30.38-19.85a1.67,1.67,0,0,1,1.82,0l30.38,19.85a1.66,1.66,0,0,1,.75,1.39V289a1.66,1.66,0,0,1-.75,1.39l-30.38,19.85A1.67,1.67,0,0,1,263.36,310.5Zm-28.72-22.41,28.72,18.76,28.72-18.76v-37.9l-28.72-18.76-28.72,18.76Z"/><path class="cls-3" d="M254.8,254.38a1.16,1.16,0,0,1,1.14,1.14v11.55h14.84V255.52a1.1,1.1,0,0,1,.34-.8,1.08,1.08,0,0,1,.8-.34h1.73a1.16,1.16,0,0,1,1.14,1.14v27.24a1.05,1.05,0,0,1-.34.82,1.09,1.09,0,0,1-.8.32h-1.73a1.08,1.08,0,0,1-.8-.34,1.1,1.1,0,0,1-.34-.8V270.87H255.94v11.89a1.16,1.16,0,0,1-1.14,1.14h-1.73a1.08,1.08,0,0,1-.8-.34,1.1,1.1,0,0,1-.34-.8V255.52a1.1,1.1,0,0,1,.34-.8,1.08,1.08,0,0,1,.8-.34Z"/><path class="cls-1" d="M707.35,448.53a14.19,14.19,0,0,1-.87,4.45,10.76,10.76,0,0,1-2.25,3.65,10.43,10.43,0,0,1-3.61,2.44,14,14,0,0,1-9.83,0,10.29,10.29,0,0,1-3.6-2.44,10.78,10.78,0,0,1-2.26-3.65,14.18,14.18,0,0,1-.86-4.45q-.14-3.75,0-7.51a13.36,13.36,0,0,1,.82-4.45,10.32,10.32,0,0,1,2.26-3.62,10.72,10.72,0,0,1,3.62-2.45,13.84,13.84,0,0,1,9.87,0,10.67,10.67,0,0,1,3.63,2.45,10.44,10.44,0,0,1,2.25,3.62,13.12,13.12,0,0,1,.83,4.45Q707.47,444.79,707.35,448.53ZM688,444.78c0,1.09,0,2.27.08,3.54a11,11,0,0,0,.66,3.46,6.44,6.44,0,0,0,4,3.9,9.71,9.71,0,0,0,6,0,6.64,6.64,0,0,0,2.39-1.46,6.82,6.82,0,0,0,1.6-2.44,10,10,0,0,0,.63-3.46q.09-1.9.09-3.54c0-1.1,0-2.28-.09-3.55a9.92,9.92,0,0,0-.63-3.45,6.86,6.86,0,0,0-1.6-2.45,6.48,6.48,0,0,0-2.39-1.45,9.52,9.52,0,0,0-6,0,6.44,6.44,0,0,0-2.38,1.45,6.69,6.69,0,0,0-1.58,2.45,10.91,10.91,0,0,0-.66,3.45C688,442.5,688,443.68,688,444.78Z"/><path class="cls-2" d="M63.05,265.83a6.49,6.49,0,1,0,6.49-6.5A6.49,6.49,0,0,0,63.05,265.83Z"/><path class="cls-1" d="M69.54,274a8.16,8.16,0,1,1,8.16-8.15A8.16,8.16,0,0,1,69.54,274Zm0-13a4.83,4.83,0,1,0,4.83,4.83A4.83,4.83,0,0,0,69.54,261Z"/><path class="cls-2" d="M156.45,444a6.5,6.5,0,1,0,6.49-6.5A6.5,6.5,0,0,0,156.45,444Z"/><path class="cls-1" d="M162.94,452.19A8.16,8.16,0,1,1,171.1,444,8.16,8.16,0,0,1,162.94,452.19Zm0-13a4.84,4.84,0,1,0,4.84,4.84A4.84,4.84,0,0,0,162.94,439.2Z"/><path class="cls-2" d="M156.55,176.92a6.5,6.5,0,1,0,6.49-6.5A6.49,6.49,0,0,0,156.55,176.92Z"/><path class="cls-1" d="M163,185.07a8.16,8.16,0,1,1,8.16-8.15A8.17,8.17,0,0,1,163,185.07Zm0-13a4.84,4.84,0,1,0,4.83,4.84A4.84,4.84,0,0,0,163,172.08Z"/><path class="cls-4" d="M50.12,154.64a6.5,6.5,0,1,0,6.49-6.49A6.5,6.5,0,0,0,50.12,154.64Z"/><path class="cls-1" d="M56.61,162.8a8.16,8.16,0,1,1,8.16-8.16A8.17,8.17,0,0,1,56.61,162.8Zm0-13a4.83,4.83,0,1,0,4.84,4.83A4.84,4.84,0,0,0,56.61,149.81Z"/><path class="cls-4" d="M168.73,332.73a6.5,6.5,0,1,0,6.5-6.49A6.49,6.49,0,0,0,168.73,332.73Z"/><path class="cls-1" d="M175.23,340.89a8.16,8.16,0,1,1,8.15-8.16A8.17,8.17,0,0,1,175.23,340.89Zm0-13a4.83,4.83,0,1,0,4.83,4.83A4.84,4.84,0,0,0,175.23,327.9Z"/><path class="cls-4" d="M50.72,466.29a6.49,6.49,0,1,0,6.49-6.49A6.48,6.48,0,0,0,50.72,466.29Z"/><path class="cls-1" d="M57.21,474.45a8.16,8.16,0,1,1,8.16-8.16A8.17,8.17,0,0,1,57.21,474.45Zm0-13A4.83,4.83,0,1,0,62,466.29,4.83,4.83,0,0,0,57.21,461.46Z"/><path class="cls-3" d="M476.42,170.42a27.89,27.89,0,0,1-27.9,27.9H246.84a27.9,27.9,0,1,1,0-55.79H448.52A27.89,27.89,0,0,1,476.42,170.42Z"/><path class="cls-2" d="M476.42,170.42a27.89,27.89,0,0,1-27.9,27.9H407.21V142.53h41.31A27.89,27.89,0,0,1,476.42,170.42Z"/><path class="cls-1" d="M448.52,200H246.83a29.56,29.56,0,0,1,0-59.11H448.52a29.56,29.56,0,1,1,0,59.11ZM246.83,144.19a26.24,26.24,0,0,0,0,52.47H448.52a26.24,26.24,0,1,0,0-52.47Z"/><path class="cls-3" d="M443.58,178.65a11.3,11.3,0,1,1,11.3-11.3A11.31,11.31,0,0,1,443.58,178.65Zm0-19.27a8,8,0,1,0,8,8A8,8,0,0,0,443.58,159.38Z"/><path class="cls-3" d="M426.49,184.79a1.66,1.66,0,0,1-1.15-2.86l9.86-9.43a1.65,1.65,0,0,1,2.35.05,1.67,1.67,0,0,1-.05,2.35l-9.86,9.43A1.67,1.67,0,0,1,426.49,184.79Z"/><path class="cls-1" d="M407.21,158.65a1.67,1.67,0,0,1-1.66-1.66v-5.82a1.66,1.66,0,0,1,3.32,0V157A1.66,1.66,0,0,1,407.21,158.65Z"/><path class="cls-1" d="M407.21,194a1.67,1.67,0,0,1-1.66-1.66V164.11a1.66,1.66,0,0,1,3.32,0v28.27A1.66,1.66,0,0,1,407.21,194Z"/></svg>