<svg id="Layer_1" data-name="Layer 1" xmlns="http://www.w3.org/2000/svg" viewBox="0 0 250 250"><defs><style>.cls-1{fill:#f3e5da;}.cls-2{fill:none;stroke:#f3e5da;stroke-miterlimit:10;stroke-width:2px;}</style></defs><title>logo</title><path class="cls-1" d="M89.33,225.83a5.54,5.54,0,0,1-.69,1.35,11.63,11.63,0,0,1-.75,1.42c-.12.17-.24.26-.37.26H67.07c-.17,0-.26-.07-.26-.22v-.71a.19.19,0,0,1,.21-.21h3.23c.26,0,.38-.15.38-.45,0-.13,0-1-.06-2.6s0-5.16,0-10.66.09-8.38.09-8.66c0-3-.28-4.57-.84-4.57H67.41c-.2,0-.3-.09-.3-.26v-.62a.23.23,0,0,1,.26-.26H79c.14,0,.22.06.22.17v.75c0,.15-.06.22-.18.22H74.72a.35.35,0,0,0-.39.3c0,.2-.12,3.69-.22,10.48Q74,221.15,74,222.48q0,5,1.13,5,6.94,0,8-.09a12.2,12.2,0,0,0,5.39-1.52,2,2,0,0,1,.62-.32A.42.42,0,0,1,89.33,225.83Z"/><path class="cls-1" d="M119.42,213.63q0,6.78-3.26,10.61a14.93,14.93,0,0,1-1.89,1.95,14.68,14.68,0,0,1-4.08,2.17,15.35,15.35,0,0,1-5.25.76q-5.13,0-7.73-1.32A10.16,10.16,0,0,1,94,225.38a11.08,11.08,0,0,1-2.28-4,22.91,22.91,0,0,1-.83-6.85,18.71,18.71,0,0,1,.79-5.5,12.44,12.44,0,0,1,8.19-8.66,15,15,0,0,1,5.5-1,17.67,17.67,0,0,1,7,1.1,10.43,10.43,0,0,1,4.28,3.35Q119.42,207.59,119.42,213.63ZM116,214.79a18.7,18.7,0,0,0-.71-5.42,12.19,12.19,0,0,0-2.53-4.66A10.37,10.37,0,0,0,109,202a13.12,13.12,0,0,0-5.07-1,8.27,8.27,0,0,0-4.74,1,10.26,10.26,0,0,0-3.66,4.17,18.22,18.22,0,0,0-1.33,7.35q0,6.39,2.39,10.07a9.93,9.93,0,0,0,4.32,3.57,11.49,11.49,0,0,0,4.92,1.05,9.24,9.24,0,0,0,8.93-6.1A18,18,0,0,0,116,214.79Z"/><path class="cls-1" d="M151.72,216.22c0,.19-.09.28-.26.28h-3.07a.23.23,0,0,0-.26.26c0-.11,0,.34-.06,1.37s0,2,0,3q0,2.67.15,4.92c0,.2-.08.32-.24.35a10.6,10.6,0,0,0-3.15,1.11,18.68,18.68,0,0,1-7.8,1.66,20.69,20.69,0,0,1-6.56-.73,11.88,11.88,0,0,1-5.5-4.23q-2.23-3.22-2.23-8.86a15.49,15.49,0,0,1,3.61-10,15.94,15.94,0,0,1,7.82-4.79,25.56,25.56,0,0,1,7.39-.88,22.48,22.48,0,0,1,7,.79c.17.06.26.16.26.3s0,.4-.11,1-.13,1-.15,1.12q-.21,2.19-.3,2.58c0,.15-.12.23-.24.23s-.3-.06-.3-.19a3.83,3.83,0,0,0-.13-1,2.54,2.54,0,0,0-1.13-1.44c-1.67-1.09-4.19-1.63-7.59-1.63a14.26,14.26,0,0,0-4.64.64,11.55,11.55,0,0,0-4.55,3.14,13.3,13.3,0,0,0-3.42,9.41q0,6.3,3.65,9.95a10.52,10.52,0,0,0,4.73,2.83,18.69,18.69,0,0,0,4.73.47,9,9,0,0,0,5.13-1.67.69.69,0,0,0,.19-.39v-3.8c0-1.36,0-2.31,0-2.86q-.15-2.58-.45-2.58h-4.62c-.17,0-.26-.13-.26-.4v-.43q0-.33.3-.33h11.89c.2,0,.3.1.3.28Z"/><path class="cls-1" d="M183.23,213.63q0,6.78-3.26,10.61a14.93,14.93,0,0,1-1.89,1.95,14.68,14.68,0,0,1-4.08,2.17,15.35,15.35,0,0,1-5.25.76q-5.13,0-7.73-1.32a10.16,10.16,0,0,1-3.18-2.42,11.08,11.08,0,0,1-2.28-4,22.87,22.87,0,0,1-.84-6.85,18.71,18.71,0,0,1,.8-5.5,12.45,12.45,0,0,1,8.18-8.66,15.08,15.08,0,0,1,5.5-1,17.69,17.69,0,0,1,7,1.1,10.4,10.4,0,0,1,4.27,3.35Q183.23,207.59,183.23,213.63Zm-3.39,1.16a18.7,18.7,0,0,0-.71-5.42,12.21,12.21,0,0,0-2.54-4.66,10.42,10.42,0,0,0-3.78-2.73,13.16,13.16,0,0,0-5.07-1,8.27,8.27,0,0,0-4.74,1,10.26,10.26,0,0,0-3.66,4.17A18.05,18.05,0,0,0,158,213.5q0,6.39,2.39,10.07a9.84,9.84,0,0,0,4.31,3.57,11.55,11.55,0,0,0,4.92,1.05,9.91,9.91,0,0,0,5.55-1.67,10.06,10.06,0,0,0,3.39-4.43A18,18,0,0,0,179.84,214.79Z"/><circle class="cls-2" cx="125" cy="101.65" r="87.74"/><line class="cls-2" x1="144.67" y1="16.12" x2="39.77" y2="121.03"/><line class="cls-2" x1="68.68" y1="168.93" x2="191.13" y2="46.48"/><line class="cls-2" x1="133.88" y1="103.73" x2="190.44" y2="160.29"/><circle class="cls-1" cx="120.58" cy="92.32" r="9.33"/><circle class="cls-1" cx="191.13" cy="160.29" r="15.98"/></svg>