<svg id="Layer_3" data-name="Layer 3" xmlns="http://www.w3.org/2000/svg" viewBox="0 0 250 250"><defs><style>.cls-1,.cls-2{fill:none;stroke-linecap:round;stroke-miterlimit:10;}.cls-1{stroke:#f3e5da;}.cls-2{stroke:#f4e5da;}</style></defs><title>publications</title><rect class="cls-1" x="31.39" y="25" width="178.14" height="200" rx="19.52"/><line class="cls-1" x1="78.8" y1="25" x2="78.8" y2="225"/><line class="cls-1" x1="95.92" y1="177.44" x2="191.73" y2="177.44"/><line class="cls-1" x1="20.35" y1="225" x2="231.51" y2="225"/><path class="cls-1" d="M31.39,177.32H21.78a3.29,3.29,0,0,0-3.29,3.29V193a3.29,3.29,0,0,0,3.29,3.29h9.61"/><path class="cls-1" d="M31.39,133.9H21.78a3.29,3.29,0,0,0-3.29,3.3v12.4a3.29,3.29,0,0,0,3.29,3.29h9.61"/><path class="cls-1" d="M31.39,90.48H21.78a3.29,3.29,0,0,0-3.29,3.3v12.4a3.29,3.29,0,0,0,3.29,3.3h9.61"/><path class="cls-1" d="M31.39,47.06H21.78a3.29,3.29,0,0,0-3.29,3.3v12.4a3.29,3.29,0,0,0,3.29,3.3h9.61"/><polygon class="cls-1" points="149.78 92.36 162.66 80.97 171.88 91.41 161.2 100.85 175.45 100.85 175.45 114.77 161.2 114.77 171.88 124.21 162.66 134.64 149.78 123.26 149.78 140.45 135.85 140.45 135.85 123.26 122.97 134.64 113.75 124.21 124.43 114.77 110.18 114.77 110.18 100.85 124.43 100.85 113.75 91.41 122.97 80.97 135.85 92.36 135.85 75.17 149.78 75.17 149.78 92.36"/><line class="cls-1" x1="95.92" y1="187.5" x2="191.73" y2="187.5"/><line class="cls-2" x1="25" y1="237.5" x2="225" y2="237.5"/></svg>