<svg id="Layer_3" data-name="Layer 3" xmlns="http://www.w3.org/2000/svg" viewBox="0 0 250 250"><defs><style>.cls-1{fill:none;stroke:#f3e5da;stroke-miterlimit:10;}</style></defs><title>publications</title><rect class="cls-1" x="38.26" y="25" width="165.07" height="185.32" rx="19.52"/><line class="cls-1" x1="82.19" y1="25" x2="82.19" y2="210.32"/><line class="cls-1" x1="98.05" y1="160.44" x2="186.83" y2="160.44"/><line class="cls-1" x1="100.82" y1="175.12" x2="186.83" y2="175.12"/><line class="cls-1" x1="28.03" y1="210.32" x2="223.7" y2="210.32"/><line class="cls-1" x1="62.37" y1="225" x2="189.21" y2="225"/><path class="cls-1" d="M38.26,166.14h-8.9a3.06,3.06,0,0,0-3.06,3.05v11.5a3.06,3.06,0,0,0,3.06,3.05h8.9"/><path class="cls-1" d="M38.26,125.91h-8.9A3.06,3.06,0,0,0,26.3,129v11.5a3.06,3.06,0,0,0,3.06,3h8.9"/><path class="cls-1" d="M38.26,85.68h-8.9a3.05,3.05,0,0,0-3.06,3v11.49a3.06,3.06,0,0,0,3.06,3.06h8.9"/><path class="cls-1" d="M38.26,45.44h-8.9A3.06,3.06,0,0,0,26.3,48.5V60a3.05,3.05,0,0,0,3.06,3h8.9"/><polygon class="cls-1" points="147.96 87.42 159.89 76.87 168.44 86.53 158.54 95.28 171.75 95.28 171.75 108.18 158.55 108.18 168.44 116.93 159.89 126.6 147.96 116.05 147.96 131.97 135.06 131.97 135.06 116.05 123.12 126.6 114.58 116.93 124.47 108.18 111.27 108.18 111.27 95.28 124.47 95.28 114.58 86.53 123.12 76.87 135.06 87.42 135.06 71.49 147.96 71.49 147.96 87.42"/></svg>