<svg id="Layer_1" data-name="Layer 1" xmlns="http://www.w3.org/2000/svg" viewBox="0 0 250 250"><defs><style>.cls-1,.cls-2{fill:#3567b1;}.cls-2{fill-rule:evenodd;}</style></defs><title>snapchat</title><path class="cls-1" d="M125.3,246.55a122,122,0,1,1,122-122A122.13,122.13,0,0,1,125.3,246.55Zm0-240a118,118,0,1,0,118,118A118.13,118.13,0,0,0,125.3,6.55Z"/><path class="cls-2" d="M187,153.19v0l-.11-.08h0a15.4,15.4,0,0,0-4-1.45s-.06,0-.06,0a34.26,34.26,0,0,1-16.39-11.94,37.79,37.79,0,0,1-5.61-9.8v-.06a4.76,4.76,0,0,1,.2-4.19,0,0,0,0,0,0,0c1.18-1.68,3.35-2.75,5.64-3.59h0a21.71,21.71,0,0,0,7.63-3.93s0,0,.06,0a4.6,4.6,0,0,0,1.1-1.41,3.35,3.35,0,0,0,0-2.52v0a6.19,6.19,0,0,0-2.66-2.54h0a5.53,5.53,0,0,0-4.57-.41h0a29.16,29.16,0,0,1-4.05,1.19.11.11,0,0,0-.09,0,9.35,9.35,0,0,1-4.59-.12c0-.17,0-.55-.09-1h0c-.12-2.78.14-5.64.17-8.62v0a79.24,79.24,0,0,0-.34-13.82v0c-1.48-7.9-6.54-14.69-13-19.2a32.49,32.49,0,0,0-15.84-5.64h0c-1.94-.17-3.82-.23-5.7-.23-7.6.06-15.49,2.05-21.65,6.88A34.94,34.94,0,0,0,92.52,84.26v0c-2.19,5.49-2,11.37-1.7,16.8h0c.17,3.82.6,7.52.26,11a1.36,1.36,0,0,1-.06.24,15.17,15.17,0,0,1-5.44-.15h0a38,38,0,0,1-4.17-1.16.11.11,0,0,1-.08,0,5,5,0,0,0-4,.92s-.06,0-.06,0-.06,0-.06.06a4.13,4.13,0,0,0-2.22,3.32,1.14,1.14,0,0,0,0,.32s0,0,0,0A3.84,3.84,0,0,0,76.33,118c.58.5,1.1.82,1.42,1.07,0,0,.06,0,.09.06,2.77,1.85,5.84,2.66,8.53,3.7h0c1.85.81,3.44,2.06,3.81,3.65.46,2-.4,4.3-1.5,6.53v0a40.22,40.22,0,0,1-13,14.83,31.23,31.23,0,0,1-9.52,4.34.48.48,0,0,0-.14.06,5.35,5.35,0,0,0-3.38,2c-.06.12-.12.23-.18.38a2.9,2.9,0,0,0,.55,2.66,4.38,4.38,0,0,0,1.45,1.13s0,0,.08,0a33.5,33.5,0,0,0,8.79,3.06,0,0,0,0,1,0,0,29.87,29.87,0,0,1,5.5,1.36c0,.11.23.64.57,1.5.52,1.56.76,3.38,1.33,5.32A1.65,1.65,0,0,0,82,170.74a3.12,3.12,0,0,0,2.11-.17h.17c4.75-.84,9.52-1.56,13.88-.49h0c4.57,1.21,8.56,4.36,13,7v0h0c3,1.85,6.42,3.67,10.41,3.82h0a73.61,73.61,0,0,0,8.82-.21h0a16.14,16.14,0,0,0,6.94-2.37.14.14,0,0,1,.09-.05c4.71-2.69,8.88-5.9,13.47-7.93h0a22.27,22.27,0,0,1,5.41-.63h.06a70,70,0,0,1,11.39.58.81.81,0,0,0,.38,0,2.15,2.15,0,0,0,1.3-.73,1.71,1.71,0,0,0,.4-.81c.12-.37.2-.55,0-.23a1.33,1.33,0,0,0,.15-.32c.69-2.28,1.06-4.33,2.19-5.6a3.3,3.3,0,0,1,2.34-.73h.21a41.19,41.19,0,0,0,9-2.54.15.15,0,0,1,.11,0,8,8,0,0,0,3.68-2.46v0h0a2.59,2.59,0,0,0-.79-3.7Z"/></svg>