<svg id="Layer_3" data-name="Layer 3" xmlns="http://www.w3.org/2000/svg" viewBox="0 0 250 250"><defs><style>.cls-1{fill:none;stroke:#f3e5da;stroke-miterlimit:10;}</style></defs><title>tools</title><path class="cls-1" d="M33.86,31.25H125a0,0,0,0,1,0,0V125a0,0,0,0,1,0,0H25a0,0,0,0,1,0,0V40.11a8.86,8.86,0,0,1,8.86-8.86Z"/><line class="cls-1" x1="75" y1="46.88" x2="75" y2="109.38"/><line class="cls-1" x1="43.75" y1="78.13" x2="106.25" y2="78.13"/><path class="cls-1" d="M125,31.25h91.14A8.86,8.86,0,0,1,225,40.11V125a0,0,0,0,1,0,0H125a0,0,0,0,1,0,0V31.25A0,0,0,0,1,125,31.25Z"/><line class="cls-1" x1="143.75" y1="67.8" x2="206.25" y2="67.8"/><line class="cls-1" x1="143.75" y1="88.45" x2="206.25" y2="88.45"/><path class="cls-1" d="M25,125H125a0,0,0,0,1,0,0v93.75a0,0,0,0,1,0,0H33.86A8.86,8.86,0,0,1,25,209.89V125a0,0,0,0,1,0,0Z"/><line class="cls-1" x1="50" y1="171.88" x2="100" y2="171.88"/><path class="cls-1" d="M125,125H225a0,0,0,0,1,0,0v84.89a8.86,8.86,0,0,1-8.86,8.86H125a0,0,0,0,1,0,0V125A0,0,0,0,1,125,125Z"/><line class="cls-1" x1="152.9" y1="149.78" x2="197.1" y2="193.97"/><line class="cls-1" x1="152.9" y1="193.97" x2="197.1" y2="149.78"/></svg>