<svg id="Layer_3" data-name="Layer 3" xmlns="http://www.w3.org/2000/svg" viewBox="0 0 250 250"><defs><style>.cls-1,.cls-2{fill:none;stroke-miterlimit:10;}.cls-1{stroke:#f3e5da;stroke-linecap:round;}.cls-2{stroke:#f4e5da;}</style></defs><title>tools</title><path class="cls-1" d="M27.19,25H125a0,0,0,0,1,0,0V125a0,0,0,0,1,0,0H18.33a0,0,0,0,1,0,0V33.86A8.86,8.86,0,0,1,27.19,25Z"/><line class="cls-1" x1="71.67" y1="41.67" x2="71.67" y2="108.33"/><line class="cls-1" x1="38.33" y1="75" x2="105" y2="75"/><path class="cls-1" d="M125,25h97.81a8.86,8.86,0,0,1,8.86,8.86V125a0,0,0,0,1,0,0H125a0,0,0,0,1,0,0V25A0,0,0,0,1,125,25Z"/><line class="cls-1" x1="145" y1="63.98" x2="211.67" y2="63.98"/><line class="cls-1" x1="145" y1="86.02" x2="211.67" y2="86.02"/><path class="cls-1" d="M18.33,125H125a0,0,0,0,1,0,0V225a0,0,0,0,1,0,0H27.19a8.86,8.86,0,0,1-8.86-8.86V125A0,0,0,0,1,18.33,125Z"/><line class="cls-1" x1="45" y1="175" x2="98.33" y2="175"/><path class="cls-1" d="M125,125H231.67a0,0,0,0,1,0,0v91.14a8.86,8.86,0,0,1-8.86,8.86H125a0,0,0,0,1,0,0V125A0,0,0,0,1,125,125Z"/><line class="cls-1" x1="154.76" y1="151.43" x2="201.9" y2="198.57"/><line class="cls-1" x1="154.76" y1="198.57" x2="201.9" y2="151.43"/><line class="cls-2" x1="25" y1="237.5" x2="225" y2="237.5"/></svg>