<svg xmlns="http://www.w3.org/2000/svg" viewBox="0 0 250 250"><defs><style>.cls-1,.cls-2{fill:#f4e5da;}.cls-1{stroke:#f4e5da;stroke-miterlimit:10;}</style></defs><title>youtube</title><g id="Layer_3" data-name="Layer 3"><path class="cls-1" d="M125,231A101,101,0,1,1,226,130,101.12,101.12,0,0,1,125,231Zm0-201A100,100,0,1,0,225,130,100.11,100.11,0,0,0,125,30Z"/><path class="cls-2" d="M182.49,101a15.07,15.07,0,0,0-10.61-10.68C162.52,87.76,125,87.76,125,87.76s-37.53,0-46.88,2.52A15.07,15.07,0,0,0,67.51,101C65,110.38,65,130,65,130s0,19.65,2.51,29.07a15.07,15.07,0,0,0,10.61,10.68C87.47,172.3,125,172.3,125,172.3s37.52,0,46.88-2.52a15.07,15.07,0,0,0,10.61-10.68C185,149.68,185,130,185,130S185,110.38,182.49,101Zm-69.76,46.91V112.19L144.09,130Z"/><circle class="cls-2" cx="125" cy="29.53" r="10.06"/></g></svg>